<svg width="91" height="91" viewBox="0 0 91 91" fill="none" xmlns="http://www.w3.org/2000/svg">
<path fill-rule="evenodd" clip-rule="evenodd" d="M45.43 0.593506C70.2859 0.593506 90.4336 20.7234 90.4336 45.5438C90.4336 70.3642 70.2859 90.4941 45.43 90.4941C20.5741 90.4941 0.426392 70.3464 0.426392 45.526C0.426392 20.7056 20.5741 0.593506 45.43 0.593506Z" fill="white"/>
<path d="M45.43 90.9027C20.3786 90.9027 0 70.5418 0 45.526C0 20.5102 20.3786 0.167114 45.43 0.167114C70.4813 0.167114 90.86 20.5102 90.86 45.526C90.86 70.5418 70.4813 90.8849 45.43 90.8849M45.43 1.01993C20.8406 1.01993 0.852812 20.9899 0.852812 45.526C0.852812 70.0621 20.8584 90.0499 45.43 90.0499C70.0016 90.0499 90.0072 70.0799 90.0072 45.526C90.0072 20.9722 70.0194 1.01993 45.43 1.01993Z" fill="#231F20"/>
<path fill-rule="evenodd" clip-rule="evenodd" d="M45.43 10.7562C64.6715 10.7562 80.2531 26.3378 80.2531 45.5438C80.2531 64.7499 64.6538 80.3314 45.43 80.3314C26.2062 80.3314 10.6068 64.7321 10.6068 45.5261C10.6068 26.32 26.1884 10.7562 45.43 10.7562Z" fill="white"/>
<path fill-rule="evenodd" clip-rule="evenodd" d="M45.43 11.6979C64.1385 11.6979 79.3115 26.853 79.3115 45.5261C79.3115 64.1991 64.1385 79.3543 45.43 79.3543C26.7214 79.3543 11.5485 64.2169 11.5485 45.5261C11.5485 26.8353 26.7214 11.6979 45.43 11.6979Z" fill="#231F20"/>
<path fill-rule="evenodd" clip-rule="evenodd" d="M21.6224 21.4696L16.3278 62.831C13.3074 57.7674 11.5663 51.851 11.5663 45.526C11.5663 36.1095 15.4217 27.5992 21.6224 21.4696Z" fill="#F48120"/>
<path fill-rule="evenodd" clip-rule="evenodd" d="M17.9089 65.2473L31.625 14.6116C35.8357 12.7283 40.5084 11.6801 45.4299 11.6801C48.0771 11.6801 50.6711 11.9821 53.1407 12.5684L20.7694 68.7118C19.7389 67.6281 18.7795 66.4554 17.9089 65.2473Z" fill="#F48120"/>
<path fill-rule="evenodd" clip-rule="evenodd" d="M21.9598 69.9202L63.5344 16.9215C69.3975 20.6348 74.0346 26.0892 76.7174 32.5564L24.7137 72.301C23.7543 71.5547 22.8304 70.773 21.9598 69.9202Z" fill="#F48120"/>
<path fill-rule="evenodd" clip-rule="evenodd" d="M26.1528 73.3491L79.2225 43.2875C79.2758 44.0337 79.2936 44.7799 79.2936 45.5261C79.2936 52.775 77.0017 59.4909 73.1107 65.0164L30.9321 76.1207C29.262 75.3212 27.663 74.3973 26.135 73.3491" fill="#F48120"/>
<path fill-rule="evenodd" clip-rule="evenodd" d="M35.2495 77.8086L63.0014 74.4507C57.8667 77.5599 51.8615 79.3543 45.4121 79.3543C41.8765 79.3543 38.4475 78.8036 35.2317 77.8086" fill="#F48120"/>
<path d="M45.43 79.7806C26.5082 79.7806 11.1221 64.4122 11.1221 45.526C11.1221 26.6398 26.5082 11.2892 45.43 11.2892C64.3517 11.2892 79.7379 26.6576 79.7379 45.5438C79.7379 64.43 64.3517 79.7984 45.43 79.7984M45.43 12.1242C26.9879 12.1242 11.9749 27.1195 11.9749 45.526C11.9749 63.9325 26.9879 78.9278 45.43 78.9278C63.872 78.9278 78.8851 63.9325 78.8851 45.526C78.8851 27.1195 63.872 12.1242 45.43 12.1242Z" fill="#231F20"/>
<path fill-rule="evenodd" clip-rule="evenodd" d="M3.73099 53.5567L3.65992 53.0237L8.40368 52.3308L8.10164 50.3231L8.59912 50.2521L8.97222 52.7927L3.73099 53.5745V53.5567ZM2.91371 46.9474C2.91371 46.1479 3.16244 45.4728 3.69545 44.9398C4.22846 44.389 4.88583 44.1225 5.66758 44.1225C6.44932 44.1225 7.1067 44.3712 7.63971 44.922C8.19048 45.455 8.45698 46.1124 8.45698 46.8763C8.45698 47.6581 8.20825 48.3332 7.65747 48.8662C7.12446 49.3992 6.46709 49.6835 5.70311 49.6835C5.18787 49.6835 4.72593 49.5769 4.28176 49.3282C3.83759 49.0794 3.50002 48.7596 3.25128 48.3332C3.00254 47.9068 2.87817 47.4449 2.87817 46.9652M3.42895 46.9296C3.42895 47.3205 3.53555 47.6936 3.74875 48.0312C3.96196 48.3865 4.22846 48.653 4.5838 48.8485C4.93914 49.0439 5.31224 49.1327 5.73865 49.1327C6.36049 49.1327 6.8935 48.9018 7.33767 48.4754C7.76407 48.0312 7.97728 47.516 7.97728 46.8941C7.97728 46.4855 7.87068 46.1124 7.67524 45.757C7.4798 45.4017 7.19553 45.1352 6.85796 44.9398C6.50262 44.7443 6.12952 44.6555 5.70311 44.6555C5.27671 44.6555 4.9036 44.7621 4.56603 44.9575C4.22846 45.153 3.96196 45.4372 3.74875 45.7926C3.55332 46.1479 3.44671 46.521 3.44671 46.9296M3.07361 42.6656L3.16244 42.097L7.4798 40.9777L3.69545 38.597L3.78429 38.0284L8.68795 41.0843V41.2087L3.09138 42.6656H3.07361ZM4.06856 36.5538L4.83253 33.6222L5.33001 33.7466L4.70817 36.1629L6.30719 36.5715L6.92903 34.173L7.4265 34.2974L6.80466 36.6959L8.81232 37.2111L9.43416 34.8126L9.93164 34.937L9.16766 37.8508L4.03302 36.5182L4.06856 36.5538ZM5.31224 32.2364L10.2692 34.1019L11.1753 31.7034L10.6956 31.5257L9.98494 33.4268L5.50768 31.7389L5.31224 32.2364ZM6.55592 29.0206L6.82243 28.4698L9.38086 28.1856L7.99504 26.0358L8.26155 25.485L10.0382 28.1856L12.3302 29.2693L12.0992 29.749L9.80727 28.6653L6.57369 29.0206H6.55592Z" fill="#231F20"/>
<path fill-rule="evenodd" clip-rule="evenodd" d="M16.4877 15.0737L17.3049 14.3985C17.7669 14.0077 18.1045 13.7767 18.2999 13.6701C18.5842 13.528 18.8684 13.4924 19.1705 13.5457C19.4725 13.599 19.7212 13.7589 19.9522 14.0254C20.1832 14.2919 20.2898 14.5762 20.2898 14.8782C20.2898 15.1803 20.201 15.4646 19.9878 15.7311C19.8456 15.9265 19.508 16.2285 19.0106 16.6549L18.7263 16.9037L20.3076 18.787L19.8989 19.1245L16.4877 15.0737ZM17.2161 15.127L18.371 16.5128L19.0639 15.9443C19.3481 15.7133 19.5258 15.5179 19.6146 15.358C19.7035 15.1981 19.739 15.0381 19.7212 14.8605C19.7035 14.6828 19.6324 14.5229 19.508 14.3808C19.4014 14.2386 19.2593 14.1498 19.0816 14.0965C18.9217 14.0432 18.7441 14.0432 18.5842 14.0965C18.4243 14.1498 18.2111 14.2919 17.9268 14.5229L17.2161 15.127ZM20.2365 11.9289L23.2746 16.2641L23.701 15.962L22.2797 13.9544L22.5284 13.7767L25.4955 14.7006L26.0285 14.3275L23.0614 13.4036C23.4168 13.1549 23.6833 12.9061 23.8254 12.6751C23.9675 12.4442 24.0386 12.1954 24.0208 11.9289C24.0208 11.6802 23.9142 11.4315 23.7543 11.2005C23.5589 10.9162 23.3102 10.7386 23.0081 10.6497C22.7061 10.5787 22.4218 10.5964 22.1198 10.703C21.9243 10.7919 21.5868 10.9873 21.0893 11.3249L20.2187 11.9289H20.2365ZM20.9827 12.0533L21.7467 11.5203C22.0487 11.3071 22.2797 11.1827 22.4396 11.1472C22.5995 11.1117 22.7594 11.1294 22.9193 11.1827C23.0792 11.2538 23.2213 11.3426 23.3102 11.5025C23.4168 11.6447 23.4701 11.8223 23.4701 11.9822C23.4701 12.1599 23.4345 12.3198 23.3279 12.4797C23.2213 12.6396 23.0259 12.7995 22.7416 13.0127L21.9954 13.528L20.9649 12.0533H20.9827ZM26.6859 7.80702C27.3966 7.45168 28.125 7.38061 28.8534 7.61158C29.5819 7.84255 30.1149 8.30449 30.4702 8.9974C30.8256 9.69031 30.8789 10.401 30.6479 11.1117C30.4169 11.8401 29.955 12.3731 29.2621 12.7285C28.5692 13.0838 27.8585 13.1549 27.1301 12.9061C26.4016 12.6751 25.8686 12.2132 25.5133 11.5381C25.2823 11.0939 25.1757 10.6142 25.1935 10.1167C25.2112 9.61924 25.3534 9.1573 25.6199 8.74866C25.8864 8.34002 26.2417 8.02022 26.6859 7.78925M26.9346 8.26896C27.29 8.09129 27.6808 8.00245 28.0895 8.02022C28.4981 8.03799 28.8712 8.16235 29.191 8.37556C29.5286 8.58876 29.7773 8.8908 29.9728 9.2639C30.1682 9.63701 30.257 10.0279 30.2393 10.4188C30.2393 10.8096 30.0971 11.1827 29.8839 11.5203C29.6707 11.8579 29.3687 12.1244 28.9956 12.302C28.4448 12.5863 27.8763 12.6218 27.29 12.4442C26.7036 12.2487 26.2772 11.8756 25.9752 11.3249C25.7798 10.9518 25.6909 10.5609 25.7087 10.17C25.7265 9.77914 25.8508 9.40604 26.064 9.06847C26.2772 8.7309 26.5615 8.46439 26.9168 8.28672M31.1098 6.04809L33.6327 5.23082L33.7926 5.72829L31.7672 6.38566L32.2825 7.96692L34.3079 7.30954L34.4678 7.80702L32.4424 8.46439L33.2419 10.934L32.7444 11.0939L31.1098 6.06586V6.04809ZM35.0363 4.87548L38.0034 4.25364L38.11 4.76888L35.6582 5.28412L35.9957 6.9009L38.4298 6.38566L38.5364 6.9009L36.1023 7.41614L36.5287 9.44157L38.9628 8.92633L39.0694 9.44157L36.1201 10.0634L35.0186 4.89324L35.0363 4.87548ZM39.3537 8.30449L39.7623 7.98469C40.1532 8.51769 40.5441 8.76643 40.9527 8.71313C41.1304 8.69536 41.2903 8.62429 41.4324 8.53546C41.5745 8.42886 41.6811 8.30449 41.7522 8.16235C41.8233 8.02022 41.8411 7.86032 41.8233 7.70042C41.8055 7.52275 41.7167 7.36284 41.5745 7.20294C41.3791 6.98974 41.0415 6.741 40.5796 6.4745C40.0999 6.19023 39.7979 5.99479 39.6735 5.85266C39.4603 5.62169 39.3359 5.37295 39.3004 5.08868C39.2648 4.85771 39.3004 4.64451 39.3892 4.44907C39.4781 4.25364 39.6202 4.07597 39.7979 3.9516C39.9755 3.82723 40.1887 3.73839 40.4197 3.70286C40.6684 3.66733 40.8994 3.70286 41.1304 3.80946C41.3613 3.8983 41.6101 4.09373 41.8944 4.39577L41.5035 4.76888C41.2725 4.53791 41.0771 4.378 40.9349 4.30694C40.7928 4.23587 40.6329 4.2181 40.473 4.23587C40.2598 4.25364 40.0999 4.34247 39.9755 4.50237C39.8512 4.64451 39.8156 4.80441 39.8334 4.99985C39.8334 5.10645 39.8867 5.23082 39.94 5.31965C39.9933 5.42625 40.0999 5.53285 40.242 5.63945C40.3131 5.69275 40.5618 5.85266 40.9882 6.08363C41.4857 6.3679 41.841 6.61663 42.0365 6.86537C42.2319 7.11411 42.3563 7.36284 42.3918 7.62935C42.4451 8.00245 42.3385 8.35779 42.072 8.6776C41.8233 8.9974 41.4857 9.17507 41.0593 9.22837C40.7395 9.2639 40.4375 9.22837 40.1532 9.08623C39.8689 8.9441 39.6024 8.69536 39.3359 8.32226M43.1203 7.86032L43.5644 7.59381C43.8842 8.16235 44.2573 8.44663 44.6838 8.44663C44.8614 8.44663 45.0213 8.39332 45.1812 8.30449C45.3411 8.21566 45.4477 8.10905 45.5366 7.96692C45.6076 7.82478 45.6609 7.68265 45.6609 7.52275C45.6609 7.34508 45.5899 7.16741 45.4655 7.00751C45.2878 6.77654 44.9858 6.49227 44.5416 6.17246C44.0974 5.85266 43.8132 5.62169 43.7066 5.46179C43.5111 5.21305 43.4223 4.94654 43.4045 4.66227C43.4045 4.4313 43.4578 4.2181 43.5644 4.02267C43.671 3.82723 43.8309 3.68509 44.0264 3.56073C44.2218 3.45412 44.435 3.38306 44.6838 3.38306C44.9325 3.38306 45.1635 3.43636 45.3944 3.56073C45.6076 3.68509 45.8564 3.8983 46.0873 4.23587L45.6609 4.57344C45.4655 4.30694 45.2878 4.14703 45.1457 4.0582C45.0036 3.96936 44.8437 3.93383 44.6838 3.93383C44.4706 3.93383 44.2929 4.0049 44.1685 4.12927C44.0441 4.25364 43.9731 4.41354 43.9731 4.60897C43.9731 4.71557 44.0086 4.83994 44.0441 4.94654C44.0974 5.05315 44.1863 5.17751 44.3107 5.30188C44.3817 5.37295 44.6127 5.53285 45.0036 5.81712C45.4655 6.15469 45.7853 6.43897 45.963 6.70547C46.1406 6.97197 46.2295 7.22071 46.2295 7.48721C46.2295 7.87808 46.0873 8.19789 45.8031 8.49993C45.5188 8.7842 45.1635 8.92633 44.7548 8.9441C44.435 8.9441 44.133 8.87303 43.8665 8.69536C43.6 8.51769 43.3512 8.25119 43.1203 7.84255M47.6686 3.61403L48.2016 3.64956L47.8285 8.92633L47.2955 8.8908L47.6686 3.61403ZM52.4479 3.98713C53.2296 4.12927 53.8515 4.50237 54.2957 5.12421C54.7398 5.74606 54.882 6.43897 54.7576 7.20294C54.6155 7.96692 54.2424 8.57099 53.6205 8.9974C52.9987 9.44157 52.3058 9.58371 51.5418 9.45934C50.76 9.3172 50.156 8.9441 49.7296 8.32226C49.2854 7.70042 49.1432 7.00751 49.2676 6.2613C49.3565 5.76382 49.5519 5.31965 49.8717 4.92878C50.1915 4.53791 50.5824 4.2714 51.0443 4.09373C51.5062 3.91606 51.986 3.88053 52.4657 3.96936M52.3946 4.50237C52.0037 4.4313 51.6306 4.46684 51.2397 4.60897C50.8666 4.75111 50.5468 4.96431 50.2803 5.28412C50.0316 5.58615 49.8717 5.95926 49.7829 6.3679C49.6763 6.98974 49.7829 7.54051 50.156 8.05575C50.5113 8.55323 50.991 8.85526 51.5951 8.96187C52.0037 9.03293 52.3946 8.9974 52.7677 8.87303C53.1408 8.7309 53.4606 8.51769 53.7093 8.21566C53.9581 7.91362 54.118 7.54051 54.2068 7.13187C54.2779 6.72324 54.2424 6.33236 54.118 5.95926C53.9936 5.58615 53.7626 5.28412 53.4428 5.01761C53.123 4.75111 52.7677 4.59121 52.3768 4.52014M55.3439 10.0812L56.9785 5.05315L57.0851 5.08868L59.1816 10.0279L60.443 6.17246L60.9405 6.33236L59.3059 11.3604L59.1993 11.3249L57.1206 6.43896L55.8769 10.2411L55.3617 10.0634L55.3439 10.0812ZM64.7959 8.12682L64.6893 8.07352L60.0521 11.6624L60.5851 11.9289L62.1131 10.7563L64.1563 11.7868L64.103 13.7234L64.6182 13.9721L64.8137 8.14459L64.7959 8.12682ZM64.2274 9.104L64.1563 11.2183L62.5395 10.401L64.2274 9.104ZM68.0295 10.0101L68.4736 10.2944L65.933 14.3452L67.6564 15.429L67.3899 15.8554L65.2045 14.5051L68.0117 10.0279L68.0295 10.0101Z" fill="#231F20"/>
<path fill-rule="evenodd" clip-rule="evenodd" d="M78.0678 18.6982L78.4054 19.1068L75.918 21.1145C75.616 21.3455 75.4383 21.5054 75.385 21.5764C75.2429 21.7363 75.1363 21.8785 75.1007 22.0561C75.0474 22.216 75.0474 22.4115 75.1007 22.6247C75.154 22.8379 75.2429 23.0155 75.3672 23.1754C75.4738 23.3176 75.616 23.4242 75.7759 23.4953C75.9358 23.5663 76.0957 23.6196 76.2734 23.6196C76.451 23.6196 76.6109 23.5841 76.7886 23.4953C76.913 23.442 77.1439 23.282 77.4637 23.0155L79.9511 21.0079L80.2887 21.4165L77.8013 23.4242C77.4282 23.7262 77.1084 23.9217 76.8241 24.0283C76.5399 24.1349 76.2201 24.1526 75.8825 24.0816C75.5449 24.0105 75.2429 23.8151 74.9941 23.4953C74.7276 23.1577 74.5677 22.8201 74.5322 22.447C74.4967 22.0739 74.5855 21.7541 74.7809 21.4698C74.9053 21.2922 75.1718 21.0257 75.5805 20.6881L78.0678 18.6804V18.6982ZM76.8597 25.9116L77.1262 26.3913L80.5907 24.3836L78.8673 29.4116L78.9206 29.5182L83.5045 26.871L83.238 26.4268L79.7201 28.4522L81.4791 23.3886L81.4258 23.282L76.8419 25.9293L76.8597 25.9116ZM84.2152 28.4167L84.4461 28.8964L79.6491 31.135L79.4181 30.6553L84.2152 28.4167ZM84.9791 30.1223L80.7151 33.9955L80.7506 34.1021L86.5071 34.564L86.3117 34.0133L81.8522 33.6579L85.1568 30.6731L84.9614 30.1223H84.9791ZM86.9157 36.092L87.502 39.0768L86.9868 39.1834L86.5071 36.7316L84.8725 37.0514L85.3523 39.4855L84.837 39.5921L84.3573 37.158L82.3141 37.5489L82.7938 39.9829L82.2786 40.0895L81.71 37.1402L86.9157 36.1275V36.092ZM87.6442 40.587L87.733 41.6353C87.7863 42.2216 87.7863 42.6124 87.7686 42.8256C87.733 43.1455 87.5909 43.412 87.3777 43.6252C87.1645 43.8384 86.8802 43.9627 86.5249 43.9983C86.2406 44.016 85.9741 43.9805 85.7431 43.8561C85.5121 43.7318 85.3345 43.5541 85.1923 43.3231C85.068 43.0744 84.9791 42.7368 84.9258 42.2926L82.6339 44.4069L82.5806 43.7495L84.8725 41.653V41.351L82.3852 41.5642L82.3319 41.0312L87.6086 40.5693L87.6442 40.587ZM87.1822 41.1556L85.3878 41.3155L85.4588 42.2216C85.4944 42.5769 85.5477 42.8256 85.6187 42.9856C85.7076 43.1455 85.8142 43.2698 85.9741 43.3587C86.134 43.4475 86.2939 43.4653 86.4716 43.4653C86.6492 43.4653 86.8091 43.3942 86.9335 43.2876C87.0756 43.181 87.1645 43.0389 87.2178 42.879C87.2711 42.719 87.2711 42.4525 87.2533 42.0972L87.1645 41.1733L87.1822 41.1556ZM83.6466 44.9754L83.9131 45.4374C83.3268 45.7394 83.0248 46.1125 83.0248 46.5212C83.0248 46.6988 83.0603 46.8587 83.1314 47.0186C83.2025 47.1785 83.3268 47.3029 83.4512 47.374C83.5933 47.4628 83.7355 47.4983 83.8954 47.4983C84.073 47.4983 84.2507 47.445 84.4284 47.3207C84.6593 47.1608 84.9614 46.8587 85.2989 46.4323C85.6365 46.0059 85.8853 45.7217 86.0452 45.6151C86.2939 45.4374 86.5782 45.3486 86.8624 45.3486C87.0934 45.3486 87.3066 45.4019 87.4843 45.5262C87.6797 45.6328 87.8219 45.7927 87.9285 46.0059C88.0351 46.2014 88.0884 46.4323 88.0706 46.6633C88.0706 46.912 87.9995 47.143 87.8751 47.3562C87.7508 47.5694 87.5198 47.8004 87.1822 48.0314L86.8624 47.5872C87.1289 47.3917 87.3066 47.2318 87.3954 47.0897C87.4843 46.9476 87.5198 46.8054 87.5376 46.6278C87.5376 46.4146 87.4843 46.2369 87.3421 46.0948C87.2178 45.9526 87.0579 45.8816 86.8624 45.8816C86.7558 45.8816 86.6315 45.8993 86.5249 45.9526C86.4183 46.0059 86.2939 46.077 86.1695 46.2014C86.0985 46.2724 85.9208 46.5034 85.6365 46.8765C85.2812 47.3207 84.9791 47.6405 84.7126 47.8004C84.4461 47.9603 84.1796 48.0491 83.9131 48.0491C83.5223 48.0491 83.2024 47.8892 82.9182 47.5872C82.6339 47.2851 82.5095 46.9298 82.5095 46.5212C82.5095 46.2014 82.5984 45.9171 82.776 45.6506C82.9537 45.3841 83.238 45.1531 83.6466 44.9399M87.8041 49.4172L87.7686 49.9502L82.4918 49.5771L82.5273 49.0441L87.8041 49.4172ZM87.1467 51.1228L87.6619 51.2116L87.1645 54.0721L86.6492 53.9833L86.8624 52.8284L82.1542 51.9934L82.243 51.4604L86.9513 52.2954L87.1645 51.1228H87.1467ZM87.0401 54.8538L86.8802 55.4402L84.4284 56.1864L86.1873 58.0341L86.0274 58.6204L83.7888 56.293L81.3369 55.6356L81.4791 55.1381L83.9309 55.7955L87.0401 54.8538Z" fill="#231F20"/>
<path fill-rule="evenodd" clip-rule="evenodd" d="M20.2363 72.283L21.0358 72.9759C21.4977 73.3667 21.782 73.651 21.9064 73.8287C22.084 74.0774 22.1729 74.3617 22.1729 74.6637C22.1729 74.9658 22.0485 75.25 21.8175 75.5165C21.5866 75.783 21.3201 75.9429 21.0358 75.9962C20.7515 76.0495 20.4495 75.9962 20.1474 75.8363C19.9342 75.7297 19.5611 75.4632 19.0637 75.0191L18.7794 74.7703L17.1804 76.6359L16.7717 76.2983L20.2185 72.283H20.2363ZM20.3073 73.0114L19.1347 74.3795L19.8099 74.9658C20.0764 75.1967 20.3073 75.3389 20.485 75.4099C20.6627 75.4632 20.8226 75.481 21.0003 75.4099C21.1779 75.3566 21.3201 75.2678 21.4267 75.1257C21.551 74.9835 21.6043 74.8414 21.6399 74.6637C21.6576 74.4861 21.6399 74.3262 21.551 74.184C21.48 74.0419 21.3023 73.8464 21.018 73.6155L20.3073 73.0114ZM23.3988 74.948L21.6221 77.613C21.3201 78.0572 21.1424 78.3948 21.0891 78.5902C20.9825 78.9278 21.018 79.2654 21.1602 79.6029C21.3023 79.9405 21.551 80.2248 21.9064 80.4557C22.2262 80.6689 22.5815 80.7755 22.9191 80.74C23.2744 80.7045 23.5587 80.5979 23.8074 80.4024C24.0384 80.207 24.2871 79.9227 24.5536 79.5319L26.3126 76.8668L25.8684 76.5825L24.1095 79.2476C23.8785 79.6029 23.7186 79.8161 23.612 79.905C23.4699 80.0293 23.31 80.1182 23.15 80.1715C22.9901 80.2248 22.8125 80.2248 22.6348 80.207C22.4571 80.1892 22.2972 80.1182 22.1551 80.0293C21.9952 79.9227 21.8531 79.7628 21.7287 79.5852C21.6221 79.3897 21.551 79.2121 21.551 79.0522C21.551 78.8745 21.5866 78.6968 21.6932 78.5191C21.7287 78.4303 21.8531 78.2349 22.0663 77.9151L23.843 75.25L23.3988 74.9658V74.948ZM24.9445 82.0725L27.3963 77.3821L27.5029 77.4354L28.7466 82.6588L30.6299 79.0699L31.0919 79.3187L28.64 84.0091L28.5334 83.9558L27.2897 78.8034L25.442 82.3568L24.9623 82.1081L24.9445 82.0725ZM33.4726 80.0471L32.4066 83.4406C32.2822 83.8492 32.1579 84.1335 32.069 84.2579C31.9802 84.3822 31.8558 84.4711 31.7137 84.5244C31.5716 84.5777 31.4294 84.5777 31.2873 84.5244C31.1807 84.4888 31.0741 84.4355 30.9675 84.3467C30.8254 84.2223 30.6477 84.0091 30.4345 83.7426L30.0436 84.0624C30.2213 84.3289 30.3989 84.5421 30.5766 84.6843C30.7543 84.8264 30.932 84.933 31.1452 84.9863C31.4117 85.0751 31.6604 85.0751 31.8914 85.0218C32.1223 84.9508 32.3 84.8442 32.4599 84.6665C32.602 84.4888 32.7619 84.1335 32.9219 83.6182L34.0056 80.207L33.4904 80.0471H33.4726ZM37.3458 81.1486L38.5007 86.8696L37.9499 86.7452L37.5412 84.8619L35.3204 84.3289L34.1122 85.8213L33.5437 85.6792L37.2214 81.1131L37.3458 81.1486ZM37.026 82.2324L35.6935 83.8847L37.4524 84.3112L37.026 82.2324ZM40.4728 81.6994L41.5033 81.8416C41.9119 81.8949 42.2317 81.9837 42.4449 82.1258C42.6581 82.2502 42.818 82.4279 42.9069 82.6588C43.0135 82.872 43.049 83.1208 43.0135 83.3695C42.9779 83.6005 42.8891 83.8137 42.7647 83.9914C42.6226 84.169 42.4271 84.2934 42.1962 84.3822C42.4627 84.5066 42.6581 84.6487 42.7825 84.7909C42.9069 84.933 43.0135 85.0929 43.0668 85.2883C43.1201 85.4838 43.1378 85.6792 43.1201 85.8746C43.0668 86.3011 42.8713 86.6386 42.516 86.8874C42.1606 87.1361 41.7342 87.2249 41.219 87.1539L39.7799 86.9584L40.4728 81.7172V81.6994ZM40.917 82.268L40.686 83.9558L40.988 83.9914C41.3611 84.0447 41.6276 84.0447 41.8053 83.9914C41.983 83.9381 42.1429 83.8492 42.2495 83.7248C42.3738 83.6005 42.4449 83.4406 42.4627 83.2629C42.4982 83.0319 42.4271 82.8187 42.285 82.6588C42.1429 82.4989 41.8764 82.3923 41.5033 82.339L40.8992 82.268H40.917ZM40.6149 84.4888L40.3484 86.4965L41.0058 86.5853C41.3967 86.6386 41.6809 86.6386 41.8586 86.5853C42.054 86.532 42.2139 86.4432 42.3383 86.2833C42.4627 86.1411 42.5515 85.9812 42.5693 85.7858C42.6048 85.5548 42.5515 85.3416 42.4271 85.1462C42.3028 84.9508 42.1073 84.8086 41.8408 84.702C41.6632 84.631 41.3611 84.5777 40.917 84.5066L40.6149 84.4711V84.4888ZM47.6506 81.7172H48.2369C48.0237 82.1791 47.8638 82.7477 47.7395 83.405C47.6329 84.0446 47.5796 84.7198 47.6151 85.3949C47.6506 86.0345 47.7217 86.6386 47.8461 87.2249C47.9704 87.8112 48.1481 88.3265 48.3613 88.7529H47.8105C47.6151 88.362 47.4552 87.8645 47.313 87.296C47.1887 86.7275 47.0998 86.1234 47.0821 85.5015C47.0465 84.8264 47.0821 84.169 47.1887 83.5294C47.2775 82.8898 47.4374 82.2857 47.6506 81.735M49.4984 81.8416L50.0314 81.806L50.44 87.0828L49.907 87.1183L49.4984 81.8416ZM52.0568 86.9051L51.0086 81.7172H51.1152L55.3792 84.9685L54.5797 81.0065L55.095 80.8999L56.1432 86.0878H56.0188L51.7903 82.8898L52.5898 86.8163L52.0568 86.9229V86.9051ZM57.8133 85.5904L59.3945 85.0218C60.0164 84.8086 60.4606 84.5421 60.7448 84.2401C61.0291 83.9381 61.2068 83.5649 61.2956 83.103C61.3844 82.6411 61.3311 82.1614 61.1535 81.6639C60.9403 81.0776 60.6382 80.6334 60.2118 80.3136C59.7854 79.9938 59.3057 79.8339 58.7549 79.8339C58.3818 79.8339 57.8133 79.9583 57.0671 80.2248L56.0366 80.5979L57.7955 85.5904H57.8133ZM58.1153 84.9508L56.694 80.9177L57.0493 80.7933C57.76 80.5446 58.293 80.4024 58.6483 80.3847C59.1103 80.3669 59.5189 80.4913 59.8743 80.74C60.2296 81.0065 60.4961 81.3618 60.656 81.8593C60.8159 82.3213 60.8514 82.7477 60.7448 83.1385C60.6382 83.5294 60.425 83.8492 60.0875 84.1157C59.8565 84.2934 59.3946 84.5066 58.7016 84.7553L58.1153 84.9508ZM61.0113 78.7146L61.491 78.5014L63.6941 83.3162L63.2144 83.5294L61.0113 78.7146ZM64.3693 77.0623L69.1841 80.3669L68.6866 80.6512L67.0876 79.5674L65.1155 80.7222L65.2932 82.6411L64.7779 82.9431L64.2449 77.1156L64.3515 77.0445L64.3693 77.0623ZM64.8845 78.0572L65.08 80.1715L66.6434 79.2476L64.8845 78.0572ZM71.4227 80.6334C71.2806 80.0471 71.0852 79.4786 70.8009 78.8745C70.5166 78.2882 70.1791 77.7196 69.7882 77.1866C69.4151 76.6891 69.0064 76.2272 68.58 75.8186C68.1536 75.4099 67.745 75.0901 67.3364 74.8592L66.8922 75.1967C67.3008 75.4455 67.7272 75.7653 68.1714 76.1739C68.5978 76.5825 69.0064 77.0445 69.3973 77.5597C69.806 78.1105 70.1435 78.679 70.41 79.2831C70.6765 79.8872 70.8542 80.4557 70.9608 80.971L71.4227 80.6156V80.6334Z" fill="#231F20"/>
<path fill-rule="evenodd" clip-rule="evenodd" d="M12.1168 66.0289C12.9519 66.0289 13.6448 66.7041 13.6448 67.5569C13.6448 68.4097 12.9696 69.0848 12.1168 69.0848C11.264 69.0848 10.5889 68.4097 10.5889 67.5569C10.5889 66.7041 11.264 66.0289 12.1168 66.0289Z" fill="#231F20"/>
<path d="M12.117 69.1739C11.2109 69.1739 10.4824 68.4454 10.4824 67.5393C10.4824 66.6332 11.2109 65.9048 12.117 65.9048C13.0231 65.9048 13.7515 66.6332 13.7515 67.5393C13.7515 68.4454 13.0231 69.1739 12.117 69.1739ZM12.117 66.1358C11.3352 66.1358 10.7134 66.7754 10.7134 67.5393C10.7134 68.3033 11.353 68.9429 12.117 68.9429C12.881 68.9429 13.5206 68.3033 13.5206 67.5393C13.5206 66.7754 12.881 66.1358 12.117 66.1358Z" fill="#231F20"/>
<path fill-rule="evenodd" clip-rule="evenodd" d="M78.352 66.0289C79.1871 66.0289 79.88 66.7041 79.88 67.5569C79.88 68.4097 79.2049 69.0848 78.352 69.0848C77.4992 69.0848 76.8241 68.4097 76.8241 67.5569C76.8241 66.7041 77.4992 66.0289 78.352 66.0289Z" fill="#231F20"/>
<path d="M78.3522 69.1739C77.4461 69.1739 76.7177 68.4454 76.7177 67.5393C76.7177 66.6332 77.4461 65.9048 78.3522 65.9048C79.2583 65.9048 79.9868 66.6332 79.9868 67.5393C79.9868 68.4454 79.2583 69.1739 78.3522 69.1739ZM78.3522 66.1358C77.5705 66.1358 76.9486 66.7754 76.9486 67.5393C76.9486 68.3033 77.5882 68.9429 78.3522 68.9429C79.1162 68.9429 79.7558 68.3033 79.7558 67.5393C79.7558 66.7754 79.1162 66.1358 78.3522 66.1358Z" fill="#231F20"/>
</svg>
