<svg width="80" height="25" viewBox="0 0 80 25" fill="none" xmlns="http://www.w3.org/2000/svg">
<g clip-path="url(#clip0_1_133)">
<path d="M24.3385 0.513916H0.398148V24.5993H24.3385V0.513916Z" fill="#F58220"/>
<path d="M24.7389 25H0V0.113159H24.7389V25ZM0.798538 24.1986H23.9404V0.916836H0.798538V24.2008V24.1986Z" fill="#231F20"/>
<path fill-rule="evenodd" clip-rule="evenodd" d="M6.35457 20.4156H16.0607V18.6204H8.62646V3.83044H6.35457V20.4156Z" fill="#231F20"/>
<path d="M51.9702 0.457397H28.0298V24.5428H51.9702V0.457397Z" fill="#F58220"/>
<path d="M52.3683 24.9434H27.6294V0.0566406H52.3683V24.9434ZM28.4279 24.142H51.5698V0.858053H28.4279V24.142Z" fill="#231F20"/>
<path fill-rule="evenodd" clip-rule="evenodd" d="M44.311 6.53358C44.0388 5.94724 43.6699 5.45371 43.1998 5.05753C42.6824 4.60929 42.0211 4.26971 41.2068 4.03653C40.3948 3.79882 39.4298 3.67883 38.3208 3.67883C37.4188 3.68336 36.609 3.71279 35.8937 3.77392C35.1806 3.83504 34.5531 3.90975 34.011 3.99804V20.3862H36.2559V13.744C36.5145 13.8052 36.798 13.8414 37.0994 13.8618C37.4031 13.8821 37.727 13.8912 38.0621 13.8912C38.7977 13.8912 39.4905 13.821 40.1473 13.6852C40.8019 13.5493 41.4047 13.3479 41.9491 13.0785C42.4957 12.8068 42.9726 12.4717 43.3775 12.0688C43.8161 11.6386 44.1535 11.127 44.3807 10.5361C44.6056 9.94525 44.7204 9.27514 44.7204 8.52579C44.7159 7.78324 44.5786 7.11993 44.3087 6.53132L44.311 6.53358ZM41.9491 10.5588C41.6004 11.0817 41.1011 11.4802 40.451 11.7563C39.8009 12.0303 39.0226 12.1706 38.1161 12.1706C37.7427 12.1706 37.3986 12.1571 37.0881 12.1299C36.78 12.105 36.5033 12.0597 36.2581 11.9986V5.55106C36.4583 5.50352 36.7305 5.4605 37.0926 5.42655C37.4525 5.39485 37.8799 5.37901 38.3748 5.37901C39.1958 5.37901 39.9134 5.49899 40.5297 5.7367C41.1416 5.9744 41.6184 6.33436 41.9581 6.81883C42.3023 7.3033 42.4732 7.91455 42.48 8.65257C42.4755 9.39965 42.3 10.0335 41.9513 10.561L41.9491 10.5588Z" fill="#231F20"/>
<path d="M79.6019 0.400757H55.6615V24.4862H79.6019V0.400757Z" fill="#F58220"/>
<path d="M80 24.8868H55.2611V0H80V24.8868ZM56.0596 24.0854H79.2015V0.801413H56.0596V24.0854Z" fill="#231F20"/>
<path fill-rule="evenodd" clip-rule="evenodd" d="M61.6179 3.77612V13.5448C61.6224 14.8329 61.7821 15.9286 62.0925 16.8342C62.4052 17.7352 62.8461 18.4664 63.4084 19.0233C63.9685 19.5848 64.6298 19.99 65.3856 20.2481C66.1437 20.5062 66.9692 20.633 67.8645 20.6284C68.8115 20.633 69.6842 20.4994 70.485 20.2277C71.2813 19.9583 71.9786 19.535 72.5725 18.9599C73.1618 18.3849 73.6207 17.6446 73.9491 16.7368C74.2753 15.8313 74.4417 14.7401 74.4485 13.4678V3.77612H72.1766V13.6195C72.1721 14.8284 71.9966 15.8267 71.648 16.6055C71.2993 17.3798 70.809 17.9593 70.1769 18.3283C69.5425 18.7019 68.8002 18.8898 67.9432 18.8852C67.1604 18.8898 66.4676 18.7087 65.8625 18.3419C65.2552 17.9774 64.7738 17.4024 64.4251 16.6259C64.0765 15.8516 63.901 14.8465 63.892 13.6195V3.77612H61.6201H61.6179Z" fill="#231F20"/>
</g>
<defs>
<clipPath id="clip0_1_133">
<rect width="80" height="25" fill="white"/>
</clipPath>
</defs>
</svg>
