<svg width="408" height="46" viewBox="0 0 408 46" fill="none" xmlns="http://www.w3.org/2000/svg">
<g clip-path="url(#clip0_19_1110)">
<path d="M194.014 4.66992V11.8496C194.014 12.5766 193.881 13.2338 193.622 13.821C193.364 14.4082 193.021 14.8836 192.602 15.2471C192.183 15.6107 191.693 15.8903 191.148 16.086C190.603 16.2818 190.051 16.3866 189.485 16.3866C188.919 16.3866 188.367 16.2888 187.822 16.1C187.277 15.9043 186.794 15.6316 186.368 15.2681C185.942 14.9046 185.606 14.4292 185.348 13.835C185.089 13.2407 184.957 12.5766 184.957 11.8565V4.66992H185.851V11.8496C185.851 12.4438 185.956 12.9821 186.166 13.4644C186.375 13.9468 186.648 14.3383 186.983 14.6389C187.319 14.9395 187.71 15.1702 188.15 15.331C188.591 15.4988 189.031 15.5757 189.485 15.5757C189.939 15.5757 190.38 15.4918 190.82 15.331C191.26 15.1632 191.644 14.9325 191.987 14.6389C192.329 14.3453 192.595 13.9538 192.805 13.4644C193.014 12.9821 193.119 12.4438 193.119 11.8496V4.66992H194.014Z" fill="#231F20" stroke="#231F20" stroke-miterlimit="10"/>
<path d="M211.408 4.66992L219.354 14.2334V4.66992H220.248V16.2258H219.892L211.932 6.6833V16.2258H211.023V4.66992H211.415H211.408Z" fill="#231F20" stroke="#231F20" stroke-miterlimit="10"/>
<path d="M237.384 16.2328V4.66992H238.279V16.2258H237.384V16.2328Z" fill="#231F20" stroke="#231F20" stroke-miterlimit="10"/>
<path d="M264.953 4.66992L260.096 16.2608H259.118L254.261 4.66992H255.239L259.607 15.2401L263.975 4.66992H264.953Z" fill="#231F20" stroke="#231F20" stroke-miterlimit="10"/>
<path d="M281.817 10.004H288.735V10.8149H281.817V15.373H289.273V16.2328H280.922V4.66992H289.071V5.50883H281.817V9.99697V10.004Z" fill="#231F20" stroke="#231F20" stroke-miterlimit="10"/>
<path d="M315.089 16.2328H313.894L309.812 11.8565H306.591V16.2328H305.682V4.66992H310.882C312.098 4.66992 313.041 5.02646 313.726 5.73254C314.411 6.43861 314.753 7.28451 314.76 8.27023C314.774 9.26992 314.439 10.1088 313.775 10.7869C313.104 11.4651 312.16 11.8006 310.93 11.8006L315.096 16.2258L315.089 16.2328ZM306.584 11.0107H310.77C311.762 11.0107 312.503 10.766 312.999 10.2696C313.495 9.77327 313.747 9.10214 313.761 8.25624C313.775 7.51521 313.523 6.87205 313.02 6.32676C312.517 5.77448 311.797 5.50184 310.875 5.50184H306.591V11.0176L306.584 11.0107Z" fill="#231F20" stroke="#231F20" stroke-miterlimit="10"/>
<path d="M338.772 6.90004C338.381 6.28484 337.885 5.87238 337.298 5.66265C336.711 5.45292 336.005 5.34107 335.201 5.33408C334.663 5.33408 334.139 5.397 333.643 5.51584C333.14 5.63469 332.678 5.88636 332.259 6.25688C331.84 6.63438 331.63 7.10277 331.63 7.67602C331.63 7.96265 331.7 8.21432 331.833 8.43803C331.966 8.66174 332.126 8.83651 332.315 8.97633C332.504 9.11615 332.769 9.24198 333.126 9.36782C333.482 9.49365 333.804 9.57754 334.09 9.64046C334.377 9.70338 334.761 9.77329 335.243 9.86417C336.718 10.1368 337.724 10.4095 338.262 10.6751C339.338 11.1924 339.884 12.0313 339.884 13.1848C339.884 13.8 339.737 14.3313 339.436 14.7788C339.136 15.2262 338.744 15.5617 338.262 15.7854C337.78 16.0092 337.284 16.1699 336.788 16.2748C336.284 16.3727 335.76 16.4216 335.208 16.4216C334.209 16.4216 333.258 16.2119 332.357 15.7854C331.455 15.359 330.792 14.7368 330.365 13.9119L331.176 13.5134C331.511 14.1706 332.07 14.6879 332.853 15.0584C333.636 15.4289 334.419 15.6107 335.208 15.6107C335.628 15.6107 336.026 15.5757 336.424 15.5128C336.816 15.4499 337.214 15.331 337.619 15.1633C338.025 14.9955 338.353 14.7438 338.598 14.4013C338.842 14.0587 338.968 13.6462 338.968 13.1639C338.968 12.8912 338.926 12.6396 338.835 12.4158C338.744 12.1921 338.598 11.9964 338.388 11.8286C338.178 11.6608 337.976 11.528 337.78 11.4161C337.584 11.3043 337.305 11.1994 336.941 11.1016C336.585 11.0037 336.291 10.9268 336.068 10.8778C335.844 10.8289 335.516 10.766 335.089 10.6891C334.614 10.5982 334.251 10.5283 333.999 10.4724C333.748 10.4164 333.419 10.3326 333.014 10.2137C332.609 10.0949 332.294 9.97602 332.077 9.8432C331.861 9.71037 331.63 9.54259 331.393 9.34685C331.155 9.1511 330.987 8.91341 330.875 8.63378C330.771 8.36113 330.715 8.05353 330.715 7.71098C330.701 7.13074 330.833 6.6204 331.113 6.18697C331.386 5.75353 331.756 5.41797 332.224 5.18727C332.692 4.95657 333.175 4.78879 333.664 4.67694C334.16 4.56508 334.67 4.50916 335.201 4.50916C336.18 4.50916 337.011 4.64198 337.689 4.90764C338.367 5.17329 338.982 5.69761 339.52 6.47359L338.779 6.90004H338.772Z" fill="#231F20" stroke="#231F20" stroke-miterlimit="10"/>
<path d="M356.167 16.2328V4.66992H357.061V16.2258H356.167V16.2328Z" fill="#231F20" stroke="#231F20" stroke-miterlimit="10"/>
<path d="M377.048 5.48089H372.778V4.69092H382.227V5.48089H377.957V16.2329H377.048V5.48089Z" fill="#231F20" stroke="#231F20" stroke-miterlimit="10"/>
<path d="M401.375 11.6049L396.77 4.6839V4.66992H397.832L401.829 10.745L405.848 4.66992H406.91V4.6839L402.29 11.6049V16.2258H401.382V11.6049H401.375Z" fill="#231F20" stroke="#231F20" stroke-miterlimit="10"/>
<path d="M197.214 32.7873L192.001 40.3514H191.651L186.403 32.7873V44.2663H185.355V31.3472H186.599L191.812 38.8763L196.963 31.3472H198.248V44.2663H197.221V32.7873H197.214Z" fill="#231F20"/>
<path d="M212.896 44.2594L211.401 41.0855H203.273L201.798 44.2594H200.673L206.774 31.3402H207.92L214.021 44.2594H212.896ZM210.995 40.1627L207.34 32.298L203.685 40.1627H210.995Z" fill="#231F20"/>
<path d="M216.901 31.3472L226.056 42.0292V31.3472H227.083V44.2663H226.677L217.502 33.5982V44.2663H216.453V31.3472H216.901Z" fill="#231F20"/>
<path d="M241.738 44.2594L240.242 41.0855H232.115L230.64 44.2594H229.515L235.616 31.3402H236.762L242.863 44.2594H241.738ZM239.837 40.1627L236.182 32.298L232.527 40.1627H239.837Z" fill="#231F20"/>
<path d="M255.267 33.724C254.687 33.1857 254.009 32.7733 253.233 32.4867C252.458 32.2 251.682 32.0602 250.892 32.0602C248.998 32.0602 247.524 32.6195 246.462 33.738C245.399 34.8566 244.875 36.2198 244.889 37.8137C244.889 39.4286 245.413 40.7709 246.462 41.8544C247.51 42.938 248.992 43.4763 250.892 43.4763C252.514 43.4763 253.89 42.98 255.03 41.9803V38.366H250.284V37.4991H256.022V42.3368C254.554 43.728 252.849 44.4201 250.892 44.4201C249.404 44.4201 248.118 44.1125 247.035 43.4973C245.952 42.8821 245.155 42.0851 244.645 41.1064C244.135 40.1277 243.876 39.0371 243.876 37.8277C243.862 35.8213 244.505 34.2064 245.812 32.983C247.112 31.7596 248.81 31.1444 250.892 31.1444C252.835 31.1444 254.498 31.7876 255.868 33.0809L255.267 33.7101V33.724Z" fill="#231F20"/>
<path d="M260.201 37.3034H268.168V38.2053H260.201V43.3016H268.79V44.2594H259.167V31.3402H268.559V32.284H260.201V37.3034Z" fill="#231F20"/>
<path d="M283.64 32.7873L278.434 40.3514H278.084L272.836 32.7873V44.2663H271.788V31.3472H273.032L278.245 38.8763L283.396 31.3472H284.682V44.2663H283.654V32.7873H283.64Z" fill="#231F20"/>
<path d="M289.546 37.3034H297.512V38.2053H289.546V43.3016H298.134V44.2594H288.511V31.3402H297.904V32.284H289.546V37.3034Z" fill="#231F20"/>
<path d="M301.573 31.3472L310.728 42.0292V31.3472H311.755V44.2663H311.35L302.174 33.5982V44.2663H301.125V31.3472H301.573Z" fill="#231F20"/>
<path d="M318.89 32.2489H313.97V31.3611H324.858V32.2489H319.938V44.2662H318.89V32.2489Z" fill="#231F20"/>
<path d="M340.268 33.8359C339.814 33.1438 339.247 32.6824 338.57 32.4517C337.892 32.221 337.081 32.0952 336.152 32.0812C335.53 32.0812 334.929 32.1511 334.356 32.2839C333.776 32.4168 333.244 32.6964 332.762 33.1159C332.273 33.5353 332.035 34.0596 332.035 34.7028C332.035 35.0244 332.112 35.304 332.266 35.5487C332.42 35.7934 332.608 35.9961 332.818 36.1499C333.035 36.3037 333.342 36.4505 333.755 36.5833C334.16 36.7162 334.53 36.821 334.859 36.8909C335.187 36.9608 335.634 37.0447 336.194 37.1426C337.892 37.4502 339.052 37.7508 339.674 38.0444C340.918 38.6247 341.54 39.5545 341.54 40.8478C341.54 41.5399 341.365 42.1271 341.023 42.6304C340.68 43.1268 340.226 43.5043 339.674 43.756C339.122 44.0077 338.549 44.1894 337.976 44.3013C337.403 44.4131 336.795 44.4691 336.159 44.4691C335.005 44.4691 333.908 44.2314 332.874 43.756C331.84 43.2806 331.071 42.5815 330.582 41.6587L331.518 41.2183C331.91 41.9593 332.553 42.5326 333.454 42.945C334.356 43.3575 335.257 43.5602 336.166 43.5602C336.648 43.5602 337.109 43.5253 337.563 43.4484C338.017 43.3715 338.479 43.2456 338.947 43.0639C339.415 42.8821 339.793 42.5955 340.072 42.218C340.359 41.8335 340.498 41.3721 340.498 40.8338C340.498 40.5262 340.449 40.2466 340.345 39.9949C340.24 39.7432 340.072 39.5265 339.827 39.3377C339.59 39.156 339.352 39.0022 339.129 38.8763C338.905 38.7505 338.584 38.6387 338.164 38.5268C337.752 38.4149 337.41 38.3311 337.151 38.2751C336.892 38.2192 336.515 38.1493 336.026 38.0654C335.481 37.9675 335.061 37.8836 334.775 37.8277C334.481 37.7648 334.104 37.6739 333.636 37.5411C333.168 37.4153 332.811 37.2754 332.56 37.1286C332.308 36.9818 332.042 36.7931 331.77 36.5763C331.497 36.3596 331.302 36.087 331.176 35.7794C331.05 35.4718 330.994 35.1292 330.994 34.7447C330.98 34.0946 331.134 33.5213 331.448 33.039C331.763 32.5566 332.196 32.1791 332.734 31.9204C333.272 31.6618 333.824 31.473 334.397 31.3472C334.971 31.2213 335.558 31.1654 336.166 31.1654C337.291 31.1654 338.248 31.3122 339.031 31.6058C339.814 31.8994 340.519 32.4867 341.141 33.3605L340.289 33.8429L340.268 33.8359Z" fill="#231F20"/>
<path d="M347.927 39.0931L342.623 31.3612V31.3402H343.846L348.451 38.1284L353.078 31.3402H354.301V31.3612L348.975 39.0931V44.2594H347.927V39.0931Z" fill="#231F20"/>
<path d="M364.972 33.8359C364.518 33.1438 363.952 32.6824 363.274 32.4517C362.596 32.221 361.785 32.0952 360.856 32.0812C360.234 32.0812 359.633 32.1511 359.06 32.2839C358.48 32.4168 357.949 32.6964 357.467 33.1159C356.977 33.5353 356.74 34.0596 356.74 34.7028C356.74 35.0244 356.817 35.304 356.97 35.5487C357.124 35.7934 357.313 35.9961 357.522 36.1499C357.739 36.3037 358.047 36.4505 358.459 36.5833C358.864 36.7162 359.235 36.821 359.563 36.8909C359.892 36.9608 360.339 37.0447 360.898 37.1426C362.596 37.4502 363.756 37.7508 364.378 38.0444C365.622 38.6247 366.244 39.5545 366.244 40.8478C366.244 41.5399 366.069 42.1271 365.727 42.6304C365.384 43.1268 364.93 43.5043 364.378 43.756C363.826 44.0077 363.253 44.1894 362.68 44.3013C362.107 44.4131 361.499 44.4691 360.863 44.4691C359.71 44.4691 358.613 44.2314 357.578 43.756C356.544 43.2806 355.775 42.5815 355.286 41.6587L356.223 41.2183C356.614 41.9593 357.257 42.5326 358.158 42.945C359.06 43.3575 359.961 43.5602 360.87 43.5602C361.352 43.5602 361.813 43.5253 362.268 43.4484C362.722 43.3715 363.183 43.2456 363.651 43.0639C364.12 42.8821 364.497 42.5955 364.776 42.218C365.063 41.8335 365.203 41.3721 365.203 40.8338C365.203 40.5262 365.154 40.2466 365.049 39.9949C364.944 39.7432 364.776 39.5265 364.532 39.3377C364.294 39.156 364.057 39.0022 363.833 38.8763C363.609 38.7505 363.288 38.6387 362.869 38.5268C362.456 38.4149 362.114 38.3311 361.855 38.2751C361.597 38.2192 361.219 38.1493 360.73 38.0654C360.185 37.9675 359.766 37.8836 359.479 37.8277C359.186 37.7648 358.808 37.6739 358.34 37.5411C357.872 37.4153 357.515 37.2754 357.264 37.1286C357.012 36.9818 356.747 36.7931 356.474 36.5763C356.202 36.3596 356.006 36.087 355.88 35.7794C355.754 35.4718 355.698 35.1292 355.698 34.7447C355.684 34.0946 355.838 33.5213 356.153 33.039C356.467 32.5566 356.9 32.1791 357.439 31.9204C357.977 31.6618 358.529 31.473 359.102 31.3472C359.675 31.2213 360.262 31.1654 360.87 31.1654C361.995 31.1654 362.952 31.3122 363.735 31.6058C364.518 31.8994 365.224 32.4867 365.846 33.3605L364.993 33.8429L364.972 33.8359Z" fill="#231F20"/>
<path d="M372.394 32.2489H367.474V31.3611H378.362V32.2489H373.442V44.2662H372.394V32.2489Z" fill="#231F20"/>
<path d="M381.605 37.3034H389.571V38.2053H381.605V43.3016H390.193V44.2594H380.57V31.3402H389.963V32.284H381.605V37.3034Z" fill="#231F20"/>
<path d="M405.044 32.7873L399.837 40.3514H399.488L394.24 32.7873V44.2663H393.191V31.3472H394.435L399.649 38.8763L404.799 31.3472H406.085V44.2663H405.058V32.7873H405.044Z" fill="#231F20"/>
<path d="M185.187 23.2517H408" stroke="#F15822" stroke-miterlimit="10"/>
<path d="M45.4499 21.2139L24.7397 0.496582L4.02957 21.2139L24.7397 41.9313L45.4499 21.2139Z" fill="#231F20"/>
<path d="M4.02527 21.2103L6.65992 41.1973" stroke="#231F20" stroke-miterlimit="10"/>
<path d="M4.02532 21.2103L0.342407 41.1973" stroke="#231F20" stroke-miterlimit="10"/>
<path d="M4.02533 21.2103L3.78772 42.6374" stroke="#231F20" stroke-miterlimit="10"/>
<path d="M64.762 25.4397V3.83093H75.042V25.4397C75.042 36.3106 66.6629 45.9999 55.4674 45.9999C44.2719 45.9999 35.8927 36.3106 35.8927 25.4397V3.83093H46.1727V25.4397C46.1727 30.613 49.9675 35.6534 55.4674 35.6534C60.9673 35.6534 64.762 30.613 64.762 25.4397Z" fill="#F15822"/>
<path d="M135.59 19.4136V45.0212H125.184V19.4136C125.184 15.8133 122.235 12.8632 118.636 12.8632C115.037 12.8632 112.158 15.8133 112.158 19.4136V45.0212H101.752V19.4136C101.752 15.8133 98.8027 12.8632 95.2037 12.8632C91.6046 12.8632 88.7254 15.8133 88.7254 19.4136V45.0212H78.3196V19.4136C78.3196 10.0458 85.916 2.45374 95.2107 2.45374C99.7951 2.45374 103.918 4.28535 106.93 7.2355C110.005 4.28535 114.128 2.45374 118.65 2.45374C128.014 2.45374 135.604 10.0528 135.604 19.4136H135.59Z" fill="black"/>
<path d="M151.293 19.0221H165.829C172.706 19.0221 178.269 24.6567 178.269 31.5288V32.4446C178.269 39.3236 172.706 44.9513 165.829 44.9513H141.998V34.5418H165.829C166.94 34.5418 167.926 33.626 167.926 32.4446C167.926 31.0674 167.73 29.4315 165.829 29.4315H151.293C144.486 29.4315 138.854 23.7968 138.854 16.9248V16.009C138.854 9.12998 144.486 3.50232 151.293 3.50232H175.187V13.9117H151.293C150.182 13.9117 149.266 14.8275 149.266 16.009C149.266 17.3862 149.399 19.0221 151.293 19.0221Z" fill="black"/>
<path d="M64.741 6.14502H75.035" stroke="#231F20" stroke-width="0.5" stroke-miterlimit="10"/>
<path d="M64.741 8.34705H75.035" stroke="#231F20" stroke-width="0.5" stroke-miterlimit="10"/>
<path d="M64.741 10.5492H75.035" stroke="#231F20" stroke-width="0.5" stroke-miterlimit="10"/>
<path d="M64.741 12.7583H75.035" stroke="#231F20" stroke-width="0.5" stroke-miterlimit="10"/>
<path d="M64.741 14.9604H75.035" stroke="#231F20" stroke-width="0.5" stroke-miterlimit="10"/>
<path d="M64.741 17.1626H75.035" stroke="#231F20" stroke-width="0.5" stroke-miterlimit="10"/>
<path d="M64.741 19.3647H75.035" stroke="#231F20" stroke-width="0.5" stroke-miterlimit="10"/>
<path d="M64.741 21.5669H75.035" stroke="#231F20" stroke-width="0.5" stroke-miterlimit="10"/>
<path d="M64.741 23.7689H75.035" stroke="#231F20" stroke-width="0.5" stroke-miterlimit="10"/>
<path d="M64.741 25.9711H75.035" stroke="#231F20" stroke-width="0.5" stroke-miterlimit="10"/>
<path d="M45.4499 21.2139L24.7397 0.496582L4.02957 21.2139L24.7397 41.9313L45.4499 21.2139Z" stroke="#231F20" stroke-miterlimit="10"/>
</g>
<defs>
<clipPath id="clip0_19_1110">
<rect width="408" height="46" fill="white"/>
</clipPath>
</defs>
</svg>
