<svg width="225" height="100" viewBox="0 0 225 100" fill="none" xmlns="http://www.w3.org/2000/svg">
<path d="M69.1075 21.7174L48.3973 1L27.6872 21.7174L48.3973 42.4347L69.1075 21.7174Z" fill="#231F20"/>
<path d="M27.6829 21.7137L30.3175 41.7007" stroke="#231F20" stroke-miterlimit="10"/>
<path d="M27.6829 21.7137L24 41.7007" stroke="#231F20" stroke-miterlimit="10"/>
<path d="M27.6829 21.7137L27.4453 43.1408" stroke="#231F20" stroke-miterlimit="10"/>
<path d="M88.4196 25.9432V4.33438H98.6996V25.9432C98.6996 36.814 90.3205 46.5034 79.125 46.5034C67.9295 46.5034 59.5503 36.814 59.5503 25.9432V4.33438H69.8303V25.9432C69.8303 31.1164 73.625 36.1569 79.125 36.1569C84.6249 36.1569 88.4196 31.1164 88.4196 25.9432Z" fill="#F15822"/>
<path d="M159.248 19.9171V45.5247H148.842V19.9171C148.842 16.3168 145.893 13.3666 142.294 13.3666C138.695 13.3666 135.815 16.3168 135.815 19.9171V45.5247H125.409V19.9171C125.409 16.3168 122.46 13.3666 118.861 13.3666C115.262 13.3666 112.383 16.3168 112.383 19.9171V45.5247H101.977V19.9171C101.977 10.5493 109.574 2.95718 118.868 2.95718C123.453 2.95718 127.576 4.78879 130.588 7.73895C133.663 4.78879 137.786 2.95718 142.308 2.95718C151.672 2.95718 159.262 10.5563 159.262 19.9171H159.248Z" fill="black"/>
<path d="M174.951 19.5256H189.487C196.363 19.5256 201.926 25.1602 201.926 32.0323V32.9481C201.926 39.8271 196.363 45.4548 189.487 45.4548H165.656V35.0453H189.487C190.598 35.0453 191.583 34.1295 191.583 32.9481C191.583 31.5709 191.388 29.935 189.487 29.935H174.951C168.144 29.935 162.511 24.3004 162.511 17.4283V16.5125C162.511 9.63349 168.144 4.00583 174.951 4.00583H198.844V14.4153H174.951C173.84 14.4153 172.924 15.3311 172.924 16.5125C172.924 17.8897 173.057 19.5256 174.951 19.5256Z" fill="black"/>
<path d="M88.3986 6.64838H98.6926" stroke="#231F20" stroke-width="0.5" stroke-miterlimit="10"/>
<path d="M88.3986 8.85052H98.6926" stroke="#231F20" stroke-width="0.5" stroke-miterlimit="10"/>
<path d="M88.3986 11.0526H98.6926" stroke="#231F20" stroke-width="0.5" stroke-miterlimit="10"/>
<path d="M88.3986 13.2617H98.6926" stroke="#231F20" stroke-width="0.5" stroke-miterlimit="10"/>
<path d="M88.3986 15.4639H98.6926" stroke="#231F20" stroke-width="0.5" stroke-miterlimit="10"/>
<path d="M88.3986 17.666H98.6926" stroke="#231F20" stroke-width="0.5" stroke-miterlimit="10"/>
<path d="M88.3986 19.8681H98.6926" stroke="#231F20" stroke-width="0.5" stroke-miterlimit="10"/>
<path d="M88.3986 22.0703H98.6926" stroke="#231F20" stroke-width="0.5" stroke-miterlimit="10"/>
<path d="M88.3986 24.2724H98.6926" stroke="#231F20" stroke-width="0.5" stroke-miterlimit="10"/>
<path d="M88.3986 26.4745H98.6926" stroke="#231F20" stroke-width="0.5" stroke-miterlimit="10"/>
<path d="M69.1075 21.7174L48.3973 1L27.6872 21.7174L48.3973 42.4347L69.1075 21.7174Z" stroke="#231F20" stroke-miterlimit="10"/>
<path d="M10.057 59.6699V66.8496C10.057 67.5766 9.92425 68.2338 9.66568 68.821C9.40711 69.4082 9.06468 69.8836 8.64537 70.2471C8.22606 70.6106 7.73686 70.8903 7.19176 71.086C6.64666 71.2818 6.09459 71.3866 5.52853 71.3866C4.96246 71.3866 4.41037 71.2888 3.86527 71.1C3.32017 70.9043 2.83796 70.6316 2.41166 70.2681C1.98536 69.9046 1.64992 69.4292 1.39135 68.835C1.13278 68.2407 1 67.5766 1 66.8565V59.6699H1.89452V66.8496C1.89452 67.4438 1.99936 67.9821 2.20901 68.4645C2.41866 68.9468 2.6912 69.3383 3.02665 69.6389C3.36209 69.9395 3.75346 70.1702 4.19373 70.331C4.634 70.4988 5.07428 70.5757 5.52853 70.5757C5.98278 70.5757 6.42303 70.4918 6.8633 70.331C7.30358 70.1632 7.68795 69.9325 8.03038 69.6389C8.37282 69.3453 8.63839 68.9538 8.84804 68.4645C9.0577 67.9821 9.16251 67.4438 9.16251 66.8496V59.6699H10.057Z" fill="#231F20" stroke="#231F20" stroke-miterlimit="10"/>
<path d="M27.4513 59.6699L35.3971 69.2334V59.6699H36.2917V71.2258H35.9352L27.9754 61.6833V71.2258H27.0669V59.6699H27.4582H27.4513Z" fill="#231F20" stroke="#231F20" stroke-miterlimit="10"/>
<path d="M53.4274 71.2328V59.6699H54.3219V71.2258H53.4274V71.2328Z" fill="#231F20" stroke="#231F20" stroke-miterlimit="10"/>
<path d="M80.9968 59.6699L76.1398 71.2608H75.1614L70.3044 59.6699H71.2828L75.6506 70.2401L80.0184 59.6699H80.9968Z" fill="#231F20" stroke="#231F20" stroke-miterlimit="10"/>
<path d="M97.86 65.004H104.779V65.8149H97.86V70.373H105.317V71.2328H96.9655V59.6699H105.114V60.5088H97.86V64.997V65.004Z" fill="#231F20" stroke="#231F20" stroke-miterlimit="10"/>
<path d="M131.132 71.2328H129.937L125.856 66.8565H122.634V71.2328H121.726V59.6699H126.925C128.141 59.6699 129.084 60.0265 129.769 60.7325C130.454 61.4386 130.797 62.2845 130.804 63.2702C130.818 64.2699 130.482 65.1088 129.818 65.7869C129.147 66.4651 128.204 66.8006 126.974 66.8006L131.139 71.2258L131.132 71.2328ZM122.627 66.0107H126.813C127.806 66.0107 128.546 65.766 129.042 65.2696C129.539 64.7733 129.79 64.1021 129.804 63.2562C129.818 62.5152 129.567 61.872 129.063 61.3268C128.56 60.7745 127.84 60.5018 126.918 60.5018H122.634V66.0176L122.627 66.0107Z" fill="#231F20" stroke="#231F20" stroke-miterlimit="10"/>
<path d="M154.816 61.9C154.425 61.2848 153.928 60.8723 153.341 60.6626C152.754 60.4529 152.048 60.341 151.245 60.334C150.707 60.334 150.183 60.397 149.686 60.5158C149.183 60.6347 148.722 60.8863 148.303 61.2568C147.883 61.6344 147.674 62.1027 147.674 62.676C147.674 62.9626 147.744 63.2143 147.876 63.438C148.009 63.6617 148.17 63.8365 148.359 63.9763C148.547 64.1161 148.813 64.242 149.169 64.3678C149.526 64.4936 149.847 64.5775 150.134 64.6404C150.42 64.7033 150.805 64.7733 151.287 64.8641C152.761 65.1368 153.768 65.4094 154.306 65.6751C155.382 66.1924 155.927 67.0313 155.927 68.1848C155.927 68.8 155.78 69.3313 155.48 69.7787C155.179 70.2261 154.788 70.5617 154.306 70.7854C153.824 71.0091 153.327 71.1699 152.831 71.2748C152.328 71.3727 151.804 71.4216 151.252 71.4216C150.252 71.4216 149.302 71.2119 148.401 70.7854C147.499 70.359 146.835 69.7368 146.409 68.9119L147.219 68.5134C147.555 69.1705 148.114 69.6878 148.897 70.0584C149.679 70.4289 150.462 70.6106 151.252 70.6106C151.671 70.6106 152.069 70.5757 152.468 70.5128C152.859 70.4499 153.257 70.331 153.663 70.1632C154.068 69.9954 154.397 69.7438 154.641 69.4012C154.886 69.0587 155.012 68.6462 155.012 68.1638C155.012 67.8912 154.97 67.6395 154.879 67.4158C154.788 67.1921 154.641 66.9964 154.432 66.8286C154.222 66.6608 154.019 66.528 153.824 66.4161C153.628 66.3043 153.348 66.1994 152.985 66.1015C152.629 66.0037 152.335 65.9268 152.111 65.8778C151.888 65.8289 151.559 65.766 151.133 65.6891C150.658 65.5982 150.294 65.5283 150.043 65.4723C149.791 65.4164 149.463 65.3325 149.057 65.2137C148.652 65.0948 148.338 64.976 148.121 64.8432C147.904 64.7103 147.674 64.5426 147.436 64.3468C147.199 64.1511 147.031 63.9134 146.919 63.6337C146.814 63.3611 146.758 63.0535 146.758 62.7109C146.744 62.1307 146.877 61.6204 147.157 61.1869C147.429 60.7535 147.8 60.4179 148.268 60.1872C148.736 59.9565 149.218 59.7888 149.707 59.6769C150.204 59.5651 150.714 59.5091 151.245 59.5091C152.223 59.5091 153.055 59.642 153.733 59.9076C154.411 60.1733 155.026 60.6976 155.564 61.4736L154.823 61.9H154.816Z" fill="#231F20" stroke="#231F20" stroke-miterlimit="10"/>
<path d="M172.21 71.2328V59.6699H173.105V71.2258H172.21V71.2328Z" fill="#231F20" stroke="#231F20" stroke-miterlimit="10"/>
<path d="M193.092 60.4809H188.822V59.6909H198.27V60.4809H194V71.2328H193.092V60.4809Z" fill="#231F20" stroke="#231F20" stroke-miterlimit="10"/>
<path d="M217.419 66.6049L212.813 59.6839V59.6699H213.875L217.873 65.745L221.891 59.6699H222.953V59.6839L218.334 66.6049V71.2258H217.425V66.6049H217.419Z" fill="#231F20" stroke="#231F20" stroke-miterlimit="10"/>
<path d="M13.2578 87.7872L8.04444 95.3514H7.69502L2.44671 87.7872V99.2663H1.39844V86.3471H2.64238L7.85576 93.8763L13.0063 86.3471H14.2921V99.2663H13.2648V87.7872H13.2578Z" fill="#231F20"/>
<path d="M28.94 99.2593L27.4444 96.0854H19.3169L17.8423 99.2593H16.7172L22.8181 86.3401H23.9642L30.0651 99.2593H28.94ZM27.0391 95.1626L23.3842 87.2979L19.7292 95.1626H27.0391Z" fill="#231F20"/>
<path d="M32.9443 86.3471L42.0992 97.0292V86.3471H43.1265V99.2663H42.7212L33.5453 88.5982V99.2663H32.4971V86.3471H32.9443Z" fill="#231F20"/>
<path d="M57.7813 99.2593L56.2857 96.0854H48.1582L46.6836 99.2593H45.5585L51.6594 86.3401H52.8055L58.9064 99.2593H57.7813ZM55.8804 95.1626L52.2254 87.2979L48.5705 95.1626H55.8804Z" fill="#231F20"/>
<path d="M71.311 88.724C70.7309 88.1857 70.053 87.7733 69.2773 87.4866C68.5016 87.2 67.7259 87.0602 66.9362 87.0602C65.0423 87.0602 63.5678 87.6195 62.5055 88.738C61.4433 89.8565 60.9191 91.2198 60.9331 92.8137C60.9331 94.4286 61.4572 95.7708 62.5055 96.8544C63.5538 97.938 65.0353 98.4763 66.9362 98.4763C68.5575 98.4763 69.9342 97.9799 71.0733 96.9802V93.366H66.3282V92.4991H72.0657V97.3368C70.5981 98.728 68.893 99.4201 66.9362 99.4201C65.4477 99.4201 64.1618 99.1125 63.0786 98.4973C61.9953 97.8821 61.1987 97.0851 60.6885 96.1064C60.1784 95.1277 59.9198 94.0371 59.9198 92.8277C59.9058 90.8213 60.5487 89.2064 61.8556 87.983C63.1554 86.7596 64.8536 86.1444 66.9362 86.1444C68.879 86.1444 70.5422 86.7875 71.912 88.0809L71.311 88.71V88.724Z" fill="#231F20"/>
<path d="M76.2447 92.3033H84.2116V93.2052H76.2447V98.3015H84.8335V99.2593H75.2104V86.3401H84.6029V87.2839H76.2447V92.3033Z" fill="#231F20"/>
<path d="M99.6841 87.7872L94.4777 95.3514H94.1283L88.8799 87.7872V99.2663H87.8317V86.3471H89.0756L94.289 93.8763L99.4395 86.3471H100.725V99.2663H99.6981V87.7872H99.6841Z" fill="#231F20"/>
<path d="M105.589 92.3033H113.556V93.2052H105.589V98.3015H114.178V99.2593H104.555V86.3401H113.948V87.2839H105.589V92.3033Z" fill="#231F20"/>
<path d="M117.616 86.3471L126.771 97.0292V86.3471H127.799V99.2663H127.393L118.217 88.5982V99.2663H117.169V86.3471H117.616Z" fill="#231F20"/>
<path d="M134.934 87.2489H130.014V86.3611H140.902V87.2489H135.982V99.2662H134.934V87.2489Z" fill="#231F20"/>
<path d="M156.311 88.8359C155.857 88.1438 155.291 87.6824 154.613 87.4517C153.935 87.221 153.125 87.0951 152.195 87.0811C151.573 87.0811 150.972 87.1511 150.399 87.2839C149.819 87.4167 149.288 87.6963 148.806 88.1158C148.317 88.5353 148.079 89.0596 148.079 89.7027C148.079 90.0243 148.156 90.3039 148.31 90.5486C148.463 90.7933 148.652 90.996 148.862 91.1498C149.078 91.3036 149.386 91.4505 149.798 91.5833C150.204 91.7161 150.574 91.821 150.902 91.8909C151.231 91.9608 151.678 92.0447 152.237 92.1425C153.935 92.4501 155.095 92.7508 155.717 93.0444C156.961 93.6246 157.583 94.5544 157.583 95.8477C157.583 96.5398 157.409 97.127 157.066 97.6304C156.724 98.1267 156.27 98.5042 155.717 98.7559C155.165 99.0076 154.592 99.1894 154.019 99.3012C153.446 99.4131 152.838 99.469 152.202 99.469C151.049 99.469 149.952 99.2313 148.918 98.7559C147.883 98.2805 147.115 97.5815 146.625 96.6587L147.562 96.2182C147.953 96.9593 148.596 97.5325 149.498 97.945C150.399 98.3574 151.301 98.5602 152.209 98.5602C152.691 98.5602 153.153 98.5252 153.607 98.4483C154.061 98.3714 154.522 98.2456 154.991 98.0638C155.459 97.8821 155.836 97.5954 156.116 97.2179C156.402 96.8334 156.542 96.372 156.542 95.8337C156.542 95.5261 156.493 95.2465 156.388 94.9948C156.284 94.7432 156.116 94.5264 155.871 94.3377C155.634 94.1559 155.396 94.0021 155.172 93.8763C154.949 93.7504 154.627 93.6386 154.208 93.5267C153.796 93.4149 153.453 93.331 153.195 93.2751C152.936 93.2191 152.559 93.1492 152.069 93.0653C151.524 92.9675 151.105 92.8836 150.819 92.8277C150.525 92.7647 150.148 92.6739 149.679 92.541C149.211 92.4152 148.855 92.2754 148.603 92.1286C148.352 91.9818 148.086 91.793 147.814 91.5763C147.541 91.3596 147.345 91.0869 147.22 90.7793C147.094 90.4717 147.038 90.1292 147.038 89.7447C147.024 89.0945 147.178 88.5213 147.492 88.0389C147.807 87.5565 148.24 87.179 148.778 86.9204C149.316 86.6617 149.868 86.4729 150.441 86.3471C151.014 86.2213 151.601 86.1653 152.209 86.1653C153.334 86.1653 154.292 86.3122 155.075 86.6058C155.857 86.8994 156.563 87.4866 157.185 88.3605L156.332 88.8429L156.311 88.8359Z" fill="#231F20"/>
<path d="M163.971 94.093L158.667 86.3611V86.3401H159.89L164.495 93.1283L169.121 86.3401H170.344V86.3611L165.019 94.093V99.2593H163.971V94.093Z" fill="#231F20"/>
<path d="M181.016 88.8359C180.561 88.1438 179.995 87.6824 179.318 87.4517C178.64 87.221 177.829 87.0951 176.899 87.0811C176.278 87.0811 175.677 87.1511 175.103 87.2839C174.523 87.4167 173.992 87.6963 173.51 88.1158C173.021 88.5353 172.783 89.0596 172.783 89.7027C172.783 90.0243 172.86 90.3039 173.014 90.5486C173.168 90.7933 173.356 90.996 173.566 91.1498C173.783 91.3036 174.09 91.4505 174.502 91.5833C174.908 91.7161 175.278 91.821 175.607 91.8909C175.935 91.9608 176.382 92.0447 176.941 92.1425C178.64 92.4501 179.8 92.7508 180.422 93.0444C181.666 93.6246 182.288 94.5544 182.288 95.8477C182.288 96.5398 182.113 97.127 181.77 97.6304C181.428 98.1267 180.974 98.5042 180.422 98.7559C179.87 99.0076 179.297 99.1894 178.723 99.3012C178.15 99.4131 177.542 99.469 176.906 99.469C175.753 99.469 174.656 99.2313 173.622 98.7559C172.588 98.2805 171.819 97.5815 171.33 96.6587L172.266 96.2182C172.658 96.9593 173.3 97.5325 174.202 97.945C175.103 98.3574 176.005 98.5602 176.913 98.5602C177.396 98.5602 177.857 98.5252 178.311 98.4483C178.765 98.3714 179.227 98.2456 179.695 98.0638C180.163 97.8821 180.54 97.5954 180.82 97.2179C181.107 96.8334 181.246 96.372 181.246 95.8337C181.246 95.5261 181.197 95.2465 181.093 94.9948C180.988 94.7432 180.82 94.5264 180.575 94.3377C180.338 94.1559 180.1 94.0021 179.877 93.8763C179.653 93.7504 179.331 93.6386 178.912 93.5267C178.5 93.4149 178.157 93.331 177.899 93.2751C177.64 93.2191 177.263 93.1492 176.774 93.0653C176.229 92.9675 175.809 92.8836 175.523 92.8277C175.229 92.7647 174.852 92.6739 174.384 92.541C173.915 92.4152 173.559 92.2754 173.307 92.1286C173.056 91.9818 172.79 91.793 172.518 91.5763C172.245 91.3596 172.05 91.0869 171.924 90.7793C171.798 90.4717 171.742 90.1292 171.742 89.7447C171.728 89.0945 171.882 88.5213 172.196 88.0389C172.511 87.5565 172.944 87.179 173.482 86.9204C174.02 86.6617 174.572 86.4729 175.145 86.3471C175.718 86.2213 176.305 86.1653 176.913 86.1653C178.039 86.1653 178.996 86.3122 179.779 86.6058C180.561 86.8994 181.267 87.4866 181.889 88.3605L181.037 88.8429L181.016 88.8359Z" fill="#231F20"/>
<path d="M188.437 87.2489H183.518V86.3611H194.406V87.2489H189.486V99.2662H188.437V87.2489Z" fill="#231F20"/>
<path d="M197.648 92.3033H205.615V93.2052H197.648V98.3015H206.237V99.2593H196.614V86.3401H206.006V87.2839H197.648V92.3033Z" fill="#231F20"/>
<path d="M221.088 87.7872L215.881 95.3514H215.532L210.283 87.7872V99.2663H209.235V86.3471H210.479L215.692 93.8763L220.843 86.3471H222.129V99.2663H221.101V87.7872H221.088Z" fill="#231F20"/>
<path d="M1.23059 78.2517H224.044" stroke="#F15822" stroke-miterlimit="10"/>
</svg>
