<svg width="179" height="47" viewBox="0 0 179 47" fill="none" xmlns="http://www.w3.org/2000/svg">
<path d="M46.1075 21.7174L25.3973 1L4.68716 21.7174L25.3973 42.4347L46.1075 21.7174Z" fill="#231F20"/>
<path d="M4.68286 21.7137L7.31751 41.7007" stroke="#231F20" stroke-miterlimit="10"/>
<path d="M4.68292 21.7137L1 41.7007" stroke="#231F20" stroke-miterlimit="10"/>
<path d="M4.68292 21.7137L4.44531 43.1408" stroke="#231F20" stroke-miterlimit="10"/>
<path d="M65.4196 25.9432V4.33438H75.6996V25.9432C75.6996 36.814 67.3205 46.5034 56.125 46.5034C44.9295 46.5034 36.5503 36.814 36.5503 25.9432V4.33438H46.8303V25.9432C46.8303 31.1164 50.625 36.1569 56.125 36.1569C61.6249 36.1569 65.4196 31.1164 65.4196 25.9432Z" fill="#F15822"/>
<path d="M136.248 19.9171V45.5247H125.842V19.9171C125.842 16.3168 122.893 13.3666 119.294 13.3666C115.695 13.3666 112.815 16.3168 112.815 19.9171V45.5247H102.409V19.9171C102.409 16.3168 99.4603 13.3666 95.8613 13.3666C92.2622 13.3666 89.383 16.3168 89.383 19.9171V45.5247H78.9772V19.9171C78.9772 10.5493 86.5736 2.95718 95.8683 2.95718C100.453 2.95718 104.576 4.78879 107.588 7.73895C110.663 4.78879 114.786 2.95718 119.308 2.95718C128.672 2.95718 136.262 10.5563 136.262 19.9171H136.248Z" fill="black"/>
<path d="M151.951 19.5256H166.487C173.363 19.5256 178.926 25.1602 178.926 32.0323V32.9481C178.926 39.8271 173.363 45.4548 166.487 45.4548H142.656V35.0453H166.487C167.598 35.0453 168.583 34.1295 168.583 32.9481C168.583 31.5709 168.388 29.935 166.487 29.935H151.951C145.144 29.935 139.511 24.3004 139.511 17.4283V16.5125C139.511 9.63349 145.144 4.00583 151.951 4.00583H175.844V14.4153H151.951C150.84 14.4153 149.924 15.3311 149.924 16.5125C149.924 17.8897 150.057 19.5256 151.951 19.5256Z" fill="black"/>
<path d="M65.3986 6.64838H75.6926" stroke="#231F20" stroke-width="0.5" stroke-miterlimit="10"/>
<path d="M65.3986 8.85052H75.6926" stroke="#231F20" stroke-width="0.5" stroke-miterlimit="10"/>
<path d="M65.3986 11.0526H75.6926" stroke="#231F20" stroke-width="0.5" stroke-miterlimit="10"/>
<path d="M65.3986 13.2617H75.6926" stroke="#231F20" stroke-width="0.5" stroke-miterlimit="10"/>
<path d="M65.3986 15.4639H75.6926" stroke="#231F20" stroke-width="0.5" stroke-miterlimit="10"/>
<path d="M65.3986 17.666H75.6926" stroke="#231F20" stroke-width="0.5" stroke-miterlimit="10"/>
<path d="M65.3986 19.8681H75.6926" stroke="#231F20" stroke-width="0.5" stroke-miterlimit="10"/>
<path d="M65.3986 22.0703H75.6926" stroke="#231F20" stroke-width="0.5" stroke-miterlimit="10"/>
<path d="M65.3986 24.2724H75.6926" stroke="#231F20" stroke-width="0.5" stroke-miterlimit="10"/>
<path d="M65.3986 26.4745H75.6926" stroke="#231F20" stroke-width="0.5" stroke-miterlimit="10"/>
<path d="M46.1075 21.7174L25.3973 1L4.68716 21.7174L25.3973 42.4347L46.1075 21.7174Z" stroke="#231F20" stroke-miterlimit="10"/>
</svg>
