<?xml version="1.0" encoding="utf-8"?>
<!-- Generator: Adobe Illustrator 27.5.0, SVG Export Plug-In . SVG Version: 6.00 Build 0)  -->
<svg version="1.1" xmlns="http://www.w3.org/2000/svg" xmlns:xlink="http://www.w3.org/1999/xlink" x="0px" y="0px"
	 viewBox="0 0 750 500" style="enable-background:new 0 0 750 500;" xml:space="preserve">
<g id="BACKGROUND">
	<rect style="fill:#A1C5EB;" width="750" height="500"/>
</g>
<g id="OBJECTS">
	<path style="fill:#342447;" d="M98.232,455.697c-1.689,0.313-1.453,2.802,0.265,2.792l261.381-1.505
		c22.537-0.112,44.992-2.728,66.952-7.799l243.67-56.277c1.397-0.323,1.185-2.375-0.249-2.404l-198.699-4.041L98.232,455.697z"/>
	<g>
		<g>
			<g>
				<path style="fill:#241933;" d="M655.536,343.572l0.211,3.435l-7.345-0.273l0.155-11.099l-295.499-5.165
					c0,0,16.031,39.61,18.131,39.716c2.1,0.106,276.975-6.395,276.975-6.395l0.066-4.715h8.258l0.355,5.791h6.912l1.308-21.949
					L655.536,343.572z"/>
				<polygon style="fill:#EF701B;" points="661.696,345.702 661.696,361.723 665.742,361.723 666.453,345.709 				"/>
			</g>
			<g>
				<path style="fill:#241933;" d="M620.918,339.632c-8.55,0-15.481,13.074-15.481,29.202c0,16.128,6.931,29.202,15.481,29.202
					h16.896v-58.404H620.918z"/>
				<g>
					<ellipse style="fill:#241933;" cx="637.814" cy="368.834" rx="15.481" ry="29.202"/>
					<ellipse style="fill:#342447;" cx="639.211" cy="368.834" rx="9.346" ry="17.629"/>
					<ellipse style="fill:#47315D;" cx="639.211" cy="368.834" rx="4.401" ry="8.302"/>
				</g>
			</g>
			<g>
				<path style="fill:#241933;" d="M573.886,339.453c-10.223,0-18.511,15.633-18.511,34.916c0,19.284,8.288,34.917,18.511,34.917
					h20.202v-69.833H573.886z"/>
				<g>
					<ellipse style="fill:#241933;" cx="594.089" cy="374.369" rx="18.511" ry="34.917"/>
					<ellipse style="fill:#342447;" cx="595.76" cy="374.369" rx="11.175" ry="21.079"/>
					<ellipse style="fill:#47315D;" cx="595.76" cy="374.369" rx="5.262" ry="9.926"/>
				</g>
			</g>
			<g>
				<polygon style="fill:#47315D;" points="541,347.314 541,378.468 580.231,372.535 580.231,347.166 				"/>
				<polygon style="fill:#342447;" points="541,347.314 514.71,347.314 518.084,378.468 541,378.468 				"/>
			</g>
			<g>
				<path style="fill:#241933;" d="M487.3,335.636c-12.811,0-23.196,19.589-23.196,43.754c0,24.165,10.385,43.754,23.196,43.754
					h25.316v-87.508H487.3z"/>
				<g>
					<ellipse style="fill:#241933;" cx="512.616" cy="379.39" rx="23.196" ry="43.754"/>
					<ellipse style="fill:#342447;" cx="514.71" cy="379.39" rx="14.003" ry="26.414"/>
					<ellipse style="fill:#47315D;" cx="514.71" cy="379.39" rx="6.594" ry="12.439"/>
				</g>
			</g>
			<g>
				<path style="fill:#EF701B;" d="M470.602,337.97h-96.003l37.47,77.244l48.862-5.252c7.659-0.823,13.328-7.506,12.892-15.196
					L470.602,337.97z"/>
				<path style="fill:#241933;" d="M396.976,337.97h-52.71c6.235,11.916,17.254,38.977,13.099,75.679l54.704,1.565
					c1.903-7.501,2.97-15.901,2.97-24.772C415.039,367.04,407.618,346.928,396.976,337.97z"/>
				<g>
					<polygon style="fill:#BF5208;" points="423.026,386.537 423.528,398.679 432.681,398.036 433.335,386.537 					"/>
					<polygon style="fill:#BF5208;" points="421.613,360.431 423.026,373.741 432.681,373.741 433.335,359.591 					"/>
					<polygon style="fill:#BF5208;" points="412.211,347.402 413.907,353.846 467.225,352.976 467.225,347.052 					"/>
					<path style="fill:#FFBE3D;" d="M451.945,387.796c0,4.643-2.305,8.406-5.149,8.406c-2.844,0-5.149-3.764-5.149-8.406
						c0-4.643,2.305-8.406,5.149-8.406C449.64,379.39,451.945,383.154,451.945,387.796z"/>
				</g>
			</g>
		</g>
		<g>
			<g>
				<polygon style="fill:#47315D;" points="413.37,68.097 414.238,342.541 213.74,344.098 202.4,78.126 				"/>
				<polygon style="fill:#583D71;" points="215.924,93.817 225.667,335.398 400.037,331.147 400.037,85.411 				"/>
				<path style="fill:#FDA635;" d="M378.179,83.288l21.772-1.214c0.992-0.055,1.807,0.856,1.748,1.954l-0.355,6.606
					c-0.052,0.976-0.782,1.737-1.664,1.737h-20.791c-0.839,0-1.547-0.69-1.654-1.612l-0.625-5.393
					C376.486,84.3,377.209,83.342,378.179,83.288z M212.382,90.427l0.485,4.072c0.219,1.838,1.769,3.204,3.578,3.152l18.866-0.541
					c1.795-0.051,3.261-1.483,3.397-3.315l0.261-3.53c0.154-2.082-1.455-3.859-3.495-3.859h-19.612
					C213.757,86.404,212.127,88.289,212.382,90.427z"/>
			</g>
			<g>
				<polygon style="fill:#342447;" points="413.37,68.097 670.784,182.794 668.285,338.496 414.238,342.541 				"/>
				<polygon style="fill:#241933;" points="432.331,97.612 431.42,326.077 658.945,326.832 654.906,190.92 				"/>
				<path style="fill:#342447;" d="M504.155,326.318l-3.938-0.013V126.071l3.938,1.651V326.318z M518.487,133.731l-3.938-1.651
					v194.273l3.938,0.013V133.731z M532.819,139.739l-3.938-1.651V326.4l3.938,0.013V139.739z M489.823,121.714l-3.938-1.651
					v206.194l3.938,0.013V121.714z M547.151,145.747l-3.938-1.651v182.351l3.938,0.013V145.747z M461.159,109.697l-3.938-1.651
					v218.116l3.938,0.013V109.697z M475.491,115.706l-3.938-1.651V326.21l3.938,0.013V115.706z M442.888,326.115l3.938,0.013
					V103.689l-3.938-1.651V326.115z M633.144,181.797l-3.938-1.651v146.587l3.938,0.013V181.797z M618.812,175.789l-3.938-1.651
					v152.547l3.938,0.013V175.789z M647.477,187.805l-3.938-1.651V326.78l3.938,0.013V187.805z M604.48,169.781l-3.938-1.651
					v158.508l3.938,0.013V169.781z M575.816,157.764l-3.938-1.651v170.43l3.938,0.013V157.764z M561.484,151.756l-3.938-1.651
					v176.39l3.938,0.013V151.756z M590.148,163.772l-3.938-1.651V326.59l3.938,0.013V163.772z"/>
				<path style="fill:#EF701B;" d="M434.055,95.228l15.652,5.515c0.665,0.234,1.101,0.803,1.101,1.437v3.443
					c0,1.086-1.233,1.834-2.379,1.442l-15.652-5.349c-0.674-0.23-1.118-0.803-1.118-1.442v-3.609
					C431.66,95.572,432.907,94.824,434.055,95.228z M644.957,186.506v1.927c0,0.417,0.261,0.79,0.653,0.933l9.202,3.351
					c0.604,0.22,1.256-0.184,1.327-0.823l0.22-1.98c0.051-0.46-0.222-0.894-0.659-1.047l-9.422-3.298
					C645.633,185.343,644.957,185.822,644.957,186.506z M650.297,326.071l0.127,1.347c0.049,0.523,0.488,0.922,1.014,0.922h8.843
					c0.562,0,1.018-0.456,1.018-1.018v-1.347c0-0.562-0.456-1.018-1.018-1.018h-8.97C650.71,324.957,650.24,325.474,650.297,326.071
					z M426.9,323.793v3.608c0,0.811,0.657,1.468,1.468,1.468h12.897c0.781,0,1.425-0.611,1.466-1.391l0.154-2.927
					c0.043-0.81-0.58-1.501-1.39-1.544l-13.051-0.68C427.605,322.283,426.9,322.952,426.9,323.793z"/>
			</g>
		</g>
		<g>
			<g>
				<path style="fill:#241933;" d="M109.204,230.311c1.617,13.187,1.37,27.506-0.113,42.575c-0.313,3.182-2.868,5.694-6.06,5.878
					c-5.134,0.296-10.644,0.062-15.423-0.544c-2.91-0.369-5.165-2.707-5.54-5.616c-1.911-14.828-3.092-28.913-2.818-42.743
					c0.07-3.543,2.975-6.352,6.518-6.356c5.898-0.007,12.327,0.394,17.903,1.166C106.582,225.074,108.847,227.393,109.204,230.311z"
					/>
				<path style="fill:#241933;" d="M107.057,209.195c-0.06-1.391,0.429-2.717,1.378-3.736s2.238-1.6,3.63-1.638l4.186-0.114
					c0.412-0.91,1.323-1.545,2.387-1.545h7.034c1.449,0,2.624,1.175,2.624,2.624v1.862c0,1.449-1.175,2.624-2.624,2.624h-7.034
					c-0.915,0-1.718-0.469-2.188-1.179l-4.266,0.116c-0.279,0.008-0.457,0.155-0.538,0.243c-0.082,0.087-0.216,0.275-0.204,0.554
					l-8.632,64.084l11.266,4.961v-0.07c0-2.205,1.788-3.993,3.993-3.993h6.235c2.205,0,3.993,1.788,3.993,3.993v6.235
					c0,2.205-1.788,3.993-3.993,3.993h-6.235c-2.205,0-3.993-1.788-3.993-3.993v-1.368l-15.534-6.84L107.057,209.195z"/>
			</g>
			<path style="fill:#241933;" d="M190.878,347.051c0,0-0.001,0-0.001,0h-29.498c-14.928,0-27.029,22.826-27.029,50.984
				c0,28.158,12.102,50.985,27.029,50.985h29.499l0,0l0,0c14.928,0,27.03-22.827,27.03-50.985
				C217.907,369.878,205.806,347.051,190.878,347.051z"/>
			<rect x="111.513" y="416.53" style="fill:#342447;" width="220.295" height="19.332"/>
			<g>
				<path style="fill:#241933;" d="M340.55,347.052c-14.928,0-27.029,22.826-27.029,50.984c0,28.158,12.102,50.985,27.029,50.985
					h29.499V347.052H340.55z"/>
				<g>
					<ellipse style="fill:#241933;" cx="370.049" cy="398.036" rx="27.029" ry="50.985"/>
					<ellipse style="fill:#342447;" cx="372.49" cy="398.036" rx="16.318" ry="30.779"/>
					<ellipse style="fill:#47315D;" cx="372.49" cy="398.036" rx="7.684" ry="14.494"/>
				</g>
			</g>
			<g>
				<path style="fill:#FDA635;" d="M220.287,108.046c-34.684,1.077-66.727,33.173-83.745,68.964
					c-31.926,67.144-25.959,170.688-21.305,208.156c0.867,6.98,5.384,12.092,10.681,12.092h164.865l89.431-292.263L220.287,108.046z
					"/>
				<g>
					<path style="fill:#EF701B;" d="M314.501,106.248l-1.127,0.022c-3.465,6.887-8.762,16.068-16.04,25.093
						c-12.71,15.759-34.134,34.124-64.949,34.122c-1.238,0-2.496-0.03-3.764-0.091c-14.545-0.696-23.279-4.694-25.958-11.883
						c-4.801-12.879,10.553-33.371,21.252-45.534l-1.427,0.027c-10.824,12.362-25.701,32.603-20.762,45.856
						c2.833,7.599,11.865,11.815,26.848,12.533c1.29,0.062,2.561,0.092,3.819,0.092c31.211,0,52.889-18.576,65.739-34.517
						C305.616,122.681,311.018,113.233,314.501,106.248z"/>
					<path style="fill:#EF701B;" d="M134.65,181.146h222.261l0.612-2h-221.97C135.248,179.809,134.947,180.476,134.65,181.146z"/>
				</g>
			</g>
			<path style="fill:#EF701B;" d="M356.172,327.787c0,0,21.449-0.956,35.599,0.467c1.937-45.776,3.863-108.199-1.298-185.622
				c-0.551-8.271-5.176-38.134-11.381-37.607c-25.716,2.184-60.217,40.853-71.823,71.985
				c-30.173,80.934-16.487,220.247-16.487,220.247l43.379-0.654C330.22,332.271,356.172,327.787,356.172,327.787z"/>
			<path style="fill:#BF5208;" d="M305.785,181.146h86.751c-0.027-0.667-0.053-1.331-0.081-2h-85.956
				C306.26,179.811,306.018,180.473,305.785,181.146z"/>
			<polygon style="fill:#241933;" points="137.542,350.054 147.316,382.425 241.669,382.425 253.97,350.054 			"/>
			<path style="fill:#FDA635;" d="M114.88,301.46l-4.395,2.852c-5.539,3.594-8.896,9.837-8.896,16.546v20.947
				c0,6.242,2.908,12.111,7.83,15.802l4.737,3.552c2.281,1.71,5.035,2.633,7.864,2.633h160.488l3.095-2.501
				c6.439-5.205,10.196-13.137,10.196-21.531v-35.275l-14.362-7.335L114.88,301.46z"/>
			<path style="fill:#FFF5DF;" d="M164.289,299.744l2.792,6.242c0.554,1.238,1.784,2.036,3.141,2.036h42.526
				c1.325,0,2.533-0.761,3.104-1.957l2.604-5.449c1.08-2.261-0.542-4.882-3.048-4.923l-47.922-0.793
				C164.969,294.857,163.261,297.445,164.289,299.744z"/>
			<g>
				<path style="fill:#47315D;" d="M227.569,307.104l-3.805,4.947c-1.082,1.407-2.745,2.247-4.521,2.282l-49.605,0.982
					c-1.63,0.032-3.199-0.617-4.33-1.792l-5.77-5.995c-1.119-1.163-2.67-1.812-4.284-1.792l-19.996,0.238
					c-3.532,0.042-6.198,3.179-5.724,6.68c1.216,8.973,3.819,17.301,8.427,24.698c4.591,7.37,12.76,11.745,21.443,11.745h67.429
					c7.477,0,14.62-3.255,19.415-8.992c6.966-8.334,11.226-17.955,13.192-28.666c0.662-3.608-2.165-6.918-5.833-6.874l-21.474,0.256
					C230.344,304.843,228.661,305.684,227.569,307.104z"/>
				<path style="fill:#241933;" d="M261.154,306.495c-1.539-2.865-4.448-4.54-7.576-4.505l-21.43,0.255
					c-2.608,0.031-5.059,1.256-6.649,3.323l-3.779,4.913c-0.609,0.792-1.53,1.257-2.529,1.277l-49.606,0.982
					c-0.921-0.003-1.792-0.348-2.423-1.003l-5.77-5.995c-1.606-1.668-3.842-2.572-6.17-2.582l-19.809,0.236
					c-1.221,0.015-2.447,0.221-3.554,0.736c-3.535,1.646-5.365,5.284-4.878,8.867c1.351,9.975,4.228,18.385,8.793,25.714
					c4.98,7.993,14.034,12.959,23.63,12.959h67.429c8.327,0,16.124-3.614,21.392-9.916c6.993-8.367,11.607-18.347,13.715-29.666
					C262.295,310.194,262.068,308.195,261.154,306.495z M244.274,338.454c-4.286,5.127-10.642,8.068-17.439,8.068h-67.429
					c-7.831,0-15.21-4.035-19.257-10.53c-0.032-0.051-0.063-0.102-0.095-0.153c-1.447-2.343,0.285-5.368,3.039-5.368h100.17
					c2.92,0,4.592,3.338,2.84,5.674C245.514,336.929,244.905,337.699,244.274,338.454z M256.881,311.126
					c-0.638,3.432-1.527,6.728-2.659,9.879c-1.267,3.527-4.682,5.826-8.431,5.826H141.954c-3.913,0-7.341-2.642-8.309-6.433
					c-0.641-2.511-1.152-5.145-1.534-7.916c-0.113-0.82-0.001-1.689,0.444-2.388c0.62-0.975,1.619-1.53,2.735-1.544l19.996-0.238
					l0,0c0.915,0,1.79,0.372,2.425,1.032l5.742,5.965c1.623,1.687,3.882,2.648,6.237,2.581l49.605-0.982
					c2.571-0.05,4.944-1.249,6.511-3.287l3.805-4.947h0c0.615-0.8,1.546-1.265,2.555-1.278l21.474-0.256
					c1.244,0.024,2.363,0.633,2.971,1.79C256.962,309.597,257.018,310.386,256.881,311.126z"/>
			</g>
			<path style="fill:#EF701B;" d="M321.16,400.5c0,0-11.574-67.949,30.89-74.852c16.154-2.626,39.722,2.607,39.722,2.607
				l-9.714,17.088c0,0-23.436-10.722-35.679,10.559c-6.922,12.03-6.02,45.449-6.02,45.449L321.16,400.5z"/>
			<path style="fill:#342447;" d="M342.083,313.664l1.602,9.24c0.345,1.989,2.155,3.384,4.167,3.21l3.231-0.28
				c1.77-0.153,3.21-1.486,3.501-3.238l1.457-8.788c0.386-2.327-1.372-4.458-3.73-4.523l-6.289-0.172
				C343.566,309.046,341.664,311.244,342.083,313.664z"/>
			<path style="fill:none;stroke:#FDA635;stroke-miterlimit:10;" d="M364.096,270.348l0.914,28.038
				c0.099,3.024,1.738,5.399,3.726,5.399h10.409c1.977,0,3.611-2.349,3.725-5.354l1.047-27.695c0.122-3.22-1.539-5.948-3.657-6.006
				l-12.37-0.342C365.73,264.327,363.989,267.064,364.096,270.348z"/>
			<g>
				<path style="fill:#FDA635;" d="M309.586,341.984v3.456c0,1.083,0.878,1.961,1.961,1.961h14.128c1.074,0,1.948-0.863,1.961-1.937
					l0.044-3.456c0.014-1.093-0.868-1.986-1.961-1.986h-14.172C310.464,340.023,309.586,340.901,309.586,341.984z"/>
				<path style="fill:#FFE08A;" d="M312.035,342.805v1.619c0,0.507,0.411,0.919,0.919,0.919h6.617c0.503,0,0.912-0.404,0.919-0.907
					l0.02-1.619c0.007-0.512-0.407-0.93-0.919-0.93h-6.637C312.446,341.887,312.035,342.298,312.035,342.805z"/>
			</g>
			<path style="fill:#EF701B;" d="M336.319,375.169l-48.615,0.197c-0.006,0.142-0.018,3.367-0.018,3.511v51.036h44.895
				c4.519,0,8.183-4.425,8.183-9.884l4.195-34.991C344.959,379.362,341.01,374.852,336.319,375.169z"/>
			<g>
				<g>
					<path style="fill:#CBE3F8;" d="M311.249,204.482c-7.14,19.811-11.405,67.37-10.013,94.837c0.152,3.005,1.964,5.342,4.162,5.342
						l9.684,0c1.169,0,2.283-0.672,3.073-1.852l35.14-61.242c0.705-1.054,1.096-2.432,1.096-3.862v-31.565
						c0-3.196-1.912-5.77-4.244-5.713l-35.225,0.86C313.357,201.324,311.942,202.558,311.249,204.482z"/>
					<path style="fill:#342447;" d="M315.081,306.855h-9.684c-3.408,0-6.14-3.193-6.354-7.425
						c-1.387-27.393,2.74-75.161,10.141-95.693c1.011-2.805,3.188-4.585,5.684-4.645l35.225-0.86c1.487-0.038,2.93,0.56,4.077,1.679
						c1.535,1.498,2.415,3.768,2.415,6.229v31.565c0,1.834-0.504,3.611-1.422,5.014l-35.106,61.182
						c-0.025,0.044-0.051,0.087-0.079,0.129C318.777,305.826,316.992,306.855,315.081,306.855z M350.222,202.62
						c-0.007,0-0.014,0-0.021,0.001l-35.225,0.86c-0.623,0.015-1.291,0.717-1.661,1.745c0,0,0,0.001,0,0.001
						c-7.114,19.736-11.225,67.551-9.886,93.982c0.097,1.921,1.116,3.258,1.97,3.258h9.684c0.4,0,0.85-0.307,1.211-0.823
						l35.098-61.169c0.025-0.043,0.051-0.086,0.08-0.128c0.461-0.689,0.726-1.652,0.726-2.641v-31.565
						c0-1.247-0.419-2.43-1.092-3.087C350.81,202.766,350.514,202.62,350.222,202.62z M311.249,204.482h0.011H311.249z"/>
					<path style="fill:#342447;" d="M301.039,281.741c-0.127,6.368-0.069,12.34,0.197,17.578c0.152,3.005,1.964,5.341,4.162,5.341
						h9.684c1.169,0,2.283-0.672,3.073-1.852l12.089-21.068H301.039z"/>
				</g>
				<g>
					<path style="fill:#241933;" d="M319.995,230.311c-1.616,13.187-1.37,27.506,0.113,42.575c0.313,3.182,2.868,5.694,6.06,5.878
						c5.134,0.296,10.643,0.062,15.423-0.544c2.91-0.369,5.165-2.707,5.54-5.616c1.911-14.828,3.092-28.913,2.817-42.743
						c-0.07-3.543-2.974-6.352-6.518-6.356c-5.898-0.007-12.327,0.394-17.903,1.166
						C322.617,225.074,320.353,227.393,319.995,230.311z"/>
					<path style="fill:#241933;" d="M332.696,209.195c0.06-1.391-0.429-2.717-1.378-3.736s-2.238-1.6-3.63-1.638l-4.186-0.114
						c-0.412-0.91-1.323-1.545-2.387-1.545h-7.034c-1.449,0-2.624,1.175-2.624,2.624v1.862c0,1.449,1.175,2.624,2.624,2.624h7.034
						c0.915,0,1.718-0.469,2.188-1.179l4.266,0.116c0.279,0.008,0.457,0.155,0.538,0.243c0.081,0.087,0.216,0.275,0.204,0.554
						l-2.762,64.084l-11.266,4.961v-0.07c0-2.205-1.788-3.993-3.993-3.993h-6.235c-2.205,0-3.993,1.788-3.993,3.993v6.235
						c0,2.205,1.788,3.993,3.993,3.993h6.235c2.205,0,3.993-1.788,3.993-3.993v-1.368l15.534-6.84L332.696,209.195z"/>
				</g>
			</g>
			<path style="fill:#EF701B;" d="M243.822,379.844l-1.998-0.909l23.693-52.102l8.647-70.067l2.179,0.269l-8.689,70.401
				L243.822,379.844z M141.177,378.936l-23.642-51.99l6.374-69.337l-2.185-0.201l-6.428,69.917l23.883,52.52L141.177,378.936z"/>
			<path style="fill:#47315D;" d="M265.365,325.382l-11.525,22.529c-1.384,2.706,0.581,5.918,3.62,5.918h0
				c7.029,0,13.564-3.615,17.299-9.569l8.761-13.967c1.946-3.102-0.286-7.133-3.947-7.13l-10.746,0.008
				C267.358,323.228,266.034,324.073,265.365,325.382z"/>
			<path style="fill:#47315D;" d="M124.096,325.382l11.525,22.529c1.384,2.706-0.581,5.918-3.62,5.918l0,0
				c-7.029,0-13.564-3.615-17.299-9.569l-8.761-13.967c-1.946-3.102,0.285-7.133,3.947-7.13l10.746,0.008
				C122.103,323.228,123.427,324.073,124.096,325.382z"/>
			<path style="fill:#FDA635;" d="M287.86,429.913H108.522c-4.384,0-7.938-3.554-7.938-7.938v-37.576
				c0-4.384,3.554-7.938,7.938-7.938H287.86c4.384,0,7.938,3.554,7.938,7.938v37.576
				C295.798,426.359,292.244,429.913,287.86,429.913z"/>
			<path style="fill:#241933;" d="M146.255,433.453h91.423l-4.718-7.58c-2.544-4.088-4.726-4.67-9.405-4.591l-63.046-0.832
				c-5.197,0.087-9.89,3.255-12.085,8.159L146.255,433.453z"/>
			<path style="fill:#EF701B;" d="M335.726,374.266H114.047l0.159,2.195h16.136l12.691,27.223c2.195,4.707,6.969,7.762,12.162,7.783
				l74.838,0.296c0.019,0,0.037,0,0.056,0c4.72,0,9.149-2.513,11.571-6.569l17.151-28.733h76.914V374.266z M239.776,404.069
				c-2.027,3.395-5.735,5.499-9.686,5.499c-0.016,0-0.031,0-0.047,0l-74.838-0.296c-4.348-0.017-8.344-2.575-10.182-6.516
				l-12.259-26.295h123.491L239.776,404.069z"/>
			<path style="fill:#241933;" d="M146.255,386.736h91.423l-4.718,7.58c-2.544,4.088-6.933,6.523-11.612,6.445l-60.839-1.022
				c-5.197-0.087-9.89-3.255-12.085-8.159L146.255,386.736z"/>
			<g>
				<path style="fill:#E1F1FF;" d="M161.447,376.66l1.002,10.358c0.223,2.308,2.135,4.085,4.453,4.139l41.918,0.981
					c2.371,0.055,4.393-1.708,4.66-4.065l1.284-11.339c0.308-2.717-1.818-5.098-4.553-5.098h-44.205
					C163.302,371.637,161.186,373.968,161.447,376.66z"/>
				<path style="fill:#241933;" d="M208.934,393.289c-0.047,0-0.094,0-0.14-0.001l-41.918-0.98c-2.897-0.07-5.292-2.296-5.57-5.179
					l-1.003-10.357c-0.156-1.605,0.377-3.211,1.461-4.404c1.084-1.195,2.631-1.879,4.243-1.879h44.205
					c1.631,0,3.189,0.697,4.275,1.914c1.086,1.216,1.603,2.842,1.42,4.461l-1.284,11.339
					C214.292,391.125,211.858,393.289,208.934,393.289z M162.59,376.549l1.003,10.357c0.167,1.728,1.602,3.061,3.337,3.102
					l41.918,0.98c1.782,0.064,3.29-1.266,3.491-3.044l1.284-11.339c0.11-0.97-0.2-1.943-0.85-2.672
					c-0.651-0.729-1.584-1.146-2.561-1.146h-44.205c-0.98,0-1.883,0.4-2.542,1.125C162.807,374.637,162.496,375.575,162.59,376.549
					L162.59,376.549z"/>
			</g>
			<g>
				<path style="fill:#CBE3F8;" d="M114.528,271.487l7.547,5.572c1.276,0.942,2.821,1.451,4.408,1.451h139.414
					c1.582,0,3.123-0.506,4.397-1.443l10.041-7.386c1.808-1.33,2.92-3.403,3.012-5.646c0.798-19.443,4.852-41.608,7.325-53.635
					c0.947-4.603-2.571-8.909-7.271-8.909H130.163c-3.039,0-5.794,1.843-6.899,4.674c-7.073,18.12-10.475,38.724-11.736,58.857
					C111.369,267.549,112.492,269.984,114.528,271.487z"/>
				<path style="fill:#A1C5EB;" d="M112.6,252.543c-0.455,4.163-0.812,8.332-1.072,12.481c-0.158,2.525,0.964,4.961,3,6.464
					l7.547,5.572c1.276,0.943,2.821,1.451,4.408,1.451h139.414c1.582,0,3.123-0.506,4.398-1.443l10.041-7.386
					c1.808-1.33,2.92-3.403,3.012-5.646c0.154-3.76,0.433-7.622,0.796-11.492H112.6z"/>
				<g>
					<polygon style="fill:#E1F1FF;" points="208.637,201.492 188.515,201.492 157.788,278.51 177.91,278.51 					"/>
					<polygon style="fill:#E1F1FF;" points="244.024,201.492 214.221,201.492 183.494,278.51 213.298,278.51 					"/>
					<polygon style="fill:#E1F1FF;" points="143.624,278.51 153.685,278.51 184.412,201.492 174.351,201.492 					"/>
				</g>
				<path style="fill:#241933;" d="M290.859,202.837c-1.834-2.249-4.552-3.54-7.457-3.54H130.163c-3.932,0-7.527,2.44-8.944,6.071
					c-6.444,16.511-10.442,36.536-11.882,59.518c-0.207,3.29,1.246,6.418,3.887,8.368l7.548,5.572
					c1.643,1.212,3.671,1.88,5.711,1.88h139.413c2.065,0,4.035-0.647,5.698-1.87l10.041-7.385c2.362-1.738,3.785-4.408,3.905-7.324
					c0.797-19.424,4.904-41.721,7.282-53.283C293.406,208.002,292.69,205.084,290.859,202.837z M288.522,209.958
					c-2.404,11.692-6.559,34.253-7.369,53.987c-0.064,1.578-0.837,3.024-2.119,3.967l-0.512,0.377l-162.34,1.69l-0.351-0.259
					c0,0,0,0,0,0c-1.436-1.059-2.225-2.764-2.112-4.56c1.411-22.529,5.311-42.109,11.59-58.197c0.765-1.96,2.716-3.277,4.854-3.277
					h153.238c1.58,0,3.058,0.702,4.054,1.924C288.451,206.831,288.84,208.415,288.522,209.958z"/>
				<g>
					<path style="fill:#241933;" d="M123.199,198.261c-1.425,0.009-2.656,1.01-2.941,2.406c-0.891,4.377-2,13.39,3.49,15.147
						c7.307,2.338,153.54-0.062,153.54-0.062s14.523,1.065,18.418-14.55c0.48-1.923-0.971-3.792-2.953-3.779L123.199,198.261z"/>
					<path style="fill:#E1F1FF;" d="M280.475,207.13h-10.443c-1.372,0-2.484-1.112-2.484-2.484l0,0c0-1.372,1.112-2.484,2.484-2.484
						h10.443c1.372,0,2.484,1.112,2.484,2.484l0,0C282.959,206.018,281.847,207.13,280.475,207.13z"/>
					<path style="fill:#E1F1FF;" d="M133.519,207.13h-10.443c-1.372,0-2.484-1.112-2.484-2.484l0,0c0-1.372,1.112-2.484,2.484-2.484
						h10.443c1.372,0,2.484,1.112,2.484,2.484l0,0C136.003,206.018,134.891,207.13,133.519,207.13z"/>
				</g>
				<g>
					<path style="fill:#241933;" d="M188.766,272.082l-8.823-11.622c-0.12-0.865-0.863-1.597-1.849-1.546l-36.495,1.876
						c-0.617,0.032-1.173,0.38-1.471,0.921c-0.001,0.002-0.001,0.005-0.003,0.007l-19.359,0.61
						c-0.453,0.014-0.862,0.171-1.082,0.415c-0.482,0.536,0.151,1.193,1.149,1.193h19.727c0.302,0.252,0.685,0.419,1.13,0.419
						h35.025l6.577,9.446c0.273,0.393,0.722,0.627,1.2,0.627h3.108C188.811,274.429,189.497,273.045,188.766,272.082z"/>
					<path style="fill:#241933;" d="M265.622,270.071l-8.823-11.621c-0.12-0.865-0.863-1.597-1.849-1.546l-36.495,1.876
						c-0.617,0.032-1.173,0.38-1.471,0.921c-0.001,0.002-0.002,0.005-0.003,0.007l-19.359,0.611
						c-0.453,0.014-0.862,0.171-1.081,0.415c-0.482,0.536,0.151,1.193,1.149,1.193h19.727c0.302,0.252,0.685,0.419,1.13,0.419
						h35.025l6.577,9.446c0.273,0.393,0.722,0.627,1.2,0.627h3.108C265.666,272.418,266.353,271.034,265.622,270.071z"/>
				</g>
			</g>
			<g>
				<g>
					<path style="fill:#A1C5EB;" d="M109.07,401.58h16.559c2.125,0,3.848-1.723,3.848-3.848v-11.08c0-2.125-1.723-3.848-3.848-3.848
						H109.07c-2.125,0-3.848,1.723-3.848,3.848v11.08C105.222,399.857,106.945,401.58,109.07,401.58z"/>
					<path style="fill:#E1F1FF;" d="M125.63,382.803h-16.514c-0.43,1.755-0.534,3.61-0.256,5.289
						c0.28,1.688,0.938,3.333,1.961,4.791c2.58,3.674,7.412,6.073,12.368,6.139c2.188,0.029,4.398-0.4,6.289-1.35v-11.02
						C129.478,384.526,127.755,382.803,125.63,382.803z"/>
				</g>
				<g>
					<path style="fill:#A1C5EB;" d="M128.8,408.835v8.975c0,1.81-1.139,3.238-2.458,3.077c-7.747-0.943-14.131-0.883-19.76-6.426
						c-1.79-1.762-1.315-8.707,0.89-8.707h19.074C127.791,405.753,128.8,407.133,128.8,408.835z"/>
					<path style="fill:#E1F1FF;" d="M126.546,405.753l-15.484,0c0.036,0.71,0.138,1.438,0.298,2.167
						c0.658,2.994,2.037,5.842,4.013,8.189c1.377,1.635,3.048,3.005,4.89,4.089c1.933,0.244,3.953,0.43,6.079,0.689
						c1.319,0.16,2.458-1.267,2.458-3.077v-8.975C128.8,407.133,127.791,405.753,126.546,405.753z"/>
				</g>
			</g>
			<g>
				<g>
					<path style="fill:#A1C5EB;" d="M281.485,401.58h-16.559c-2.125,0-3.848-1.723-3.848-3.848v-11.08
						c0-2.125,1.723-3.848,3.848-3.848h16.559c2.125,0,3.848,1.723,3.848,3.848v11.08
						C285.334,399.857,283.611,401.58,281.485,401.58z"/>
					<path style="fill:#E1F1FF;" d="M264.926,382.803h16.514c0.43,1.755,0.534,3.61,0.256,5.289
						c-0.28,1.688-0.937,3.333-1.961,4.791c-2.58,3.674-7.412,6.073-12.368,6.139c-2.188,0.029-4.398-0.4-6.289-1.35v-11.02
						C261.078,384.526,262.801,382.803,264.926,382.803z"/>
				</g>
				<g>
					<path style="fill:#A1C5EB;" d="M261.755,408.835v8.975c0,1.81,1.139,3.238,2.458,3.077c7.747-0.943,14.13-0.883,19.76-6.426
						c1.79-1.762,1.315-8.707-0.89-8.707h-19.074C262.764,405.753,261.755,407.133,261.755,408.835z"/>
					<path style="fill:#E1F1FF;" d="M264.009,405.753l15.484,0c-0.036,0.71-0.138,1.438-0.298,2.167
						c-0.658,2.994-2.037,5.842-4.013,8.189c-1.377,1.635-3.048,3.005-4.89,4.089c-1.933,0.244-3.953,0.43-6.079,0.689
						c-1.319,0.16-2.458-1.267-2.458-3.077v-8.975C261.755,407.133,262.764,405.753,264.009,405.753z"/>
				</g>
			</g>
		</g>
	</g>
</g>
</svg>
