<svg width="9" height="13" viewBox="0 0 9 13" fill="none" xmlns="http://www.w3.org/2000/svg">
<g clip-path="url(#clip0_16_1740)">
<path d="M0 0.397816V1.58204C0 1.9002 0.151936 2.19625 0.411122 2.38626L5.55462 6.19081C5.76465 6.34547 5.76465 6.65478 5.55462 6.80944L0.411122 10.614C0.151936 10.804 0 11.1001 0 11.4182V12.6024C0 12.9294 0.379841 13.115 0.643496 12.9206L8.80785 6.88014C9.06256 6.69013 9.06256 6.31012 8.80785 6.12011L0.643496 0.0796648C0.379841 -0.114761 0 0.0708273 0 0.397816Z" fill="#CE6638"/>
<path d="M0.643496 4.75007L2.49355 6.11989C2.74826 6.3099 2.74826 6.68991 2.49355 6.87992L0.643496 8.24532C0.379841 8.43974 0 8.25415 0 7.92717V5.06823C0 4.74124 0.375372 4.55565 0.643496 4.75007Z" fill="#CE6638"/>
</g>
<defs>
<clipPath id="clip0_16_1740">
<rect width="9" height="13" fill="white"/>
</clipPath>
</defs>
</svg>
