<svg xmlns="http://www.w3.org/2000/svg" xmlns:xlink="http://www.w3.org/1999/xlink" viewBox="0 0 25 26"><defs><style>.cls-1{fill:none;}.cls-2{clip-path:url(#clip-path);}.cls-3{fill:#040404;}</style><clipPath id="clip-path" transform="translate(0)"><rect id="SVGID" class="cls-1" width="25" height="26"/></clipPath></defs><g id="Layer_2" data-name="Layer 2"><g id="Layer_1-2" data-name="Layer 1"><g class="cls-2"><g id="Layer_1-3" data-name="Layer 1"><g id="Group_37343" data-name="Group 37343"><path id="Vector" class="cls-3" d="M12.53,0A12.72,12.72,0,0,1,25,12.9,12.76,12.76,0,0,1,12.63,26,12.75,12.75,0,0,1,0,13.12,12.74,12.74,0,0,1,12.53,0ZM.69,13.05A12.07,12.07,0,0,0,12.25,25.32a12,12,0,0,0,12.09-12A12.11,12.11,0,0,0,12.74.67,12.07,12.07,0,0,0,.69,13.05Z" transform="translate(0)"/></g></g></g><g id="Group"><path id="Vector_2" data-name="Vector 2" class="cls-3" d="M7,19.9c.92-.54,1.82-1,2.7-1.6A2.13,2.13,0,0,1,11,17.94c1.23,0,2.46,0,3.69,0a1.56,1.56,0,0,0,1.6-1.55c0-.16.06-.28.24-.29s.24.13.24.31a2,2,0,0,1-2,2H10.7a.74.74,0,0,0-.41.11L7.1,20.43c-.3.18-.42.12-.49-.23-.1-.51-.2-1-.29-1.53,0-.16-.07-.24-.25-.24a2,2,0,0,1-2-2.11c0-1.68,0-3.35,0-5A2,2,0,0,1,6,9.2c.26,0,.52,0,.78,0H14.7a2,2,0,0,1,1.53.64c.12.12.22.26.08.42s-.29.06-.42-.08a1.56,1.56,0,0,0-1.16-.49c-2.84,0-5.69,0-8.53,0a1.67,1.67,0,0,0-1.69,1.75c0,1.61,0,3.22,0,4.84a1.56,1.56,0,0,0,1.64,1.68h.26c.18,0,.26.08.29.26.1.56.21,1.11.33,1.7Z" transform="translate(0)"/><path id="Vector_3" data-name="Vector 3" class="cls-3" d="M15.23,15.27c0-.54.08-1.09.11-1.63a.67.67,0,0,1,.08-.25l3.63-7.45a.69.69,0,0,1,1-.36l.44.23a.75.75,0,0,1,.33,1.08c-.86,1.76-1.73,3.53-2.59,5.3-.26.55-.54,1.09-.79,1.65A2.77,2.77,0,0,1,16.62,15c-.34.26-.65.56-1,.84-.09.08-.17.15-.3.09a.29.29,0,0,1-.13-.32c0-.1,0-.2,0-.3Zm.49-.18c.17-.15.31-.26.43-.38s.42-.25.39-.57a.16.16,0,0,1,.17-.14c.16,0,.19-.09.23-.19l3-6.16c.06-.11.12-.19,0-.33a.19.19,0,0,1,.12-.3c.25,0,.27-.24.35-.4a.23.23,0,0,0-.11-.35L19.87,6c-.18-.1-.29-.06-.39.13s-.18.34.14.51l.1,0c.12.08.22.19.13.35a.23.23,0,0,1-.35.09.64.64,0,0,1-.18-.1c-.16-.12-.25-.07-.34.11q-1.47,3-3,6.09c-.1.21-.08.31.13.39s.4.15.28.41-.32.12-.48,0-.16-.05-.17.1S15.74,14.75,15.72,15.09Z" transform="translate(0)"/><path id="Vector_4" data-name="Vector 4" class="cls-3" d="M12,7.4h4.31a2.2,2.2,0,0,1,1,.24A.26.26,0,0,1,17.5,8c-.08.16-.22.15-.36.08a1.73,1.73,0,0,0-.89-.19H7.82a1.61,1.61,0,0,0-1.24.49c-.11.12-.24.16-.36,0s-.08-.28,0-.39A2,2,0,0,1,7.69,7.4Z" transform="translate(0)"/><path id="Vector_5" data-name="Vector 5" class="cls-3" d="M13,14.14H11.67c-.16,0-.3,0-.3-.24s.13-.25.29-.25h2.68c.16,0,.28.06.28.24s-.12.25-.29.25Z" transform="translate(0)"/><path id="Vector_6" data-name="Vector 6" class="cls-3" d="M11.16,15.84h1.29c.16,0,.31,0,.31.23s-.14.26-.32.26H9.89c-.18,0-.33,0-.32-.26s.16-.23.33-.23Z" transform="translate(0)"/><path id="Vector_7" data-name="Vector 7" class="cls-3" d="M7.82,11.49H9.11c.17,0,.3,0,.3.23S9.28,12,9.1,12H6.57c-.17,0-.33,0-.33-.24s.16-.25.34-.25Z" transform="translate(0)"/><path id="Vector_8" data-name="Vector 8" class="cls-3" d="M7.58,15.84H8.66c.16,0,.28,0,.29.22s-.12.27-.28.27H6.5c-.16,0-.28-.06-.28-.25s.13-.24.3-.24Z" transform="translate(0)"/><path id="Vector_9" data-name="Vector 9" class="cls-3" d="M9.42,14.14h-1c-.17,0-.28-.07-.28-.24s.12-.25.28-.25h2.09c.15,0,.27.06.27.24s-.13.25-.3.25Z" transform="translate(0)"/><path id="Vector_10" data-name="Vector 10" class="cls-3" d="M18.42,14.41a2.15,2.15,0,0,1-.6,1.65c-.13.13-.27.26-.44.08s0-.3.09-.43A1.55,1.55,0,0,0,18,14.54c0-.19,0-.38,0-.57a.22.22,0,0,1,.23-.23.22.22,0,0,1,.23.24v.43Z" transform="translate(0)"/><path id="Vector_11" data-name="Vector 11" class="cls-3" d="M13.57,11.49h.77c.16,0,.28,0,.28.23s-.12.26-.29.26H12.76c-.16,0-.28-.06-.28-.24s.11-.26.29-.25Z" transform="translate(0)"/><path id="Vector_12" data-name="Vector 12" class="cls-3" d="M14,15.84h.36a.21.21,0,0,1,.23.23c0,.13-.06.24-.18.24-.28,0-.57,0-.85,0s-.18-.13-.16-.26a.2.2,0,0,1,.19-.21Z" transform="translate(0)"/><path id="Vector_13" data-name="Vector 13" class="cls-3" d="M6.82,14.14H6.46a.21.21,0,0,1-.22-.2.21.21,0,0,1,.19-.27,6.94,6.94,0,0,1,.79,0,.21.21,0,0,1,.19.25.2.2,0,0,1-.23.22Z" transform="translate(0)"/><path id="Vector_14" data-name="Vector 14" class="cls-3" d="M10.86,11.49h.31a.22.22,0,0,1,.25.24.21.21,0,0,1-.22.25h-.69a.23.23,0,0,1-.22-.26.22.22,0,0,1,.24-.23Z" transform="translate(0)"/></g></g></g></svg>