<svg xmlns="http://www.w3.org/2000/svg" xmlns:xlink="http://www.w3.org/1999/xlink" viewBox="0 0 25 26"><defs><style>.cls-1{fill:none;}.cls-2{clip-path:url(#clip-path);}.cls-3{fill:#040404;}</style><clipPath id="clip-path" transform="translate(0)"><rect id="SVGID" class="cls-1" width="25" height="26"/></clipPath></defs><g id="Layer_2" data-name="Layer 2"><g id="Layer_1-2" data-name="Layer 1"><g class="cls-2"><g id="Layer_1-3" data-name="Layer 1"><g id="Group_37343" data-name="Group 37343"><path id="Vector" class="cls-3" d="M12.53,0A12.72,12.72,0,0,1,25,12.9,12.76,12.76,0,0,1,12.63,26,12.75,12.75,0,0,1,0,13.12,12.74,12.74,0,0,1,12.53,0ZM.69,13.05A12.07,12.07,0,0,0,12.25,25.32a12,12,0,0,0,12.09-12A12.11,12.11,0,0,0,12.74.67,12.07,12.07,0,0,0,.69,13.05Z" transform="translate(0)"/></g></g></g><g id="Group"><path id="Vector_2" data-name="Vector 2" class="cls-3" d="M9.51,11.69c.08-.26.16-.51.23-.75s.06-.21.27-.22l1.75-.08,2.54-.1h.22l-.18.69-1.92,7.26c-.05.21-.11.43-.14.65a1,1,0,0,0,0,.24.27.27,0,0,0,.36.2,1.36,1.36,0,0,0,.57-.38,7.51,7.51,0,0,0,1.19-1.62c.1-.17.19-.34.28-.51s.05-.06.11,0l.63.37s.07,0,0,.1a9.93,9.93,0,0,1-1.74,2.42,4,4,0,0,1-1.59,1,2.34,2.34,0,0,1-1.48,0,1.5,1.5,0,0,1-1-1.23A4.1,4.1,0,0,1,9.8,18l1.4-5.3a1.12,1.12,0,0,0,.05-.36.62.62,0,0,0-.57-.58,5,5,0,0,0-.95,0Z" transform="translate(0)"/><path id="Vector_3" data-name="Vector 3" class="cls-3" d="M15.33,6.71A1.73,1.73,0,1,1,13.6,5a1.73,1.73,0,0,1,1.73,1.75Z" transform="translate(0)"/></g></g></g></svg>