<svg xmlns="http://www.w3.org/2000/svg" xmlns:xlink="http://www.w3.org/1999/xlink" viewBox="0 0 25 26"><defs><style>.cls-1{fill:none;}.cls-2{clip-path:url(#clip-path);}.cls-3{fill:#040404;}.cls-4{fill:#010101;}</style><clipPath id="clip-path" transform="translate(0)"><rect id="SVGID" class="cls-1" width="25" height="26"/></clipPath></defs><g id="Layer_2" data-name="Layer 2"><g id="Layer_1-2" data-name="Layer 1"><g class="cls-2"><g id="Layer_1-3" data-name="Layer 1"><g id="Group_37343" data-name="Group 37343"><path id="Vector" class="cls-3" d="M12.53,0A12.72,12.72,0,0,1,25,12.9,12.76,12.76,0,0,1,12.63,26,12.75,12.75,0,0,1,0,13.12,12.74,12.74,0,0,1,12.53,0ZM.69,13.05A12.07,12.07,0,0,0,12.25,25.32a12,12,0,0,0,12.09-12A12.11,12.11,0,0,0,12.74.67,12.07,12.07,0,0,0,.69,13.05Z" transform="translate(0)"/></g></g></g><rect class="cls-4" x="5.56" y="12.43" width="13.88" height="1.13" rx="0.57"/></g></g></svg>