<svg width="65" height="65" viewBox="0 0 65 65" fill="none" xmlns="http://www.w3.org/2000/svg">
<g clip-path="url(#clip0_52_184)">
<path d="M33.2038 7C33.6265 7.29968 34.0903 7.55777 34.4633 7.90882C35.4804 8.86291 36.4689 9.84879 37.4462 10.8432C37.6265 11.0267 37.7944 11.3142 37.7907 11.5515C37.7869 11.7582 37.5606 12.1031 37.3866 12.1337C37.108 12.1838 36.7039 12.1178 36.505 11.938C35.6048 11.1233 34.758 10.2512 33.8926 9.39988C33.1864 8.70512 32.4855 8.69941 31.79 9.38276C28.7064 12.4248 25.6228 15.4681 22.5404 18.5114C22.4584 18.5921 22.3676 18.6679 22.3054 18.7609C22.247 18.8502 22.1612 19.0019 22.196 19.0508C22.2569 19.1352 22.3999 19.2037 22.5106 19.2049C23.4867 19.2233 24.4627 19.2281 25.4375 19.2318C26.1823 19.2343 26.9259 19.2281 27.6707 19.2306C28.5386 19.233 28.8345 19.518 28.7176 20.3608C28.3247 23.2121 27.9243 26.0621 27.4767 28.9047C27.3822 29.5065 27.4183 29.9799 27.8162 30.4716C28.3508 31.1322 28.8158 31.8465 29.2921 32.551C29.7509 33.2287 30.3713 33.5761 31.2032 33.5712C32.311 33.5651 33.4201 33.5797 34.528 33.57C35.2914 33.5638 35.8895 33.247 36.3222 32.6146C36.8942 31.778 37.5022 30.9646 38.0543 30.1157C38.196 29.8967 38.2681 29.5701 38.2333 29.3121C37.8205 26.3165 37.3741 23.3258 36.9514 20.3315C36.837 19.5217 37.1192 19.2318 37.9697 19.2306C39.6247 19.2269 41.2784 19.2343 42.9333 19.2233C43.1149 19.2233 43.2964 19.1327 43.4779 19.085C43.3934 18.9224 43.3437 18.7279 43.2206 18.6043C41.9225 17.3041 40.6107 16.0161 39.3051 14.7232C39.177 14.5972 39.0403 14.4712 38.9445 14.3232C38.7443 14.0125 38.7667 13.6933 39.0278 13.4303C39.2902 13.1661 39.6097 13.1477 39.9355 13.3275C40.0201 13.374 40.0984 13.4401 40.168 13.5085C41.5967 14.9115 43.0415 16.2986 44.4441 17.7261C45.399 18.6985 45.0732 20.1504 43.8298 20.5847C43.5438 20.685 43.2131 20.6898 42.9023 20.6923C41.4487 20.7033 39.9952 20.6972 38.4335 20.6972C38.7792 23.1374 39.1174 25.5239 39.4717 28.0228C39.6284 27.8479 39.7154 27.7647 39.7851 27.6693C40.3807 26.8486 40.9563 26.0131 41.5718 25.2071C42.1587 24.4377 43.0937 24.1906 43.9517 24.527C44.7748 24.8487 45.3343 25.6804 45.1988 26.5929C45.1341 27.0345 44.873 27.4736 44.6132 27.8552C43.4344 29.5848 42.2346 31.2997 41.0185 33.0036C40.7885 33.3265 40.73 33.6018 40.832 33.9883C42.0617 38.6462 43.6632 43.1609 46.1313 47.3405C47.7216 50.034 49.6402 52.4608 52.127 54.4289C52.4478 54.6833 52.7276 55.0466 52.8942 55.416C53.1926 56.0765 52.8395 56.704 52.1258 56.8838C51.8249 56.9596 51.5053 56.9914 51.1945 56.9927C42.4422 56.9988 33.6912 56.9976 24.9389 56.9963C24.8395 56.9963 24.74 57 24.6418 56.989C24.2091 56.9376 23.9094 56.6392 23.9069 56.2636C23.9044 55.8649 24.2203 55.5469 24.6828 55.5395C25.675 55.5236 26.6685 55.5334 27.6607 55.5322C27.8572 55.5322 28.0549 55.5322 28.2961 55.5322C28.3073 55.3658 28.3259 55.2264 28.3259 55.0869C28.321 50.4156 28.2737 45.7443 28.3247 41.0742C28.3496 38.8015 27.5836 36.8823 26.0717 35.1564C25.9958 35.3974 25.92 35.62 25.8566 35.8451C24.8444 39.4217 23.5799 42.9053 21.8615 46.2189C20.1568 49.5056 18.058 52.506 15.2094 54.9512C15.0365 55.0992 14.865 55.2496 14.5802 55.4967C14.8848 55.5126 15.0365 55.5273 15.187 55.5273C17.0571 55.531 18.9259 55.5322 20.7959 55.5346C20.9613 55.5346 21.1715 55.4833 21.2821 55.5628C21.5134 55.7291 21.7832 55.9358 21.8702 56.1829C21.9908 56.5254 21.7658 56.8165 21.4065 56.9315C21.2237 56.9902 21.0173 56.9963 20.8208 56.9976C18.9184 57.0024 17.016 57.0098 15.1136 56.9927C14.7058 56.989 14.2843 56.9388 13.8964 56.8214C13.1031 56.5804 12.7947 55.904 13.1453 55.1628C13.3157 54.8032 13.5519 54.4338 13.8541 54.1806C17.624 51.0162 20.0785 46.9724 21.9623 42.5395C23.1683 39.7005 24.1021 36.7735 24.8556 33.7889C24.9054 33.592 24.8345 33.3094 24.7151 33.1369C23.4419 31.2936 22.1363 29.4723 20.8631 27.629C19.9828 26.3544 20.5423 24.8144 21.9896 24.445C22.804 24.2371 23.6209 24.5319 24.1618 25.267C24.7238 26.0315 25.2572 26.8155 25.8056 27.5898C25.8976 27.7195 25.9996 27.8418 26.1798 28.0754C26.5379 25.5642 26.8786 23.1729 27.2318 20.6996C26.9557 20.6996 26.7804 20.6996 26.6051 20.6996C25.2821 20.6996 23.9579 20.6898 22.6349 20.7033C21.7931 20.7119 21.1341 20.4195 20.8071 19.6306C20.4826 18.8453 20.7425 18.1762 21.3343 17.5952C24.7064 14.284 28.0698 10.9643 31.4494 7.66052C31.7204 7.38897 32.086 7.2165 32.4093 7C32.6741 7 32.9389 7 33.2038 7ZM33.5843 55.5371C34.109 55.5371 34.569 55.5371 35.0291 55.5371C35.8199 55.5371 35.8671 55.4906 35.8671 54.7053C35.8671 49.9704 35.8721 45.2354 35.8659 40.5005C35.8634 38.6535 36.4055 36.9851 37.4761 35.4708C39.3536 32.814 41.2237 30.1512 43.0937 27.4883C43.2914 27.2082 43.5289 26.933 43.6321 26.6186C43.6943 26.429 43.601 26.0902 43.4518 25.9667C43.3374 25.8712 42.9756 25.9373 42.8115 26.0523C42.5927 26.2052 42.4521 26.4706 42.2917 26.6969C40.7089 28.9427 39.1298 31.1896 37.5507 33.4366C36.8221 34.4714 35.8224 35.0219 34.5392 35.0365C33.4152 35.05 32.2899 35.0463 31.1646 35.039C29.8404 35.0317 28.8245 34.4665 28.076 33.395C26.4459 31.0637 24.8059 28.7384 23.1696 26.4119C23.0664 26.2651 22.9793 26.0731 22.8339 25.9997C22.666 25.9153 22.4148 25.8725 22.2495 25.9361C22.1028 25.9923 21.9523 26.2101 21.9324 26.3715C21.915 26.5195 22.0505 26.6993 22.1512 26.8437C24.1245 29.6729 26.0829 32.5119 28.0872 35.3203C29.261 36.9643 29.813 38.7697 29.8106 40.7635C29.8056 45.4006 29.8093 50.0389 29.8106 54.676C29.8106 54.8386 29.7733 55.0184 29.8305 55.1591C29.8901 55.3022 30.0406 55.504 30.1599 55.5102C30.7941 55.5456 31.4319 55.5261 32.0947 55.5261V54.9243C32.0947 52.0119 32.0947 49.0995 32.0947 46.1858C32.0947 46.0073 32.0424 45.7785 32.132 45.6611C32.3048 45.4373 32.546 45.1559 32.7885 45.1254C33.0036 45.0984 33.3144 45.3345 33.4773 45.5363C33.5992 45.688 33.5768 45.9706 33.578 46.1944C33.5843 48.4561 33.5818 50.7177 33.5818 52.9794C33.5818 53.8075 33.5818 54.6368 33.5818 55.5358L33.5843 55.5371ZM50.9955 55.5053C51.0179 55.4735 51.0415 55.4429 51.0639 55.4111C50.9483 55.3279 50.8289 55.2521 50.7182 55.1628C48.8295 53.624 47.2715 51.7978 45.9187 49.7967C43.2554 45.8605 41.5246 41.517 40.1519 37.0157C39.9666 36.4065 39.7876 35.7949 39.5936 35.1417C38.1624 36.8199 37.3318 38.618 37.3493 40.7916C37.3878 45.5584 37.3517 50.3251 37.3493 55.0931C37.3493 55.2313 37.3704 55.3695 37.3816 55.504H50.9955V55.5053Z" fill="black"/>
<path d="M32.8171 24.6357C35.0577 24.6223 36.9203 26.4363 36.9452 28.6576C36.9688 30.8495 35.1024 32.6916 32.8444 32.7039C30.5902 32.7161 28.735 30.9058 28.7276 28.6833C28.7201 26.4644 30.5541 24.6492 32.8171 24.6345V24.6357ZM32.8059 31.2385C34.2507 31.2495 35.4295 30.1168 35.4531 28.6943C35.4767 27.2986 34.2918 26.117 32.8507 26.0999C31.4096 26.0828 30.2246 27.2289 30.2147 28.649C30.2047 30.074 31.3586 31.2275 32.8047 31.2385H32.8059Z" fill="black"/>
</g>
<defs>
<clipPath id="clip0_52_184">
<rect width="40" height="50" fill="white" transform="translate(13 7)"/>
</clipPath>
</defs>
</svg>
