<svg width="65" height="65" viewBox="0 0 65 65" fill="none" xmlns="http://www.w3.org/2000/svg">
<g clip-path="url(#clip0_52_182)">
<path d="M51.7858 25.8167C51.8196 26.8634 52.0113 27.8394 52.3768 28.7822C52.4333 28.9283 52.514 28.9741 52.6643 28.9706C53.0339 28.9616 53.4042 28.9616 53.7738 28.9706C54.5213 28.9893 55.0825 29.558 55.0853 30.2895C55.0887 31.0293 54.5123 31.6223 53.7586 31.6229C50.3261 31.6278 46.8929 31.6278 43.4603 31.6229C42.7074 31.6216 42.1316 31.0286 42.1343 30.2881C42.1378 29.558 42.7005 28.9879 43.4472 28.9699C43.8258 28.9609 44.2043 28.9741 44.5829 28.9616C44.6588 28.9588 44.7753 28.9041 44.7994 28.8438C45.1911 27.8831 45.3586 26.878 45.3862 25.816H45.0897C43.1625 25.816 41.2352 25.816 39.3086 25.816C38.0419 25.816 37.2228 25.0014 37.2221 23.7282C37.2193 19.579 37.2186 15.4304 37.2221 11.2811C37.2228 10.0031 38.035 9.19679 39.3093 9.1961C42.7418 9.19471 46.1751 9.19471 49.6076 9.19748C49.7703 9.19748 49.8855 9.16908 50.002 9.02708C50.0937 8.91555 50.273 8.85252 50.4247 8.81996C50.7929 8.74099 50.9115 8.46668 50.6902 8.15705C50.4509 7.82317 50.4674 7.57656 50.7515 7.28217C50.8894 7.13947 51.0267 6.99539 51.1728 6.8617C51.4163 6.63934 51.6762 6.62964 51.9465 6.82083C52.323 7.08752 52.5699 6.98708 52.6478 6.53474C52.705 6.20433 52.9153 6.01383 53.2463 6.00344C53.4525 5.99721 53.6593 5.9979 53.8655 6.00344C54.213 6.01176 54.4199 6.19671 54.4806 6.54513C54.5571 6.98015 54.8129 7.08613 55.1687 6.82983C55.4514 6.62618 55.7107 6.63519 55.9624 6.86863C56.1203 7.01478 56.2727 7.16787 56.4189 7.3265C56.6526 7.58072 56.663 7.84118 56.463 8.1238C56.2086 8.48331 56.3141 8.73199 56.7388 8.82342C56.8816 8.8539 57.0443 8.92594 57.1346 9.03331C57.2442 9.16285 57.3498 9.20164 57.5056 9.19748C57.8235 9.18917 58.142 9.18917 58.4606 9.19679C59.3211 9.21688 59.93 9.80359 59.9934 10.6681C59.9983 10.7367 59.999 10.8059 59.999 10.8752C59.999 15.154 59.9997 19.4328 59.999 23.7109C59.999 24.6759 59.5253 25.4184 58.7123 25.692C58.473 25.7731 58.2075 25.8091 57.9538 25.8105C56.001 25.8202 54.0482 25.8153 52.0948 25.8153H51.7852L51.7858 25.8167ZM49.8331 9.92205H49.5414C46.1351 9.92205 42.7287 9.92205 39.3224 9.92205C38.4315 9.92205 37.9454 10.4042 37.9454 11.295C37.944 14.7432 37.9447 18.1915 37.9454 21.6398C37.9454 21.7312 37.953 21.8226 37.9571 21.9161H59.2777V21.6287C59.2777 18.0509 59.2777 14.4731 59.2763 10.8946C59.2763 10.7831 59.2729 10.6688 59.2508 10.56C59.186 10.2435 58.9895 9.99409 58.6826 9.96084C58.2275 9.91166 57.7628 9.94837 57.3042 9.94837C57.2463 10.4187 57.105 10.6002 56.7561 10.6605C56.3065 10.7387 56.2058 10.9874 56.4706 11.3649C56.6561 11.6296 56.6561 11.8865 56.4471 12.1221C56.2872 12.3029 56.1162 12.4746 55.9362 12.6347C55.7024 12.8432 55.4439 12.8439 55.1818 12.6596C54.8081 12.3957 54.5626 12.4961 54.4806 12.9464C54.4178 13.2906 54.2096 13.468 53.8552 13.4742C53.6573 13.4777 53.4594 13.4784 53.2615 13.4742C52.9126 13.4659 52.705 13.2809 52.6478 12.9332C52.5768 12.5037 52.3147 12.3971 51.9582 12.652C51.6776 12.8529 51.4169 12.8425 51.1639 12.6111C51.037 12.4947 50.9184 12.3687 50.7977 12.2461C50.4578 11.9011 50.4406 11.6974 50.7157 11.2943C50.8998 11.0241 50.7791 10.7242 50.464 10.6688C50.0013 10.5877 49.8779 10.4499 49.8331 9.92205ZM37.944 22.6663C37.944 23.0231 37.9426 23.3673 37.944 23.7109C37.9475 24.6004 38.4357 25.0901 39.3176 25.0901C45.5124 25.0901 51.7065 25.0901 57.9014 25.0901C57.9703 25.0901 58.0393 25.0936 58.1076 25.088C58.6275 25.0451 59.0122 24.7888 59.186 24.2956C59.3729 23.765 59.2453 23.2094 59.2784 22.6656H37.944V22.6663ZM51.0542 25.8278H46.1985C46.0089 26.8856 45.8227 27.9218 45.6379 28.9533H51.6645C51.2825 27.9336 51.1018 26.8946 51.0542 25.8278ZM48.6084 29.6945C46.9742 29.6945 45.3407 29.6945 43.7065 29.6945C43.612 29.6945 43.5169 29.6924 43.4231 29.6993C43.0935 29.7243 42.8618 29.9695 42.8597 30.2909C42.8577 30.6102 43.0887 30.8644 43.4134 30.8963C43.4817 30.9032 43.5507 30.8998 43.6196 30.8998C46.9473 30.8998 50.2758 30.8998 53.6035 30.8998C53.6724 30.8998 53.7414 30.9025 53.8096 30.8956C54.1337 30.8624 54.3634 30.6068 54.3599 30.2867C54.3558 29.9639 54.1255 29.7229 53.7938 29.6979C53.7083 29.6917 53.6221 29.6931 53.5359 29.6931C51.8934 29.6931 50.2509 29.6931 48.6084 29.6931V29.6945ZM53.3752 6.73701C53.0822 7.65276 52.5243 7.88482 51.6114 7.50799C51.5052 7.59665 51.4094 7.67701 51.3087 7.76152C51.5493 8.11687 51.5969 8.48192 51.4425 8.86152C51.2839 9.25151 50.9722 9.46071 50.5778 9.54591V9.92343C51.4818 10.1576 51.7652 11.0151 51.3321 11.7113C51.4156 11.811 51.4962 11.9087 51.5742 12.0022C52.2596 11.5637 53.1318 11.7944 53.3828 12.7372H53.7579C53.9296 11.9143 54.7667 11.5159 55.5611 11.9939C55.6438 11.9129 55.7293 11.8297 55.8086 11.7522C55.4032 10.7942 55.5949 10.33 56.5526 9.91096V9.55699C55.65 9.23281 55.4473 8.77286 55.7659 7.83079C55.7873 7.76706 55.7121 7.64861 55.6507 7.58695C55.6066 7.54262 55.5073 7.52738 55.439 7.53847C55.1984 7.57795 54.9543 7.69502 54.7226 7.67146C54.1834 7.61674 53.8758 7.26208 53.7579 6.73493H53.3745L53.3752 6.73701Z" fill="black"/>
<path d="M47.1952 19.9205C47.0373 19.8374 46.876 19.7771 46.7457 19.6767C46.5285 19.5097 46.3064 19.4418 46.0506 19.5561C45.7975 19.6697 45.6865 19.8755 45.6652 20.1498C45.6341 20.546 45.3859 20.7787 44.9922 20.7891C44.7088 20.7967 44.4247 20.7961 44.1413 20.7891C43.7572 20.7794 43.5186 20.5605 43.4614 20.1802C43.3579 19.4875 42.9015 19.3047 42.3312 19.7272C42.0575 19.9302 41.7299 19.9309 41.4803 19.7037C41.2452 19.4896 41.019 19.2624 40.8053 19.0262C40.5688 18.7658 40.5722 18.4381 40.7894 18.152C41.2011 17.611 41.008 17.1372 40.3322 17.0312C39.9344 16.9689 39.7289 16.7355 39.722 16.3274C39.7172 16.0428 39.7151 15.7574 39.7234 15.472C39.7344 15.1034 39.964 14.8513 40.3274 14.8215C40.6067 14.7987 40.828 14.7017 40.9466 14.4336C41.0707 14.1538 40.9818 13.921 40.797 13.6952C40.5536 13.398 40.5715 13.0669 40.8356 12.785C41.0363 12.5716 41.2424 12.3624 41.4569 12.1629C41.7306 11.9073 42.0775 11.8713 42.3374 12.1366C42.7456 12.5515 43.4745 12.2842 43.471 11.6697C43.469 11.2881 43.7489 11.0678 44.1364 11.0532C44.4198 11.0422 44.7039 11.0422 44.9873 11.0532C45.3969 11.0692 45.6293 11.2985 45.6665 11.7175C45.69 11.9815 45.8003 12.1803 46.0472 12.2855C46.3009 12.3936 46.5271 12.3444 46.7415 12.1678C47.0911 11.8803 47.4028 11.8976 47.7262 12.2114C47.9241 12.4033 48.122 12.5966 48.3075 12.8002C48.5605 13.078 48.566 13.3925 48.3392 13.6938C47.9268 14.2431 48.1365 14.7315 48.8226 14.8201C49.1363 14.8603 49.3721 15.0723 49.3949 15.3909C49.419 15.7428 49.4197 16.0996 49.3949 16.4514C49.3721 16.7812 49.1494 16.9751 48.8005 17.0305C48.1151 17.1393 47.9331 17.6041 48.3537 18.1707C48.5536 18.4409 48.5612 18.7561 48.3413 19.0027C48.1178 19.2534 47.8806 19.4938 47.6283 19.7148C47.5193 19.8103 47.3587 19.8457 47.1939 19.9205H47.1952ZM47.198 12.7469C46.3733 13.4153 45.1011 13.0198 44.9253 11.791H44.1937C44.0696 12.8965 42.8746 13.4749 41.9223 12.7497C41.7479 12.9249 41.5741 13.0995 41.4003 13.274C42.0816 14.1219 41.6548 15.3937 40.4619 15.5627V16.2997C41.6003 16.4397 42.1133 17.6761 41.4203 18.5614C41.5886 18.7491 41.7534 18.9334 41.9182 19.117C42.7249 18.4319 44.0123 18.8025 44.2006 20.0507H44.9335C45.0887 18.8821 46.314 18.4028 47.2118 19.1038C47.3869 18.9306 47.5621 18.7567 47.7365 18.5843C47.0622 17.7433 47.4504 16.4695 48.6743 16.29V15.5592C47.4207 15.3542 47.078 14.0928 47.7152 13.2768C47.5469 13.1043 47.38 12.9332 47.1987 12.7476L47.198 12.7469Z" fill="black"/>
<path d="M54.3415 16.2825C53.2666 16.2825 52.1909 16.2825 51.1159 16.2825C51.0297 16.2825 50.9194 16.3096 50.8635 16.2673C50.7511 16.1814 50.6091 16.065 50.5925 15.9452C50.578 15.8406 50.6966 15.6868 50.7973 15.6058C50.8704 15.5469 51.0104 15.5594 51.12 15.5594C53.2707 15.5573 55.4207 15.558 57.5714 15.558C57.5969 15.558 57.6231 15.558 57.6486 15.558C57.9478 15.5642 58.1126 15.6958 58.1113 15.9265C58.1099 16.1599 57.9541 16.2825 57.6444 16.2832C56.5433 16.2846 55.4427 16.2832 54.3415 16.2832V16.2825Z" fill="black"/>
<path d="M54.3407 17.8195C55.4157 17.8195 56.4914 17.8195 57.5664 17.8195C57.6436 17.8195 57.7222 17.8153 57.7981 17.825C57.9849 17.85 58.0932 17.9622 58.1084 18.1492C58.1235 18.3369 58.0311 18.4685 57.8518 18.5177C57.7546 18.5441 57.6484 18.5447 57.5457 18.5447C55.4123 18.5461 53.2795 18.5461 51.1461 18.5461C51.1288 18.5461 51.1116 18.5461 51.0944 18.5461C50.7517 18.5441 50.5758 18.4201 50.5737 18.1811C50.5717 17.9379 50.7379 17.8209 51.0895 17.8202C52.1735 17.8202 53.2574 17.8202 54.3407 17.8202V17.8195Z" fill="black"/>
<path d="M52.6268 20.7899C52.0855 20.7899 51.5443 20.792 51.003 20.7892C50.7375 20.7878 50.5824 20.6597 50.5741 20.4449C50.5651 20.224 50.7313 20.066 51.0002 20.0653C52.0918 20.0619 53.1826 20.0619 54.2742 20.0653C54.5451 20.066 54.7092 20.2198 54.7024 20.4422C54.6955 20.6569 54.541 20.7878 54.2769 20.7892C53.7267 20.792 53.1771 20.7899 52.6268 20.7899Z" fill="black"/>
<path d="M48.6026 23.5129C48.8853 23.5129 49.168 23.5067 49.4507 23.515C49.6886 23.5219 49.8424 23.6701 49.8431 23.871C49.8438 24.0705 49.6914 24.2285 49.4535 24.2326C48.888 24.2416 48.3226 24.2423 47.7572 24.2319C47.5221 24.2278 47.3718 24.0622 47.3786 23.8613C47.3855 23.6591 47.5365 23.5212 47.78 23.5143C48.0537 23.5067 48.3281 23.5129 48.6026 23.5129Z" fill="black"/>
<path d="M55.5353 9.72667C55.5402 10.8267 54.6762 11.7099 53.586 11.7196C52.4814 11.7293 51.5974 10.8502 51.5967 9.74191C51.5967 8.64398 52.4669 7.76495 53.5577 7.76148C54.65 7.75802 55.5305 8.6329 55.5353 9.72667ZM53.5564 8.48743C52.8634 8.4909 52.3179 9.04367 52.3186 9.74261C52.3193 10.4415 52.8654 10.9909 53.5605 10.9929C54.2652 10.995 54.8175 10.436 54.812 9.72529C54.8065 9.0319 54.2514 8.48397 53.5564 8.48743Z" fill="black"/>
<path d="M47.0765 15.9362C47.0682 17.3306 45.9429 18.4549 44.559 18.4514C43.1654 18.4479 42.0428 17.305 42.0518 15.8988C42.0615 14.5106 43.1999 13.3864 44.5838 13.3995C45.976 13.4127 47.0848 14.5411 47.0765 15.9362ZM46.3532 15.9556C46.3704 14.9574 45.5974 14.149 44.6038 14.1255C43.6171 14.1019 42.791 14.8944 42.7758 15.878C42.76 16.8776 43.5371 17.7026 44.5142 17.7241C45.5181 17.7462 46.3366 16.9593 46.3532 15.9556Z" fill="black"/>
</g>
<g clip-path="url(#clip1_52_182)">
<path d="M23.0851 26.8931C23.0205 27.9507 22.6128 28.4276 21.6566 28.5417C21.6818 28.9765 21.569 29.3711 21.2442 29.6856C20.9173 30.0029 20.5164 30.0959 20.0624 30.0531C19.9931 30.6591 19.7063 31.0897 19.1199 31.265C18.5559 31.4328 18.0802 31.1706 17.6181 30.9023C16.8556 32.002 15.5468 31.7541 15.0548 30.8044C14.6797 30.9946 14.2849 31.0945 13.8656 30.9607C13.4491 30.8275 13.1501 30.5551 12.9727 30.1584C11.5973 30.782 10.5522 29.5824 10.8858 28.4887C10.351 28.4371 9.90726 28.2231 9.64631 27.7327C9.38537 27.2422 9.43565 26.7545 9.69592 26.2864C9.31809 25.8198 8.91988 25.4108 8.36129 25.1663C7.80406 24.9224 7.27265 24.6188 6.73309 24.3348C6.61077 24.2703 6.52107 24.2486 6.39128 24.3409C6.18673 24.487 5.94753 24.5006 5.71241 24.4028C5.36108 24.2567 5.00908 24.11 4.66183 23.9537C4.33429 23.807 4.15828 23.5434 4.09644 23.1929C3.82327 21.6557 4.13722 20.2135 4.81133 18.8339C5.29721 17.8394 5.96384 16.9808 6.82211 16.2763C7.24207 15.9313 7.59 15.8966 8.06229 16.1541C8.45643 16.3687 8.84717 16.5888 9.23994 16.8055C9.46759 16.9312 9.61098 17.1132 9.6735 17.3714C9.69592 17.4631 9.76795 17.5677 9.84746 17.6166C10.8267 18.2178 11.8922 18.4487 13.0345 18.3305C13.2534 18.3081 13.4735 18.2932 13.693 18.2728C13.7161 18.2707 13.7379 18.2538 13.7087 18.2674C13.6176 17.6614 13.5293 17.0745 13.4355 16.4489C13.1208 16.4489 12.7498 16.4489 12.3788 16.4489C11.3948 16.4475 10.877 15.9272 10.8763 14.9402C10.8763 13.5592 10.8946 12.1775 10.8654 10.7965C10.8559 10.3556 10.718 9.91813 10.6405 9.47862C10.5902 9.19535 10.5386 8.91209 10.4944 8.62746C10.3965 7.99572 10.8015 7.47877 11.4526 7.45907C12.2653 7.43394 13.0801 7.44956 13.8935 7.44821C13.9934 7.44821 14.0933 7.44821 14.221 7.44821C14.221 7.2648 14.2176 7.10584 14.2217 6.94689C14.2367 6.41703 14.6308 6.00946 15.1588 6.00538C16.261 5.99723 17.3626 5.99723 18.4648 6.00538C18.9942 6.00878 19.391 6.41432 19.4073 6.94213C19.4121 7.10109 19.408 7.26004 19.408 7.44821C19.5242 7.44821 19.6146 7.44821 19.705 7.44821C20.4763 7.44821 21.2476 7.44481 22.0195 7.44956C22.8377 7.45432 23.2543 7.94002 23.1163 8.74906C23.0185 9.32306 22.8846 9.89163 22.7718 10.4636C22.7541 10.5539 22.7541 10.6484 22.7541 10.7414C22.7528 12.1394 22.7324 13.5381 22.7609 14.9361C22.7786 15.8212 22.1955 16.5121 21.2292 16.453C20.8677 16.4305 20.5041 16.4496 20.1161 16.4496C20.1161 16.7301 20.1351 16.9835 20.1107 17.2335C20.0862 17.4834 20.0196 17.7287 19.9748 17.9569C21.3339 18.5547 22.6202 18.3957 23.8353 17.5785C23.8944 17.5385 23.9406 17.4515 23.9562 17.3788C24.012 17.12 24.1553 16.9373 24.3844 16.8109C24.7928 16.5868 25.1971 16.3558 25.6055 16.1323C26.0139 15.9082 26.408 15.9387 26.7621 16.2417C28.637 17.8475 29.6291 19.8718 29.6243 22.356C29.6243 22.6583 29.572 22.964 29.5177 23.2629C29.4599 23.5808 29.2723 23.8192 28.9727 23.9531C28.6247 24.1079 28.2741 24.256 27.9221 24.4014C27.6577 24.5108 27.3995 24.4816 27.18 24.3022C27.0665 24.2092 26.9836 24.2187 26.8647 24.275C26.122 24.6249 25.3745 24.9645 24.6337 25.3171C24.5583 25.3531 24.4618 25.4489 24.4591 25.5195C24.4346 26.2355 23.8434 26.8265 23.1455 26.8672C23.1299 26.8679 23.115 26.8795 23.0823 26.8937L23.0851 26.8931ZM15.0759 19.7306C14.8646 19.5533 14.6376 19.4167 14.4861 19.2218C14.2944 18.9752 14.0722 18.9344 13.799 18.9799C13.7487 18.9881 13.6978 18.9915 13.6475 18.9983C12.1783 19.1898 10.7723 19.0316 9.48662 18.232C9.35139 18.1478 9.2814 18.1947 9.1849 18.2823C7.68038 19.649 6.8724 21.3425 6.77318 23.3743C6.76571 23.5231 6.82347 23.5835 6.94035 23.6426C7.51457 23.9334 8.07792 24.2445 8.65893 24.5203C9.16383 24.7594 9.61913 25.0508 9.96027 25.5019C9.9922 25.544 10.0391 25.5739 10.0996 25.6289C10.4482 24.8925 10.8695 24.2676 11.791 24.3613C12.4461 24.4279 12.832 24.8368 13.0243 25.4421C13.9254 25.292 14.5316 25.6092 14.8666 26.5052C15.2539 26.4101 15.6318 26.4366 15.9892 26.6404C16.3541 26.8489 16.5573 27.1797 16.6694 27.5363C16.9385 27.5363 17.1818 27.4963 17.4068 27.5431C18.3262 27.7361 18.7822 28.7244 18.3534 29.5654C18.2324 29.8025 18.0958 30.0321 17.9579 30.28C18.1447 30.3751 18.2976 30.4668 18.4614 30.5334C18.8121 30.6761 19.1287 30.5769 19.2735 30.2929C19.4175 30.0097 19.3204 29.742 18.9949 29.5233C18.757 29.3637 18.6945 29.183 18.8121 28.9955C18.9296 28.8073 19.1219 28.7788 19.3686 28.9167C19.5684 29.0281 19.7627 29.149 19.9646 29.2563C20.3043 29.437 20.6693 29.3446 20.8534 29.0403C21.041 28.7299 20.9377 28.3535 20.6027 28.1416C20.481 28.0648 20.354 27.9969 20.2296 27.9242C19.972 27.7727 19.8932 27.5873 20.0013 27.3889C20.1093 27.1892 20.3139 27.1573 20.5721 27.3027C20.7936 27.427 21.0118 27.5574 21.2333 27.6817C21.6451 27.912 22.0637 27.821 22.271 27.4589C22.4789 27.0955 22.3471 26.6988 21.9353 26.4515C21.8191 26.3815 21.6988 26.3184 21.5839 26.2477C21.361 26.1098 21.2965 25.9264 21.4018 25.7396C21.5058 25.5555 21.7097 25.5093 21.9319 25.6302C22.1697 25.76 22.4001 25.9026 22.6372 26.0337C23.0259 26.2484 23.4323 26.1628 23.643 25.8272C23.8584 25.4828 23.7571 25.0542 23.3596 24.8232C22.0501 24.0611 20.7359 23.3057 19.4121 22.568C18.8746 22.2684 18.2807 22.1325 17.6697 22.2854C17.2708 22.3852 16.8862 22.5496 16.5016 22.7018C16.015 22.894 15.5455 23.1372 15.0487 23.2969C14.3101 23.5346 13.6427 23.3329 13.0638 22.8349C12.3815 22.2487 12.4481 21.3765 13.2044 20.8983C13.4117 20.7672 13.621 20.6381 13.8296 20.5083C14.2448 20.2489 14.66 19.99 15.0759 19.7299V19.7306ZM24.3341 24.665C25.0965 24.3124 25.9337 23.93 26.7641 23.5326C26.8205 23.5054 26.8511 23.3648 26.847 23.2792C26.7458 21.3446 25.9691 19.7244 24.5719 18.3869C24.368 18.1919 24.2233 18.1525 23.9753 18.3108C23.1788 18.821 22.3056 19.1117 21.3515 19.0112C20.8589 18.9596 20.3743 18.8223 19.8898 18.7062C19.7002 18.6607 19.5956 18.6973 19.4685 18.8583C18.5946 19.9636 17.4577 20.3772 16.0708 20.1144C15.9607 20.0933 15.8166 20.1198 15.7208 20.1775C15.0181 20.6021 14.323 21.0396 13.6264 21.4743C13.218 21.7297 13.2037 22.0279 13.5775 22.337C14.0348 22.7154 14.5431 22.7718 15.0779 22.5551C15.5319 22.371 15.979 22.1658 16.4194 21.9512C17.6589 21.3459 18.8644 21.3928 20.055 22.0911C21.1137 22.712 22.1853 23.3098 23.2434 23.932C23.6036 24.1433 23.9386 24.3966 24.3341 24.6643V24.665ZM11.5932 11.2557C11.5932 12.5355 11.5857 13.839 11.598 15.1426C11.6014 15.4972 11.8474 15.7207 12.2041 15.7315C12.6445 15.7444 13.0855 15.7444 13.5252 15.7295C13.6074 15.7268 13.7236 15.6453 13.7603 15.5699C14.378 14.2928 15.3831 13.5782 16.806 13.5734C18.2412 13.5693 19.2538 14.2867 19.8749 15.5733C19.9109 15.6487 20.0298 15.7261 20.1127 15.7295C20.5103 15.7458 20.9085 15.739 21.3067 15.7363C21.8245 15.7322 22.042 15.5121 22.0433 14.9864C22.0453 14.2072 22.0433 13.428 22.0433 12.6489C22.0433 12.1754 22.0433 11.7026 22.0433 11.2428C20.8405 11.4173 19.6459 11.2692 18.4478 11.3413C18.3778 11.6992 18.2059 11.9628 17.8023 11.9662C17.1417 11.9716 16.4805 11.973 15.82 11.9648C15.5081 11.9608 15.3103 11.8059 15.2349 11.5009C15.1975 11.3494 15.1255 11.3222 14.9889 11.3236C14.2183 11.3283 13.447 11.3331 12.6764 11.3229C12.3244 11.3182 11.9738 11.2808 11.5925 11.2563L11.5932 11.2557ZM18.4594 10.6083C19.4563 10.6083 20.4471 10.6192 21.4372 10.6029C21.8306 10.5961 22.0984 10.359 22.1751 9.98606C22.2764 9.49764 22.3573 9.00515 22.4374 8.51266C22.4707 8.30887 22.3641 8.19068 22.1602 8.1669C22.0848 8.15807 22.008 8.16079 21.9319 8.16079C18.526 8.16079 15.1201 8.16079 11.7142 8.16079C11.6462 8.16079 11.5783 8.15807 11.511 8.1635C11.263 8.18388 11.1644 8.3048 11.2045 8.55138C11.2799 9.01059 11.3547 9.46979 11.441 9.92696C11.5225 10.357 11.8086 10.6042 12.2612 10.6096C13.1847 10.6205 14.1082 10.6164 15.0317 10.6076C15.0956 10.6076 15.1935 10.5302 15.2159 10.4677C15.347 10.1002 15.5156 9.96636 15.9084 9.96432C16.4758 9.9616 17.0439 9.96296 17.6113 9.96364C18.1529 9.96364 18.2908 10.0655 18.4587 10.609L18.4594 10.6083ZM14.2149 16.8646C14.2088 18.3047 15.3627 19.4738 16.7979 19.4813C18.2399 19.4887 19.4073 18.3407 19.4203 16.904C19.4332 15.451 18.2773 14.2806 16.8251 14.2758C15.3851 14.2711 14.2217 15.4245 14.2156 16.8646H14.2149ZM6.04675 23.7696C6.06781 22.5225 6.29818 21.369 6.81192 20.2821C7.3243 19.1987 8.06636 18.2884 9.00414 17.4916C8.57127 17.2504 8.17577 17.0439 7.79387 16.813C7.57981 16.6832 7.42011 16.6941 7.2278 16.8605C6.06374 17.8645 5.29653 19.111 4.90918 20.5939C4.6992 21.3975 4.63465 22.2113 4.79978 23.0313C4.82016 23.1338 4.89288 23.2649 4.97918 23.3077C5.3108 23.4714 5.65737 23.6053 6.04675 23.7703V23.7696ZM27.5877 23.7656C27.7685 23.6922 27.901 23.6399 28.0322 23.5842C28.9081 23.2113 28.9258 23.2113 28.919 22.248C28.904 20.0512 28.005 18.2633 26.3632 16.8279C26.2035 16.688 26.0601 16.6853 25.8821 16.7899C25.5328 16.9957 25.174 17.1866 24.8206 17.3863C24.7656 17.4176 24.7173 17.4597 24.6487 17.5093C26.5752 19.1498 27.5456 21.2216 27.5871 23.7656H27.5877ZM12.2463 29.6245C12.4895 29.6102 12.6954 29.5165 12.8198 29.3039C13.2432 28.5818 13.6672 27.8597 14.0729 27.1274C14.2604 26.7891 14.1273 26.3863 13.8079 26.2042C13.4851 26.0208 13.0862 26.1193 12.8735 26.4447C12.7532 26.6288 12.6506 26.8238 12.5405 27.014C12.2442 27.5262 11.9405 28.0349 11.6544 28.5526C11.3737 29.06 11.6965 29.6333 12.2463 29.6238V29.6245ZM15.9838 27.9276C15.979 27.5459 15.7799 27.2864 15.4782 27.196C15.1744 27.105 14.8673 27.215 14.692 27.5085C14.3576 28.0676 14.0342 28.6334 13.7121 29.1999C13.4844 29.6007 13.5782 30.0124 13.9336 30.2135C14.2903 30.4152 14.6858 30.2889 14.921 29.8881C15.2336 29.3555 15.5441 28.8209 15.8458 28.2822C15.9185 28.1525 15.9552 28.003 15.9838 27.9276ZM10.1696 27.0248C10.1845 27.3645 10.3687 27.6267 10.6813 27.7252C10.985 27.821 11.2922 27.7177 11.4723 27.4263C11.7291 27.0092 11.971 26.5819 12.2116 26.1547C12.4291 25.7681 12.336 25.364 11.9935 25.1588C11.6428 24.9489 11.2365 25.0725 11.0027 25.4679C10.7703 25.8605 10.5406 26.2552 10.3184 26.6539C10.2538 26.7694 10.2185 26.9005 10.1696 27.0242V27.0248ZM17.7995 29.0043C17.8056 28.6103 17.6174 28.3481 17.3198 28.2516C17.0221 28.1559 16.7007 28.2618 16.5254 28.5465C16.2685 28.9642 16.0273 29.3915 15.7867 29.8181C15.5625 30.2168 15.661 30.6285 16.0184 30.8269C16.3704 31.0218 16.7591 30.9016 16.9888 30.5151C17.226 30.1156 17.4591 29.7128 17.684 29.3059C17.7479 29.1904 17.7791 29.058 17.7995 29.0036V29.0043ZM14.9536 7.43054H18.6993C18.6993 7.32933 18.6993 7.24645 18.6993 7.16358C18.6993 6.74921 18.6653 6.71457 18.2528 6.71457C17.3565 6.71457 16.4608 6.71728 15.5645 6.71321C14.9848 6.71049 14.8829 6.64052 14.9536 7.42986V7.43054ZM17.7078 10.6912H15.9315V11.2332H17.7078V10.6912Z" fill="black"/>
<path d="M16.3623 17.1107C16.7972 16.6752 17.2083 16.2636 17.6188 15.8513C17.7513 15.7181 17.9198 15.6414 18.068 15.7677C18.1645 15.8499 18.2093 16.0136 18.2365 16.1488C18.2487 16.2086 18.1719 16.301 18.1155 16.3587C17.6045 16.8756 17.0914 17.3912 16.573 17.9007C16.3419 18.1269 16.1149 18.0943 15.9478 17.8171C15.7731 17.5284 15.6039 17.2357 15.4415 16.9395C15.3267 16.7296 15.3729 16.534 15.5455 16.4287C15.7303 16.3159 15.9219 16.3736 16.0572 16.591C16.155 16.7479 16.2454 16.9103 16.3623 17.11V17.1107Z" fill="black"/>
</g>
<g clip-path="url(#clip2_52_182)">
<path d="M31.5856 57.7289C31.3524 57.6145 31.2715 57.4286 31.2763 57.1698C31.2885 56.5249 31.2804 55.8792 31.2804 55.2091C31.1288 55.2091 30.988 55.2009 30.8493 55.2105C30.389 55.2411 29.9349 55.2507 29.5093 55.0246C28.4867 54.4818 28.3229 53.2512 29.1768 52.4993C29.4148 52.2896 29.6514 52.2793 29.8288 52.4721C30.0056 52.6634 29.9777 52.8902 29.7466 53.1184C29.5514 53.3111 29.3876 53.5222 29.497 53.8144C29.6167 54.1331 29.854 54.3394 30.1973 54.3633C30.5427 54.3871 30.8908 54.3687 31.2593 54.3687V51.4355C30.9431 51.4355 30.6236 51.4185 30.3068 51.439C29.4433 51.4941 28.6785 51.3055 28.0747 50.6326C27.2004 49.6581 27.4091 48.4329 28.3779 47.6375C28.5772 47.474 28.8192 47.4924 28.9728 47.6606C29.1387 47.8425 29.1211 48.0767 28.9259 48.2722C28.9137 48.2844 28.9008 48.2947 28.8885 48.3062C28.5017 48.6576 28.2304 49.0669 28.4283 49.6077C28.6383 50.1811 29.0775 50.5291 29.6847 50.5795C30.2048 50.6231 30.731 50.5884 31.2681 50.5884V47.0852C30.8072 47.1056 30.3517 47.1519 29.8988 47.1396C29.3767 47.1253 28.8423 47.1219 28.3392 47.0028C27.594 46.8264 27.0345 46.3299 26.6055 45.7034C25.9222 44.705 26.0167 43.4709 26.838 42.5318C26.9828 42.3663 27.1419 42.2104 27.3105 42.0694C27.5138 41.8998 27.7749 41.9271 27.9217 42.1109C28.07 42.2962 28.0428 42.5148 27.8565 42.7034C27.6899 42.8716 27.5125 43.0337 27.3704 43.2217C26.8611 43.8939 26.8679 44.6682 27.3792 45.3376C27.8558 45.9621 28.4813 46.3142 29.2747 46.3095C29.9342 46.3054 30.593 46.2713 31.2668 46.2495V36.5708C30.9452 36.4223 30.6202 36.312 30.3381 36.1336C29.3862 35.5322 28.9885 34.3575 29.3502 33.3032C29.7146 32.2361 30.7725 31.5448 31.9018 31.6354C33.012 31.7239 33.9442 32.5616 34.1372 33.6451C34.3636 34.9139 33.6049 36.124 32.3559 36.4584C32.1703 36.5081 32.1166 36.579 32.1173 36.7642C32.1227 39.8649 32.1227 42.9663 32.1166 46.067C32.1166 46.2638 32.1928 46.3074 32.3641 46.3605C33.1623 46.6078 33.972 46.8352 34.7423 47.1553C35.4317 47.442 35.9824 47.9378 36.2088 48.6897C36.4862 49.609 36.1619 50.4099 35.652 51.1556C35.5242 51.3422 35.2998 51.3491 35.1081 51.2149C34.9164 51.0807 34.8804 50.8805 34.9878 50.6551C35.1367 50.3432 35.3087 50.036 35.4079 49.7078C35.5664 49.1841 35.4317 48.7046 35.0123 48.3478C34.7702 48.1414 34.4976 47.9453 34.2045 47.8302C33.5913 47.5898 32.9563 47.4052 32.3294 47.2009C32.2757 47.1832 32.2152 47.1873 32.1343 47.1785C32.1289 47.2731 32.1207 47.3548 32.1207 47.4372C32.12 48.4227 32.1255 49.4081 32.1159 50.3936C32.1139 50.5822 32.1792 50.6428 32.3546 50.7007C32.8829 50.8764 33.4302 51.031 33.9163 51.2932C35.1319 51.949 35.1945 53.1333 34.4615 54.1971C34.331 54.3871 34.1155 54.4144 33.921 54.2945C33.7205 54.1706 33.6593 53.9581 33.766 53.7435C33.8456 53.5842 33.9442 53.4337 34.0081 53.2689C34.1964 52.7826 34.0998 52.3781 33.6491 52.1234C33.184 51.8605 32.6728 51.6794 32.12 51.4355C32.12 51.6821 32.12 51.8326 32.12 51.9831C32.12 52.7309 32.1275 53.4786 32.1153 54.2257C32.1119 54.4253 32.1867 54.4974 32.3641 54.5642C32.6789 54.6827 33.0066 54.8012 33.2779 54.9925C34.0713 55.5517 33.9142 56.4452 33.4635 57.0343C33.3404 57.195 33.1602 57.2107 32.9808 57.1139C32.7958 57.0145 32.7122 56.8606 32.755 56.6488C32.7632 56.6086 32.7816 56.5678 32.804 56.5324C33.2187 55.8799 32.8917 55.6579 32.3709 55.4468C32.3022 55.4189 32.2281 55.4039 32.1207 55.3726C32.1207 55.8125 32.1207 56.2266 32.1207 56.6406C32.1207 56.8102 32.1112 56.9811 32.1227 57.15C32.1397 57.4013 32.0582 57.5968 31.8399 57.7282H31.5856V57.7289ZM31.7005 35.7093C32.6082 35.7093 33.3472 34.9772 33.3411 34.0844C33.335 33.1847 32.5973 32.4676 31.6863 32.4751C30.7861 32.4826 30.0613 33.2004 30.0593 34.0864C30.0573 34.9833 30.7915 35.7093 31.7012 35.7093H31.7005Z" fill="black"/>
<path d="M21.507 40.8728C21.2976 40.8449 21.1038 40.8312 20.9155 40.7904C20.2452 40.6474 19.8223 40.204 19.5449 39.6068C19.4082 39.3119 19.6265 38.9809 19.9501 39.0197C21.267 39.1777 22.3902 38.6772 23.4753 38.0261C24.3394 37.5078 25.1886 36.9603 26.0765 36.4856C26.9359 36.0259 27.8578 35.8346 28.8246 36.1628C29.4243 36.3664 29.9247 36.726 30.3584 37.1762C30.4468 37.2681 30.4992 37.4336 30.5005 37.5657C30.5107 38.8229 30.5094 40.0801 30.5046 41.3366C30.5032 41.7064 30.2428 41.9338 29.9301 41.8051C28.8124 41.3454 27.7225 41.5361 26.6259 41.88C26.0697 42.0544 25.5054 42.2076 24.9384 42.3418C24.712 42.3949 24.4659 42.3894 24.2306 42.3751C23.6344 42.3404 23.4705 42.1218 23.5766 41.5525C23.2285 41.6471 22.8811 41.7826 22.5221 41.8269C22.2372 41.8616 21.9306 41.8174 21.6478 41.7499C21.2752 41.6607 21.2024 41.438 21.384 41.0948C21.4227 41.0219 21.4642 40.9504 21.5084 40.8721L21.507 40.8728ZM24.6114 41.532C24.7113 41.5211 24.8466 41.5218 24.9737 41.4891C25.3341 41.3958 25.6944 41.2984 26.0486 41.184C26.9638 40.8885 27.883 40.6242 28.86 40.7032C29.119 40.7243 29.3753 40.7706 29.6303 40.8054C29.6411 40.7781 29.6527 40.7631 29.6527 40.7475C29.6547 39.7539 29.6575 38.7596 29.6541 37.7659C29.6541 37.7067 29.6207 37.6311 29.5772 37.5916C29.1523 37.2116 28.6798 36.9256 28.0958 36.8704C27.3683 36.8009 26.7238 37.0618 26.1153 37.4077C25.3932 37.8177 24.6964 38.2706 23.9852 38.7003C23.1619 39.1975 22.3113 39.632 21.354 39.8104C21.2167 39.8363 21.078 39.8581 20.94 39.8819C20.94 39.903 20.9414 39.9234 20.942 39.9445C21.1161 39.965 21.2915 40.0106 21.4635 39.9997C21.7749 39.98 22.0856 39.9323 22.3943 39.886C22.6064 39.854 22.7866 39.8846 22.8974 40.0862C23 40.2721 22.9606 40.4444 22.8274 40.6031C22.7383 40.7087 22.6547 40.819 22.569 40.9273C22.707 40.9402 22.8158 40.9218 22.9103 40.8748C23.221 40.7202 23.5304 40.5629 23.8336 40.3933C24.2381 40.1672 24.5971 40.3075 24.663 40.7645C24.6977 41.0056 24.6331 41.261 24.612 41.5327L24.6114 41.532Z" fill="black"/>
<path d="M41.8622 40.9008C42.2233 41.5866 42.0948 41.8127 41.3571 41.8734C40.9158 41.9094 40.4984 41.8134 40.0932 41.6493C39.9953 41.6098 39.8967 41.5696 39.8002 41.5308C39.7886 41.554 39.7798 41.5628 39.7811 41.5696C39.9035 42.2002 39.7594 42.3651 39.1033 42.3923C38.4003 42.4223 37.7551 42.1832 37.0942 42.0021C36.5401 41.8502 35.9813 41.7106 35.4163 41.6091C34.7962 41.4981 34.1843 41.5921 33.5921 41.8053C33.1094 41.9782 32.8701 41.8148 32.8694 41.3081C32.8681 40.0938 32.8715 38.8796 32.8667 37.6653C32.866 37.4453 32.9374 37.2778 33.0979 37.1273C33.8376 36.4347 34.6711 35.9791 35.7222 36.0635C36.3321 36.1126 36.9032 36.3066 37.428 36.607C38.2663 37.0857 39.0836 37.6006 39.9123 38.0957C40.6357 38.5275 41.3829 38.9136 42.228 39.0321C42.5938 39.0832 42.9705 39.0668 43.3417 39.0614C43.5334 39.0587 43.6972 39.0839 43.8033 39.2582C43.908 39.4305 43.8638 39.5926 43.7775 39.7622C43.3825 40.5372 42.7413 40.8995 41.8629 40.9002L41.8622 40.9008ZM40.7268 41.003C40.7425 40.9812 40.7588 40.9594 40.7744 40.9383C40.6867 40.8259 40.5637 40.7258 40.5202 40.5985C40.4698 40.4534 40.4474 40.2709 40.4902 40.1286C40.5439 39.9515 40.7248 39.8957 40.9111 39.9263C41.0865 39.9549 41.2605 39.9937 41.4353 40.023C41.8357 40.0904 42.1974 40.0584 42.4129 39.9331C42.3728 39.9202 42.3436 39.9045 42.3123 39.9011C41.6651 39.8289 41.043 39.6505 40.476 39.3413C39.6438 38.8877 38.8429 38.377 38.0161 37.9132C37.4784 37.6115 36.9351 37.3098 36.3654 37.0796C35.4441 36.7071 34.6018 36.9189 33.8716 37.5761C33.7907 37.6489 33.7281 37.7858 33.7254 37.8948C33.7104 38.4294 33.7186 38.9647 33.7186 39.4993C33.7186 39.9481 33.7186 40.3969 33.7186 40.8321C34.1694 40.7987 34.597 40.7435 35.0247 40.7401C35.9541 40.732 36.8216 41.0398 37.698 41.302C38.0508 41.4075 38.4118 41.4838 38.711 41.5587C38.7368 41.2141 38.7171 40.9002 38.7946 40.6121C38.8735 40.3172 39.1244 40.2443 39.4085 40.3696C39.5554 40.4343 39.69 40.5256 39.8355 40.5944C40.1313 40.7347 40.4304 40.8675 40.7282 41.0037L40.7268 41.003Z" fill="black"/>
<path d="M37.3379 44.2588C37.3365 45.2218 36.6362 46.1671 35.7184 46.4436C35.4702 46.5185 35.2669 46.4245 35.182 46.1977C35.0956 45.9668 35.1908 45.7578 35.4471 45.6488C35.9863 45.42 36.3833 45.0631 36.4758 44.4584C36.573 43.8223 36.2766 43.364 35.7673 43.02C35.6905 42.9683 35.6021 42.9342 35.5226 42.8859C35.3139 42.7585 35.2411 42.544 35.3356 42.3417C35.4342 42.1299 35.6579 42.0469 35.8918 42.1347C36.7165 42.4446 37.3392 43.3599 37.3379 44.2595V44.2588Z" fill="black"/>
<path d="M30.3031 57.4067C29.7864 57.3788 29.3614 56.9661 29.3363 56.4676C29.3098 55.9432 29.6837 55.489 30.2038 55.4147C30.4513 55.3793 30.6559 55.5087 30.709 55.7328C30.7579 55.9398 30.6321 56.1332 30.4112 56.2306C30.3242 56.2687 30.2589 56.3545 30.1834 56.4186C30.2684 56.4758 30.3473 56.5623 30.4404 56.5841C30.73 56.6522 30.8789 56.7836 30.8626 56.9947C30.8443 57.229 30.5832 57.4217 30.3031 57.4061V57.4067Z" fill="black"/>
</g>
<defs>
<clipPath id="clip0_52_182">
<rect width="22.7797" height="25.6271" fill="white" transform="translate(37.2202 6)"/>
</clipPath>
<clipPath id="clip1_52_182">
<rect width="25.6271" height="25.6271" fill="white" transform="translate(4 6)"/>
</clipPath>
<clipPath id="clip2_52_182">
<rect width="24.3616" height="26.1017" fill="white" transform="translate(19.5029 31.6272)"/>
</clipPath>
</defs>
</svg>
