<svg width="65" height="65" viewBox="0 0 65 65" fill="none" xmlns="http://www.w3.org/2000/svg">
<path d="M26.6925 37.4018C26.6925 41.6277 26.6925 45.8144 26.6925 49.9967C26.6925 53.2094 25.1036 54.8158 21.9257 54.8158C20.0127 54.8158 19.0561 53.8244 19.0561 51.8415C19.0561 45.4481 19.0474 39.059 19.0648 32.6656C19.0648 31.728 18.6636 30.5156 20.3165 30.4196C21.0404 30.376 20.7352 29.8483 20.6043 29.4602C20.3339 28.6359 19.8237 27.8073 19.828 26.9831C19.8455 24.1178 18.1839 23.7951 15.8943 24.0306C14.5293 24.1701 13.1381 24.0655 11.7556 24.0393C11.2148 24.0306 10.7133 23.8779 10.7918 23.1714C10.8528 22.6088 11.3107 22.5216 11.7599 22.5216C13.7922 22.5085 15.8289 22.4954 17.8612 22.5216C18.6418 22.5303 19.3614 22.5085 19.344 21.4619C19.3265 20.3454 18.4456 20.7466 17.9004 20.7336C16.012 20.6812 14.1237 20.7248 12.2353 20.703C11.616 20.6943 10.7569 20.8557 10.8049 19.8613C10.8485 18.9062 11.6945 19.0938 12.3138 19.0894C14.3461 19.072 16.3827 19.0589 18.415 19.0894C19.3003 19.1025 20.129 19.0065 20.0243 17.8988C19.9283 16.887 19.0081 17.3755 18.4804 17.358C16.374 17.2926 14.2676 17.3406 12.1612 17.3231C11.6073 17.3231 10.8659 17.4627 10.7961 16.6385C10.7133 15.6746 11.4896 15.6964 12.1481 15.6921C14.3287 15.6834 16.5136 15.5656 18.6811 15.7226C20.4604 15.8491 21.603 15.3345 22.1089 13.3763C20.0505 12.9795 17.9876 13.2411 15.9466 13.1975C13.8402 13.1495 11.7294 13.2717 9.62735 13.1583C8.16201 13.0798 7.43807 13.4417 7.65612 15.0466C7.73898 15.6659 7.74335 16.5033 6.77517 16.4509C5.98145 16.4073 6.09048 15.679 6.04687 15.1033C5.86951 12.7861 6.96416 11.6275 9.3308 11.6275C13.3256 11.6275 17.3247 11.5534 21.3152 11.6624C22.955 11.706 24.1325 11.1914 25.3449 10.1098C31.4156 4.68895 40.9359 4.64098 47.1287 9.90486C47.4035 10.1404 47.6651 10.3933 47.9486 10.6245C48.4371 11.0257 48.8252 11.501 48.3237 12.0898C47.7349 12.7832 47.3032 12.1552 46.9019 11.7802C45.4017 10.3759 43.6834 9.34228 41.7689 8.59217C35.6153 6.18918 28.1229 8.26508 24.1499 13.5115C19.8106 19.2333 19.7495 26.5251 23.9886 32.3211C27.9136 37.6853 35.2752 39.892 41.4898 37.5762C50.574 34.1833 54.3333 24.3577 49.898 15.6005C49.7018 15.2124 49.4357 14.8591 49.2569 14.4666C49.0869 14.0915 49.2133 13.7383 49.5579 13.529C49.9198 13.3065 50.2731 13.4374 50.5042 13.7601C50.84 14.2267 51.1889 14.7021 51.4419 15.2167C54.2461 20.9385 54.0803 26.5818 50.7179 32.0027C50.0027 33.154 50.1771 33.6905 51.0581 34.5191C53.1689 36.5121 55.1663 38.6273 57.2422 40.6596C58.4371 41.8283 58.9648 43.1236 57.6783 44.4363C56.3307 45.8144 55.0791 45.0992 53.9364 43.9304C51.9041 41.8545 49.789 39.8615 47.8003 37.742C46.9281 36.8087 46.2608 36.7389 45.2229 37.4716C44.2896 38.1257 43.2124 38.7537 42.1178 38.9587C40.0811 39.3381 39.7104 40.4589 39.8151 42.3168C39.9721 45.1428 39.8631 47.9819 39.85 50.8123C39.85 51.4446 39.9677 52.3605 39.1304 52.3997C38.0663 52.4477 38.2974 51.4446 38.2931 50.773C38.2713 47.7246 38.3105 44.6718 38.2625 41.6234C38.2538 41.039 38.7597 40.049 37.4732 40.0228C36.2695 40.001 36.5442 40.8951 36.5399 41.5623C36.5224 45.2649 36.4745 48.9719 36.5573 52.6745C36.5922 54.2096 36.2302 54.8638 34.5207 54.8681C28.7945 54.8899 28.7945 54.9553 28.7945 49.2205C28.7945 46.1677 28.7291 43.1192 28.8251 40.0708C28.8687 38.6098 28.4369 37.7202 26.6881 37.4149L26.6925 37.4018ZM20.5912 42.6482C20.5912 45.6879 20.661 48.732 20.5694 51.7717C20.4997 54.0482 22.1307 53.1106 23.1381 53.224C24.1674 53.3374 25.2838 53.5685 25.214 51.7325C25.0745 47.9732 25.0614 44.2008 25.2097 40.4371C25.3187 37.6024 25.153 35.0163 22.6453 33.1366C22.17 32.779 22.0304 31.9068 21.1843 32.1379C20.1202 32.4301 20.6305 33.3459 20.6174 33.9609C20.5607 36.8567 20.5912 39.7524 20.5912 42.6482ZM30.4343 39.0939C30.4343 43.4812 30.443 47.7464 30.4343 52.0116C30.4299 54.1965 32.0785 53.0277 32.9768 53.2022C33.8927 53.3766 35.0397 53.5772 34.9612 51.8633C34.8521 49.408 34.935 46.9396 34.935 44.4755C34.935 41.6583 33.4362 39.8644 30.4387 39.0939H30.4343ZM48.9342 34.663C48.6987 34.8462 48.4414 34.9857 48.2626 35.1951C47.7436 35.8013 48.3585 36.1196 48.6682 36.4336C50.8008 38.6011 52.9639 40.7424 55.1139 42.8968C55.537 43.3199 56.0298 43.8257 56.5488 43.2152C57.0198 42.6613 56.5313 42.1641 56.1039 41.7324C54.0019 39.6303 51.9085 37.5195 49.8064 35.4175C49.5535 35.1645 49.2657 34.9465 48.9342 34.663Z" fill="#32361B"/>
<path d="M50.1905 23.106C50.1556 30.9124 44.002 36.9918 36.1782 36.9569C28.6029 36.9221 22.3447 30.6333 22.3316 23.0449C22.3141 15.3694 28.6334 9.07625 36.3483 9.08497C44.1329 9.09369 50.2254 15.2603 50.1905 23.106ZM36.3308 10.7117C29.4402 10.7117 23.9844 16.0846 23.9626 22.901C23.9408 29.8963 29.3356 35.3302 36.3134 35.339C43.2825 35.3477 48.7469 29.8658 48.6903 22.9228C48.6336 16.0628 43.2214 10.716 36.3352 10.7117H36.3308Z" fill="#32361B"/>
<path d="M6.05563 38.2173C6.05563 32.2687 6.04255 26.3158 6.07308 20.3672C6.07308 19.6651 5.64569 18.4832 6.85808 18.4876C8.02686 18.4919 7.66925 19.6563 7.67361 20.3847C7.69106 31.7803 7.71722 43.1716 7.65181 54.5672C7.64308 56.2026 7.96581 56.787 9.75823 56.7696C18.6113 56.6693 27.4644 56.7172 36.3175 56.7303C37.4383 56.7303 38.5809 56.9048 38.3411 55.1472C38.28 54.698 38.6333 54.3273 39.1784 54.3971C39.6014 54.4538 39.7105 54.8158 39.8151 55.1734C40.4519 57.2929 39.7454 58.2698 37.5517 58.2698C27.8264 58.2698 18.1011 58.2087 8.38011 58.3221C6.37399 58.3439 5.98149 57.7028 6.02074 55.8537C6.13849 49.9793 6.06435 44.0961 6.06435 38.2217L6.05563 38.2173Z" fill="#32361B"/>
<path d="M17.0761 45.8712C17.0761 48.2611 17.0325 50.651 17.0935 53.0365C17.1284 54.3187 16.7054 54.7853 15.3578 54.8246C9.40922 54.999 9.40922 55.0426 9.40922 49.2249C9.40922 45.6793 9.46592 42.1293 9.3787 38.5837C9.34381 37.1576 9.82789 36.7346 11.2365 36.7041C17.0761 36.5732 17.0717 36.5296 17.0717 42.3953C17.0717 43.5554 17.0717 44.7111 17.0717 45.8712H17.0761ZM15.602 45.6487C15.602 43.6906 15.4843 41.7237 15.6326 39.7743C15.7896 37.7333 14.4114 38.1956 13.3691 38.261C12.3443 38.322 10.783 37.4934 10.8658 39.7612C10.9923 43.237 10.9007 46.7259 10.9007 50.2061C10.9007 53.5031 10.9007 53.4377 14.2283 53.32C15.445 53.2764 15.6544 52.801 15.6195 51.7412C15.5541 49.7133 15.602 47.681 15.602 45.6487Z" fill="#32361B"/>
<path d="M14.2676 27.4278C13.4085 27.4278 12.545 27.4452 11.6858 27.4278C11.2366 27.419 10.8005 27.2926 10.7831 26.7387C10.77 26.211 11.1319 25.9668 11.6117 25.9624C13.4041 25.9493 15.2009 25.9406 16.9933 25.9712C17.4512 25.9799 17.8437 26.2459 17.8001 26.7692C17.7565 27.3144 17.2855 27.406 16.8494 27.4191C15.9902 27.4452 15.1267 27.4278 14.2676 27.4278Z" fill="#32361B"/>
</svg>
