<svg width="65" height="65" viewBox="0 0 65 65" fill="none" xmlns="http://www.w3.org/2000/svg">
<g clip-path="url(#clip0_52_186)">
<path d="M12.5135 58.1818C12.1136 57.9299 12 57.5678 12 57.1021C12.0082 40.4216 12.0068 23.7411 12.0082 7.06066C12.0082 6.24236 12.2519 6 13.0749 6C26.024 6 38.9718 6 51.921 6C52.7453 6 52.9918 6.24236 52.9918 7.05793C52.9918 14.2429 52.9918 21.4278 52.9904 28.6128C52.9904 28.7966 52.989 28.9927 52.9315 29.1642C52.8097 29.5305 52.529 29.7061 52.1401 29.6694C51.7499 29.6326 51.5212 29.3998 51.4651 29.0199C51.4377 28.8361 51.4527 28.6468 51.4527 28.4603C51.4527 21.7002 51.4527 14.9386 51.4527 8.1785C51.4527 7.97971 51.4527 7.78092 51.4527 7.55626H13.5774V56.6147H44.883C44.883 56.4499 44.883 56.2702 44.883 56.0918C44.883 54.4266 44.8802 52.7628 44.8843 51.0976C44.8857 50.3651 45.1294 50.1268 45.8689 50.1255C47.5257 50.1227 49.1825 50.1255 50.8393 50.1255C51.0241 50.1255 51.2076 50.1255 51.4527 50.1255C51.4527 49.879 51.4527 49.6816 51.4527 49.4828C51.4527 43.9794 51.4527 38.4759 51.4527 32.9725C51.4527 32.8023 51.4445 32.6321 51.4596 32.4633C51.4979 32.0276 51.7458 31.7716 52.1798 31.7485C52.618 31.7253 52.8822 31.9731 52.974 32.3911C53.0055 32.5382 52.9918 32.6961 52.9918 32.8486C52.9918 38.7428 52.989 44.637 52.9986 50.5312C52.9986 50.9887 52.8686 51.3359 52.5386 51.6613C50.4874 53.6805 48.4513 55.716 46.4083 57.7448C46.2536 57.8986 46.0866 58.0402 45.9264 58.1873H12.5135V58.1818ZM46.4508 55.3879C47.6968 54.1489 48.9401 52.9126 50.1793 51.6817H46.4508V55.3879Z" fill="black"/>
<path d="M47.4324 42.7119C48.0801 43.571 48.7113 44.4124 49.3467 45.2498C49.5876 45.5684 49.8327 45.8829 49.6109 46.3118C49.3959 46.7285 49.0084 46.7571 48.6018 46.7571C46.6711 46.753 44.7418 46.7625 42.8111 46.7489C42.4647 46.7462 42.284 46.8374 42.1142 47.171C40.1287 51.0814 36.9247 53.2463 32.5184 53.249C28.0942 53.2517 24.8724 51.0909 22.8787 47.1587C22.724 46.8551 22.5679 46.7434 22.2269 46.7475C20.2798 46.7652 18.3327 46.7543 16.3856 46.7571C15.9762 46.7571 15.5928 46.7203 15.3833 46.2996C15.1793 45.8911 15.3998 45.5875 15.6325 45.2811C16.1885 44.55 16.7279 43.8052 17.3003 43.0863C17.5153 42.8167 17.544 42.6356 17.314 42.3497C16.7156 41.6076 16.1323 40.852 15.5997 40.065C15.4326 39.8185 15.3464 39.4332 15.4025 39.1459C15.4819 38.7402 15.8872 38.6816 16.2692 38.6816C18.2506 38.6844 20.2319 38.6735 22.2132 38.6912C22.5542 38.6939 22.7034 38.5741 22.8719 38.2841C23.347 37.4644 23.8577 36.6611 24.4054 35.8877C24.771 35.3703 25.2571 35.2886 25.6282 35.5827C26.0349 35.9041 26.0171 36.3398 25.5762 36.8694C22.6624 40.3713 22.6938 45.2416 25.6515 48.6415C28.0217 51.3646 31.8543 52.428 35.2897 51.3142C38.7581 50.1895 41.231 47.1179 41.5418 43.5479C42.1347 36.7223 35.339 31.7676 28.9733 34.3873C28.6105 34.537 28.2627 34.6555 27.919 34.3682C27.4534 33.9802 27.6095 33.3062 28.238 33.0312C29.7319 32.3776 31.2997 32.0604 32.9264 32.1652C37.1793 32.4375 40.2465 34.5085 42.1375 38.295C42.2936 38.6095 42.4743 38.6912 42.8029 38.6898C44.75 38.6762 46.6971 38.6735 48.6442 38.6939C48.929 38.6966 49.2782 38.7769 49.4795 38.9539C49.8533 39.2807 49.7191 39.6837 49.4439 40.0459C48.777 40.9255 48.1143 41.8078 47.4338 42.7119H47.4324ZM22.1763 45.2008C21.7627 43.5193 21.7929 41.8936 22.1544 40.257H17.6467C18.0096 40.739 18.3218 41.1556 18.6367 41.5722C19.21 42.332 19.2063 43.0976 18.6258 43.8692C18.3067 44.2926 17.9863 44.7174 17.6207 45.2022H22.1763V45.2008ZM42.8372 45.1845H47.3612C46.8477 44.4982 46.3863 43.8733 45.9153 43.2551C45.6414 42.8957 45.6332 42.543 45.9043 42.1822C46.0673 41.9644 46.2343 41.7492 46.3973 41.5314C46.7026 41.1202 47.0066 40.7076 47.3366 40.261H42.8399C43.2247 41.9167 43.2164 43.5315 42.8385 45.1845H42.8372Z" fill="black"/>
<path d="M31.6256 19.0383C31.6256 21.6375 31.627 24.2367 31.6256 26.8346C31.6256 27.7482 31.4257 27.9456 30.5138 27.9456C25.8158 27.9456 21.1178 27.9456 16.4212 27.9456C15.5162 27.9456 15.293 27.7278 15.293 26.8455C15.293 21.6307 15.293 16.4159 15.293 11.2011C15.293 10.3134 15.5244 10.0806 16.4089 10.0806C21.1233 10.0806 25.8391 10.0806 30.5535 10.0806C31.3791 10.0806 31.6242 10.3188 31.6256 11.1385C31.6283 13.7718 31.6256 16.4037 31.6256 19.0369V19.0383ZM18.5765 26.3921C18.5765 25.0237 18.5683 23.718 18.5792 22.4122C18.5915 20.9063 19.6103 19.8933 21.1302 19.8824C22.6843 19.8716 24.2384 19.8716 25.7911 19.8824C27.3193 19.8933 28.3133 20.8832 28.3325 22.4095C28.3462 23.5478 28.3352 24.6847 28.3352 25.8229C28.3352 26.004 28.3352 26.1865 28.3352 26.388H30.0509V11.6436H16.8635V26.3921H18.5765ZM26.7935 26.3921C26.7935 25.0441 26.7989 23.7574 26.7907 22.4708C26.7866 21.7274 26.4785 21.4156 25.7323 21.4115C24.2151 21.4019 22.6966 21.4019 21.1795 21.4115C20.4455 21.4169 20.1237 21.7451 20.1183 22.4803C20.1101 23.6676 20.1155 24.8535 20.1183 26.0408C20.1183 26.1538 20.147 26.2654 20.1648 26.3921H26.7921H26.7935Z" fill="black"/>
<path d="M32.5242 35.4192C36.5704 35.4315 39.8621 38.7128 39.8484 42.7213C39.8347 46.7556 36.5033 50.041 32.4502 50.0165C28.426 49.992 25.1233 46.6698 25.152 42.6736C25.1808 38.6475 28.4739 35.407 32.5242 35.4192ZM32.49 36.9537C29.29 36.9605 26.6815 39.5584 26.6966 42.7213C26.7116 45.8937 29.3324 48.4916 32.5105 48.4861C35.6858 48.4807 38.3134 45.8583 38.3066 42.7008C38.2998 39.5284 35.6872 36.9455 32.4913 36.9523L32.49 36.9537Z" fill="black"/>
<path d="M41.531 24.6766C39.688 24.6766 37.8449 24.6793 36.0019 24.6766C35.3515 24.6766 35.0188 24.4029 35.0311 23.9005C35.042 23.4267 35.3803 23.1516 35.9923 23.1503C39.6948 23.1462 43.3987 23.1462 47.1012 23.1503C47.6927 23.1503 48.0556 23.4553 48.0583 23.9155C48.0624 24.3798 47.705 24.6739 47.1094 24.6752C45.2499 24.6793 43.3891 24.6766 41.5296 24.6766H41.531Z" fill="black"/>
<path d="M41.1053 18.1466C39.3814 18.1466 37.6589 18.1438 35.9349 18.1479C35.542 18.1479 35.2216 18.039 35.0737 17.6496C34.8765 17.1281 35.2366 16.6393 35.85 16.6175C36.447 16.5957 37.044 16.6121 37.641 16.6121C40.4563 16.6121 43.2729 16.6121 46.0881 16.6134C46.2743 16.6134 46.4687 16.608 46.6454 16.6543C47.0411 16.7591 47.2588 17.0423 47.2232 17.444C47.1876 17.8375 46.948 18.1139 46.529 18.1316C45.9333 18.1561 45.335 18.1452 44.738 18.1466C43.5262 18.1479 42.3144 18.1466 41.1039 18.1466H41.1053Z" fill="black"/>
<path d="M46.437 14.8787C45.6702 14.8787 44.9048 14.8855 44.138 14.8773C43.5656 14.8719 43.2493 14.5968 43.2466 14.1244C43.2439 13.6546 43.5656 13.3524 44.1229 13.3496C45.6894 13.3415 47.2558 13.3415 48.8223 13.3496C49.359 13.3524 49.7123 13.6873 49.7013 14.1353C49.689 14.5696 49.3563 14.8691 48.8373 14.8759C48.0377 14.8868 47.2366 14.8787 46.437 14.8787Z" fill="black"/>
<path d="M38.2395 14.8788C37.474 14.8788 36.7072 14.8842 35.9418 14.8774C35.3654 14.8719 35.0463 14.6064 35.0326 14.1421C35.0189 13.6588 35.3571 13.3511 35.9432 13.3484C37.4754 13.3416 39.0076 13.3429 40.5398 13.3484C41.1259 13.3511 41.4874 13.6547 41.486 14.119C41.486 14.5874 41.1355 14.8747 40.5385 14.8788C39.773 14.8842 39.0062 14.8801 38.2408 14.8788H38.2395Z" fill="black"/>
<path d="M38.1884 21.4075C37.4202 21.4075 36.6507 21.4143 35.8826 21.4047C35.3431 21.3979 35.0377 21.1229 35.0309 20.6654C35.024 20.2147 35.3349 19.8893 35.8552 19.8852C37.46 19.8716 39.0661 19.8703 40.6709 19.8852C41.1693 19.8907 41.5048 20.2569 41.4815 20.6872C41.4582 21.112 41.1433 21.3952 40.6476 21.402C39.8274 21.4115 39.0086 21.4047 38.1884 21.4047V21.4075Z" fill="black"/>
<path d="M26.6852 16.5875C26.6756 18.367 25.2447 19.7776 23.4551 19.7735C21.6737 19.7694 20.2277 18.3371 20.2236 16.5738C20.2195 14.8038 21.7148 13.3306 23.4948 13.3483C25.268 13.3674 26.6948 14.8147 26.6852 16.5875ZM25.1434 16.6038C25.1585 15.6657 24.4314 14.9046 23.4976 14.8814C22.5829 14.8596 21.7901 15.6139 21.7641 16.533C21.7381 17.4507 22.4939 18.2281 23.4264 18.2418C24.378 18.2567 25.1284 17.5405 25.1448 16.6024L25.1434 16.6038Z" fill="black"/>
<path d="M32.4707 45.1176C31.5875 44.9815 30.9481 45.1612 30.7523 46.1878C30.6591 46.6725 30.2073 46.8373 29.7965 46.6943C29.3611 46.5432 29.1584 46.1443 29.3364 45.6623C30.1402 43.5015 30.9481 41.342 31.7956 39.1989C31.8833 38.9756 32.2489 38.721 32.4762 38.7292C32.7308 38.7387 33.1129 38.977 33.2046 39.2071C34.0549 41.3502 34.8614 43.5096 35.6638 45.6704C35.8418 46.1497 35.631 46.5514 35.1942 46.6984C34.7875 46.8359 34.3411 46.6644 34.2425 46.181C34.0453 45.2021 33.4634 44.9515 32.572 45.1163C32.5392 45.1217 32.5036 45.1163 32.4693 45.1163L32.4707 45.1176ZM32.557 41.7873L32.4365 41.7941C32.2201 42.3727 32.0038 42.9528 31.7778 43.5573H33.2252C32.991 42.9364 32.7747 42.3618 32.557 41.7873Z" fill="black"/>
</g>
<defs>
<clipPath id="clip0_52_186">
<rect width="41" height="52.1818" fill="white" transform="translate(12 6)"/>
</clipPath>
</defs>
</svg>
