<svg width="65" height="65" viewBox="0 0 65 65" fill="none" xmlns="http://www.w3.org/2000/svg">
<path d="M37.4914 11.7025C37.1344 12.4436 37.1305 13.1615 37.5457 13.922H26.2893C26.2893 14.0966 26.2893 14.2169 26.2893 14.341C26.2893 16.4519 26.2893 18.5627 26.2893 20.6696C26.2893 21.8336 25.6336 22.4855 24.4579 22.4855C22.3122 22.4855 20.1703 22.4855 18.0246 22.4855H17.6405V37.1409C17.1748 37.3233 16.7674 37.4901 16.3561 37.6414C16.2785 37.6686 16.1699 37.6647 16.0961 37.6337C15.3706 37.3077 15.3706 37.3039 15.3706 36.5007C15.3706 31.3478 15.3783 26.1911 15.3628 21.0382C15.3628 20.3825 15.5762 19.8742 16.0457 19.4163C18.4786 17.03 20.8998 14.6282 23.321 12.2264C23.6702 11.881 24.0776 11.687 24.5704 11.687C28.8076 11.687 33.0408 11.687 37.278 11.687C37.3362 11.687 37.3982 11.6948 37.4875 11.7025H37.4914Z" fill="black"/>
<path d="M47.7002 22.4582C48.4723 22.3573 49.2057 22.2564 49.9662 22.1555V22.5203C49.9662 31.5378 49.9662 40.5553 49.9662 49.5689C49.9662 50.8804 49.9662 52.1919 49.9662 53.5034C49.9662 54.6131 49.2833 55.296 48.1658 55.296C40.0446 55.296 31.9234 55.296 23.8022 55.3038C23.5772 55.3038 23.4608 55.23 23.3677 55.036C23.0456 54.388 22.708 53.7517 22.3472 53.061H47.704V22.4543L47.7002 22.4582Z" fill="black"/>
<path d="M41.4027 14.24C42.3107 13.9141 43.1721 13.6037 44.0335 13.2932C44.8406 13.0022 45.6476 12.7073 46.4586 12.4318C46.6099 12.3814 46.8078 12.3814 46.9591 12.428C47.4325 12.5676 47.9563 12.428 48.2202 12.0671C48.4608 11.7373 48.4103 11.3454 48.0921 11.0854C47.5916 10.6741 46.7962 10.8293 46.4664 11.3881C46.4043 11.4928 46.2918 11.5976 46.1792 11.6403C44.2779 12.331 42.3767 13.0177 40.4676 13.6929C40.3279 13.7433 40.1378 13.7239 39.9904 13.6813C39.7576 13.6153 39.5403 13.4989 39.3113 13.4135C39.0436 13.3126 38.8612 13.138 38.8302 12.8431C38.7992 12.5521 38.9505 12.3504 39.1872 12.1874C40.8324 11.0544 42.4737 9.9175 44.115 8.77673C44.8522 8.26455 45.5894 7.75237 46.3189 7.22854C46.6681 6.97633 47.0173 6.93365 47.4209 7.09662C50.0555 8.17918 52.694 9.25011 55.3287 10.3288C55.6003 10.4413 55.8913 10.5383 55.9766 10.872C56.0698 11.2406 55.8719 11.4696 55.5964 11.6597C54.2849 12.5676 52.9734 13.4795 51.6619 14.3874C50.5755 15.1402 49.489 15.8891 48.4064 16.6496C48.1309 16.8436 47.8671 16.9096 47.545 16.7776C45.5584 15.9589 43.5679 15.148 41.5774 14.3331C41.5308 14.3137 41.4881 14.2866 41.3989 14.24H41.4027Z" fill="black"/>
<path d="M12.4762 40.0354C12.5072 40.0354 12.5421 40.0354 12.5732 40.0431C13.2871 40.2565 13.7023 39.9345 14.0554 39.3408C14.4395 38.6967 14.715 38.623 15.3203 39.0459C15.9528 39.4844 16.4805 39.496 17.1207 39.0615C17.726 38.6502 17.9394 38.751 18.3779 39.3447C19.1035 40.3225 18.7077 40.1712 19.9494 40.113C20.5818 40.0819 20.9466 40.3264 20.9854 40.9511C21.028 41.6767 21.3229 42.1229 22.0563 42.2665C22.1572 42.2859 22.2503 42.3441 22.3473 42.3906C22.7159 42.5614 22.844 42.8213 22.7392 43.2093C22.6616 43.5042 22.5685 43.7953 22.4676 44.0824C22.3939 44.2958 22.4288 44.4626 22.5918 44.6256C22.809 44.839 23.0147 45.0679 23.2165 45.2969C23.4997 45.6189 23.4958 45.9371 23.2126 46.2553C22.9992 46.492 22.7586 46.7015 22.5685 46.9537C22.4831 47.0662 22.4365 47.2602 22.4637 47.3999C22.518 47.6987 22.6383 47.982 22.7198 48.2768C22.8517 48.7425 22.7276 48.9869 22.2775 49.1732C22.0214 49.2779 21.7692 49.3866 21.5053 49.4681C21.2531 49.5457 21.1173 49.6815 21.094 49.957C21.0707 50.248 21.0125 50.539 20.9504 50.8261C20.8612 51.2374 20.6556 51.3965 20.2326 51.381C19.9144 51.3693 19.5963 51.3499 19.282 51.3111C19.0569 51.284 18.8978 51.3499 18.7698 51.5401C18.5952 51.8039 18.4089 52.06 18.2149 52.3083C17.9821 52.6149 17.6911 52.6808 17.3458 52.5062C17.0548 52.3588 16.7676 52.1958 16.4883 52.0251C16.2942 51.9048 16.1196 51.9087 15.9256 52.0251C15.6734 52.1764 15.4096 52.3161 15.1457 52.448C14.7267 52.6614 14.455 52.5993 14.1796 52.2307C14.0049 51.994 13.8342 51.7535 13.6713 51.5051C13.5432 51.3073 13.3764 51.2219 13.1358 51.2452C12.8603 51.2723 12.5848 51.2917 12.3093 51.2995C11.8127 51.3111 11.541 51.09 11.4518 50.6011C11.4014 50.3333 11.3509 50.0656 11.3238 49.794C11.3005 49.5728 11.1841 49.4603 10.9862 49.3866C10.6991 49.2818 10.4119 49.1654 10.1325 49.0451C9.70573 48.8627 9.58156 48.6028 9.70573 48.1643C9.78721 47.8811 9.86481 47.5978 9.96958 47.3223C10.0511 47.105 10.0006 46.9421 9.83765 46.783C9.62036 46.5657 9.41471 46.3406 9.21295 46.1117C8.92581 45.7858 8.92969 45.4792 9.22071 45.1572C9.43412 44.9244 9.67469 44.711 9.86481 44.4626C9.95018 44.3501 9.99286 44.1561 9.9657 44.0164C9.9075 43.6982 9.78333 43.3917 9.70185 43.0774C9.5932 42.6545 9.71349 42.4217 10.1209 42.2548C10.4042 42.1384 10.6913 42.0259 10.9823 41.9289C11.1996 41.8552 11.316 41.7271 11.3354 41.4982C11.3548 41.2887 11.3975 41.083 11.4285 40.8774C11.5488 40.113 11.6885 40.0005 12.4723 40.0431L12.4762 40.0354ZM16.1662 51.0162C19.1539 51.024 21.6256 48.6455 21.6372 45.7509C21.6489 42.7903 19.2703 40.4156 16.2787 40.404C13.2406 40.3923 10.7844 42.7709 10.7767 45.7353C10.7689 48.6532 13.1746 51.0085 16.1662 51.0162Z" fill="black"/>
<path d="M32.2841 37.9633C28.6756 37.9633 25.067 37.9633 21.4585 37.9633C20.8687 37.9633 20.4768 37.6218 20.4496 37.098C20.4225 36.578 20.795 36.1629 21.3227 36.1279C21.408 36.1241 21.4934 36.1279 21.5788 36.1279C28.7532 36.1279 35.9276 36.1279 43.102 36.1279C43.1874 36.1279 43.2728 36.1279 43.3581 36.1318C43.8509 36.1784 44.2079 36.5819 44.1962 37.0747C44.1846 37.552 43.8199 37.9361 43.3387 37.9633C43.137 37.9749 42.9352 37.9671 42.7334 37.9671C39.2529 37.9671 35.7724 37.9671 32.2919 37.9671L32.2841 37.9633Z" fill="black"/>
<path d="M32.3194 30.6453C35.9396 30.6453 39.5559 30.6453 43.1761 30.6453C43.8163 30.6453 44.2276 31.0565 44.1888 31.6347C44.1578 32.077 43.828 32.4224 43.3817 32.4728C43.2576 32.4883 43.1257 32.4845 43.0015 32.4845C35.8892 32.4845 28.7807 32.4845 21.6683 32.4845C21.5636 32.4845 21.4549 32.4845 21.3502 32.4806C20.807 32.4495 20.4383 32.0615 20.45 31.5377C20.4616 31.0333 20.8419 30.6608 21.3657 30.6414C21.5131 30.6375 21.6645 30.6414 21.8119 30.6414C25.3157 30.6414 28.8156 30.6414 32.3194 30.6414V30.6453Z" fill="black"/>
<path d="M24.4269 48.7269C24.3493 48.3428 24.2795 48.0052 24.2212 47.6676C24.2096 47.5978 24.2329 47.5046 24.2756 47.4503C24.5627 47.0752 24.952 46.8877 25.4435 46.8877C31.6401 46.8877 37.8406 46.8877 44.0372 46.8877C44.7318 46.8877 45.1392 47.2408 45.1315 47.8306C45.1237 48.3117 44.7628 48.692 44.2817 48.723C44.1032 48.7347 43.9208 48.723 43.7424 48.723C37.4293 48.723 31.1124 48.723 24.7994 48.723C24.6713 48.723 24.5472 48.723 24.4308 48.723L24.4269 48.7269Z" fill="black"/>
<path d="M42.6367 15.699C44.1926 16.3353 45.6981 16.9368 47.1842 17.5653C47.7934 17.8214 48.3211 17.7749 48.8566 17.3946C50.1836 16.4556 51.5261 15.536 52.9114 14.5737C52.9502 14.8531 52.9851 15.0937 53.0123 15.3381C53.0627 15.7843 53.0821 16.2383 53.1636 16.6807C53.4003 17.9572 52.8299 18.8691 51.8249 19.552C50.3039 20.5802 48.6044 20.9605 46.7729 20.782C45.7913 20.6889 44.8484 20.4755 44.0219 19.9012C43.339 19.4239 42.9393 18.8031 42.8734 17.965C42.8152 17.2239 42.7182 16.4867 42.6328 15.6951L42.6367 15.699Z" fill="black"/>
<path d="M23.8413 41.5407C24.0431 41.5407 24.1595 41.5407 24.2759 41.5407C30.5462 41.5407 36.8166 41.5407 43.0908 41.5407C43.7194 41.5407 44.1113 41.824 44.1811 42.3245C44.2587 42.8833 43.8785 43.345 43.312 43.3799C43.2383 43.3838 43.1645 43.3799 43.0908 43.3799C36.9795 43.3799 30.8683 43.3799 24.7531 43.3799H24.3574C24.435 42.7164 24.3224 42.1111 23.8452 41.5369L23.8413 41.5407Z" fill="black"/>
<path d="M36.6189 25.1665C38.8073 25.1665 40.9918 25.1665 43.1802 25.1665C43.7856 25.1665 44.1852 25.5274 44.1968 26.0628C44.2085 26.575 43.8438 26.9708 43.3277 27.0018C43.1143 27.0135 42.9048 27.0057 42.6913 27.0057C38.4891 27.0057 34.283 27.0057 30.0808 27.0057C29.4871 27.0057 29.0914 26.7108 29.0215 26.2219C28.9439 25.6515 29.3591 25.1743 29.9683 25.1704C30.7948 25.1626 31.6251 25.1704 32.4516 25.1704C33.8407 25.1704 35.2337 25.1704 36.6228 25.1704L36.6189 25.1665Z" fill="black"/>
<path d="M11.5682 57.0304C11.0677 57.1972 10.5982 57.3563 10.1287 57.5038C10.0278 57.5348 9.91138 57.5115 9.80273 57.5154C9.81437 57.4106 9.79886 57.2903 9.84154 57.2011C10.6525 55.5404 11.4712 53.8874 12.2899 52.2306C12.4451 51.9202 13.0582 51.862 13.2638 52.1375C13.3453 52.2461 13.4268 52.3587 13.5005 52.4712C13.842 53.0028 14.2882 53.3481 15.0177 53.2589C14.9711 53.3791 14.9478 53.4645 14.909 53.5421C14.1097 55.1718 13.3065 56.8014 12.4994 58.4272C12.4451 58.5359 12.3287 58.6135 12.2395 58.7066C12.1658 58.598 12.0726 58.501 12.0261 58.3846C11.867 57.9461 11.7234 57.496 11.5643 57.0343L11.5682 57.0304Z" fill="black"/>
<path d="M20.8651 56.8287C20.6943 57.3331 20.5391 57.7987 20.3684 58.2604C20.3374 58.3497 20.252 58.4195 20.1938 58.501C20.1201 58.4389 20.0153 58.3924 19.9726 58.3109C19.1268 56.689 18.2886 55.0632 17.4505 53.4374C17.435 53.4102 17.435 53.3792 17.4272 53.352C17.4428 53.3326 17.4583 53.3055 17.4699 53.3055C18.1916 53.3676 18.6573 52.9873 18.9832 52.413C19.1656 52.0987 19.3867 51.9823 19.7515 52.0444C19.9494 52.0793 20.0658 52.1298 20.1589 52.316C20.9621 53.8759 21.7769 55.4318 22.5801 56.9916C22.6267 57.0809 22.6189 57.1973 22.6383 57.302C22.5297 57.302 22.4133 57.3331 22.3124 57.302C21.839 57.1546 21.3656 56.9955 20.8573 56.8248L20.8651 56.8287Z" fill="black"/>
<path d="M40.8401 18.9661C40.6849 17.5615 40.5297 16.184 40.3706 14.7561C40.6112 14.8531 40.8091 14.923 40.9953 15.02C41.0652 15.0549 41.1428 15.148 41.1505 15.2217C41.2902 16.4091 41.4182 17.5964 41.5502 18.7798C41.5502 18.807 41.5385 18.838 41.5269 18.8924C41.3212 18.9156 41.1117 18.935 40.844 18.9661H40.8401Z" fill="black"/>
<path d="M41.5654 19.3074C41.6934 19.3889 41.8448 19.4432 41.9263 19.5518C42.5354 20.3085 42.5122 20.0446 42.0349 20.8051C41.5732 21.5385 41.5693 21.5346 40.9523 20.9293C40.3781 20.3667 40.3432 20.2037 40.8437 19.579C40.9717 19.4199 41.286 19.4083 41.5654 19.3113V19.3074Z" fill="black"/>
<path d="M20.9505 45.7314C20.9156 48.3156 18.7698 50.3876 16.1818 50.3411C13.5549 50.2906 11.4713 48.2147 11.5023 45.6732C11.5295 43.0968 13.6752 41.0714 16.337 41.1024C18.8746 41.1334 20.9854 43.2481 20.9544 45.7314H20.9505ZM13.2716 45.7159C13.2716 47.299 14.6181 48.5872 16.2749 48.5872C17.8308 48.5872 19.1811 47.2525 19.185 45.712C19.185 44.1173 17.8502 42.8136 16.2089 42.8097C14.5987 42.8097 13.2755 44.1173 13.2716 45.7159ZM13.3531 44.645C13.2484 44.5169 13.2096 44.4238 13.1436 44.4005C12.8604 44.2841 12.5732 44.1755 12.2783 44.094C12.2124 44.0746 12.0455 44.1677 12.0378 44.2221C12.03 44.3113 12.0882 44.4587 12.1619 44.4898C12.418 44.6101 12.6896 44.7071 12.9651 44.773C13.0582 44.7963 13.1824 44.7032 13.3493 44.645H13.3531ZM18.8474 43.8534C19.1423 43.5779 19.4217 43.3219 19.6933 43.0541C19.7127 43.0347 19.6662 42.895 19.6235 42.8718C19.5498 42.8368 19.4256 42.8174 19.3713 42.8562C19.1268 43.0347 18.8901 43.2287 18.669 43.4344C18.6224 43.4771 18.6069 43.5935 18.6302 43.6594C18.6534 43.7215 18.7427 43.7642 18.8513 43.8534H18.8474ZM18.6069 42.1229C18.5487 42.0375 18.5215 41.9522 18.4711 41.9289C18.4051 41.9017 18.2654 41.8901 18.2421 41.9289C18.052 42.216 17.8735 42.5109 17.7106 42.8174C17.6912 42.8562 17.761 42.9726 17.8153 43.0153C17.8619 43.0502 17.9899 43.0502 18.0132 43.0153C18.2189 42.7282 18.409 42.4255 18.6069 42.1229ZM15.8675 48.952C15.8287 48.9015 15.7627 48.7541 15.689 48.7502C15.6036 48.7463 15.4562 48.8511 15.429 48.9365C15.3514 49.1925 15.3049 49.4642 15.2816 49.7319C15.2738 49.8173 15.3825 49.9104 15.4368 49.9996C15.526 49.9337 15.6696 49.8793 15.6968 49.794C15.7744 49.5456 15.8015 49.2857 15.8636 48.952H15.8675ZM13.3842 46.783C13.1824 46.7131 13.0582 46.6239 12.9574 46.6472C12.6896 46.7054 12.4297 46.8024 12.1813 46.9149C12.1037 46.9498 12.0688 47.0856 12.0184 47.1749C12.1192 47.2214 12.2356 47.3262 12.321 47.3029C12.5849 47.2408 12.8448 47.1361 13.097 47.0352C13.1746 47.0041 13.229 46.9226 13.3842 46.783ZM13.8537 47.8461C13.8498 47.6366 13.6519 47.5474 13.4812 47.6715C13.26 47.8306 13.0466 48.0013 12.8565 48.1953C12.7944 48.2574 12.8254 48.4088 12.8099 48.5174C12.9147 48.5174 13.0466 48.5601 13.1164 48.5174C13.3493 48.3583 13.5588 48.1682 13.7722 47.9819C13.8149 47.9431 13.8343 47.8811 13.8498 47.85L13.8537 47.8461ZM19.4722 48.6222C19.5536 48.5601 19.6545 48.5213 19.67 48.4631C19.6894 48.3894 19.67 48.2691 19.6196 48.2147C19.4916 48.0789 19.3441 47.9548 19.1889 47.85C19.0259 47.7414 18.863 47.4271 18.6496 47.7064C18.4633 47.9509 18.7737 48.0518 18.9134 48.1798C19.0803 48.335 19.2704 48.4631 19.4722 48.6183V48.6222ZM18.6767 49.3866C18.4129 48.9791 18.2227 48.6687 18.0171 48.3738C17.9938 48.3428 17.8464 48.3544 17.792 48.3971C17.7416 48.4359 17.6912 48.5601 17.7144 48.6066C17.8619 48.8938 18.0287 49.1731 18.2033 49.4409C18.2344 49.4874 18.3508 49.4991 18.4245 49.4913C18.506 49.4836 18.5797 49.4292 18.6728 49.3904L18.6767 49.3866ZM12.9574 42.8019C12.8953 42.8524 12.806 42.895 12.7828 42.9571C12.7595 43.0192 12.775 43.1395 12.8216 43.1822C13.0466 43.3839 13.2794 43.5818 13.5277 43.7564C13.5859 43.7952 13.7722 43.7681 13.7916 43.7254C13.8265 43.6439 13.8265 43.4887 13.7683 43.4344C13.5859 43.2481 13.3764 43.089 13.1708 42.9261C13.1164 42.8795 13.0466 42.8524 12.9612 42.8058L12.9574 42.8019ZM12.4297 45.5103C12.2706 45.5103 12.1076 45.487 11.9563 45.518C11.8787 45.5336 11.7855 45.6383 11.7661 45.7198C11.7545 45.7664 11.8709 45.8983 11.933 45.9022C12.2473 45.9216 12.5655 45.9254 12.8798 45.9022C12.9457 45.8983 13.035 45.7664 13.0466 45.6888C13.0544 45.6344 12.9418 45.5297 12.8681 45.5141C12.7245 45.487 12.5732 45.5064 12.4258 45.5064L12.4297 45.5103ZM19.3946 46.5812C19.3208 46.6472 19.2238 46.6937 19.2005 46.7636C19.1773 46.8218 19.2199 46.9576 19.2665 46.977C19.5769 47.105 19.8912 47.2214 20.2133 47.3145C20.2676 47.3301 20.384 47.2369 20.4189 47.171C20.4461 47.1205 20.4034 46.9809 20.353 46.9615C20.0464 46.8256 19.7321 46.7092 19.3946 46.5773V46.5812ZM17.1945 49.7901C17.1285 49.4525 17.0936 49.1809 17.0199 48.9209C16.9966 48.8433 16.8608 48.7968 16.7793 48.7347C16.7211 48.82 16.6047 48.9093 16.6125 48.9908C16.6319 49.2624 16.6823 49.5301 16.756 49.794C16.7793 49.8755 16.9151 49.9957 16.9811 49.9841C17.0703 49.9686 17.1402 49.8483 17.1945 49.794V49.7901ZM15.8636 42.4566C15.8015 42.1229 15.7666 41.8629 15.6968 41.6107C15.6735 41.5292 15.5493 41.4788 15.4678 41.4128C15.4057 41.5059 15.2816 41.5991 15.2893 41.6883C15.3049 41.9483 15.3553 42.2082 15.429 42.4605C15.4562 42.5497 15.592 42.6583 15.6774 42.6583C15.7472 42.6583 15.817 42.5109 15.8636 42.4566ZM14.8004 42.8407C14.5948 42.5225 14.4047 42.2199 14.199 41.9328C14.1757 41.8978 14.0283 41.9134 13.974 41.9522C13.9235 41.991 13.877 42.1151 13.9002 42.1617C14.0516 42.4488 14.2184 42.7282 14.3969 42.9998C14.4279 43.0425 14.556 43.0541 14.6219 43.0308C14.684 43.0076 14.7267 42.9222 14.7966 42.8368L14.8004 42.8407ZM14.8043 48.5601C14.7267 48.4747 14.6801 48.3816 14.6181 48.3699C14.5443 48.3544 14.4124 48.3777 14.3775 48.432C14.2107 48.6804 14.0554 48.9442 13.9196 49.2119C13.8886 49.2701 13.9235 49.3982 13.974 49.4525C14.0128 49.4952 14.1718 49.5107 14.1951 49.4797C14.4047 49.1848 14.5987 48.8821 14.8082 48.5601H14.8043ZM19.4023 44.8002C19.736 44.6722 20.0464 44.5674 20.3413 44.4355C20.3956 44.4122 20.4422 44.2531 20.4112 44.2027C20.3685 44.1328 20.2365 44.0552 20.1667 44.0746C19.8718 44.1561 19.5847 44.2609 19.3053 44.3811C19.2432 44.4083 19.1928 44.5557 19.2044 44.6372C19.2122 44.6993 19.3286 44.7459 19.3984 44.8002H19.4023ZM17.1867 41.6417C17.1402 41.5874 17.0626 41.5021 16.985 41.4128C16.8996 41.4865 16.7677 41.5486 16.7405 41.6417C16.6668 41.8784 16.6202 42.1306 16.6086 42.379C16.6047 42.4721 16.7134 42.573 16.7716 42.6739C16.8569 42.604 16.9966 42.5458 17.0238 42.4566C17.0975 42.2199 17.1247 41.9677 17.1867 41.6417ZM20.0348 45.906C20.0348 45.906 20.0348 45.906 20.0348 45.9099C20.1822 45.9099 20.3374 45.9371 20.4732 45.9022C20.5586 45.8789 20.6556 45.7741 20.6828 45.6888C20.6944 45.6461 20.5664 45.5064 20.4926 45.4986C20.19 45.4792 19.8835 45.4792 19.5769 45.4986C19.5071 45.5025 19.3984 45.6344 19.3984 45.7004C19.3984 45.7702 19.511 45.875 19.5924 45.8944C19.7321 45.9254 19.8835 45.9022 20.0309 45.9022L20.0348 45.906Z" fill="black"/>
<path d="M14.7616 47.6793C14.8469 47.202 14.909 46.8024 14.9866 46.4066C15.0332 46.1816 14.9944 46.0225 14.8081 45.8595C14.5055 45.5879 14.2416 45.2697 13.939 44.9438C14.3309 44.8856 14.7344 44.8041 15.1457 44.7692C15.4018 44.7459 15.5415 44.6411 15.6424 44.4161C15.8092 44.0475 16.0071 43.6905 16.2244 43.2637C16.4339 43.6788 16.6279 44.0242 16.7831 44.385C16.8918 44.6334 17.0431 44.7537 17.3263 44.7731C17.726 44.8002 18.1218 44.8817 18.5176 44.9399C18.2033 45.2697 17.9123 45.5995 17.598 45.9022C17.4622 46.0341 17.4156 46.1544 17.4544 46.3406C17.5436 46.7558 17.6018 47.1788 17.6872 47.6715C17.2293 47.4387 16.8413 47.2253 16.4417 47.0507C16.3214 46.9964 16.1313 46.9964 16.011 47.0507C15.6074 47.2292 15.2233 47.4426 14.7577 47.6793H14.7616Z" fill="black"/>
</svg>
